<svg width="200" height="81" viewBox="0 0 200 81" fill="none" xmlns="http://www.w3.org/2000/svg">
<rect width="200" height="81" rx="4" fill="#1F1F1F"/>
<path d="M26.6734 35.7216C25.7974 35.7216 24.4414 34.7256 23.0134 34.7616C21.1294 34.7856 19.4014 35.8536 18.4294 37.5456C16.4734 40.9416 17.9254 45.9576 19.8334 48.7176C20.7694 50.0616 21.8734 51.5736 23.3374 51.5256C24.7414 51.4656 25.2694 50.6136 26.9734 50.6136C28.6654 50.6136 29.1454 51.5256 30.6334 51.4896C32.1454 51.4656 33.1054 50.1216 34.0294 48.7656C35.0974 47.2056 35.5414 45.6936 35.5654 45.6096C35.5294 45.5976 32.6254 44.4816 32.5894 41.1216C32.5654 38.3136 34.8814 36.9696 34.9894 36.9096C33.6694 34.9776 31.6414 34.7616 30.9334 34.7136C29.0854 34.5696 27.5374 35.7216 26.6734 35.7216ZM29.7934 32.8896C30.5734 31.9536 31.0894 30.6456 30.9454 29.3496C29.8294 29.3976 28.4854 30.0936 27.6814 31.0296C26.9614 31.8576 26.3374 33.1896 26.5054 34.4616C27.7414 34.5576 29.0134 33.8256 29.7934 32.8896Z" fill="white"/>
<path d="M55.328 30V18.8H58.48C59.4613 18.8 60.3147 19.0027 61.04 19.408C61.7653 19.8133 62.3307 20.4267 62.736 21.248C63.1413 22.0587 63.344 23.0933 63.344 24.352C63.344 25.6 63.1413 26.6453 62.736 27.488C62.3307 28.32 61.7653 28.9493 61.04 29.376C60.3147 29.792 59.4613 30 58.48 30H55.328ZM56.768 28.8H58.448C59.504 28.8 60.3413 28.448 60.96 27.744C61.5893 27.0293 61.904 25.904 61.904 24.368C61.904 22.832 61.5893 21.7227 60.96 21.04C60.3413 20.3467 59.504 20 58.448 20H56.768V28.8ZM68.8104 30.24C67.9997 30.24 67.2957 30.048 66.6984 29.664C66.1117 29.28 65.6584 28.7413 65.3384 28.048C65.0184 27.3547 64.8584 26.5387 64.8584 25.6C64.8584 24.6613 65.0184 23.8453 65.3384 23.152C65.6584 22.4587 66.1117 21.92 66.6984 21.536C67.2957 21.152 67.9997 20.96 68.8104 20.96C69.6317 20.96 70.3357 21.152 70.9224 21.536C71.509 21.92 71.9624 22.4587 72.2824 23.152C72.6024 23.8453 72.7624 24.6613 72.7624 25.6C72.7624 26.5387 72.6024 27.3547 72.2824 28.048C71.9624 28.7413 71.509 29.28 70.9224 29.664C70.3357 30.048 69.6317 30.24 68.8104 30.24ZM68.8104 29.04C69.6637 29.04 70.2984 28.7307 70.7144 28.112C71.141 27.4933 71.3544 26.656 71.3544 25.6C71.3544 24.544 71.141 23.7067 70.7144 23.088C70.2984 22.4693 69.6637 22.16 68.8104 22.16C67.957 22.16 67.317 22.4693 66.8904 23.088C66.4744 23.7067 66.2664 24.544 66.2664 25.6C66.2664 26.656 66.4904 27.4933 66.9384 28.112C67.3864 28.7307 68.0104 29.04 68.8104 29.04ZM75.4889 30L73.6489 21.2H75.0089L76.4009 28.528H76.1609L78.2249 21.2H79.4409L81.4569 28.528H81.3129L82.5929 21.2H83.9529L82.2249 30H80.6089L78.5769 22.576H79.0889L77.0089 30H75.4889ZM91.3216 30V24.816C91.3216 23.056 90.6123 22.176 89.1936 22.176C88.4256 22.176 87.823 22.432 87.3856 22.944C86.959 23.456 86.7456 24.2133 86.7456 25.216L86.6016 23.472C86.6443 22.672 86.9376 22.0587 87.4816 21.632C88.0256 21.1947 88.7136 20.976 89.5456 20.976C90.655 20.976 91.455 21.296 91.9456 21.936C92.447 22.576 92.6976 23.456 92.6976 24.576V30H91.3216ZM85.3696 30V21.2H86.7456V30H85.3696ZM96.6479 30C96.0505 30 95.5865 29.84 95.2559 29.52C94.9359 29.2 94.7759 28.736 94.7759 28.128V17.84H96.1359V28.192C96.1359 28.672 96.3759 28.912 96.8559 28.912H97.5599V30H96.6479ZM102.264 30.24C101.453 30.24 100.749 30.048 100.152 29.664C99.5648 29.28 99.1115 28.7413 98.7915 28.048C98.4715 27.3547 98.3115 26.5387 98.3115 25.6C98.3115 24.6613 98.4715 23.8453 98.7915 23.152C99.1115 22.4587 99.5648 21.92 100.152 21.536C100.749 21.152 101.453 20.96 102.264 20.96C103.085 20.96 103.789 21.152 104.376 21.536C104.962 21.92 105.416 22.4587 105.736 23.152C106.056 23.8453 106.216 24.6613 106.216 25.6C106.216 26.5387 106.056 27.3547 105.736 28.048C105.416 28.7413 104.962 29.28 104.376 29.664C103.789 30.048 103.085 30.24 102.264 30.24ZM102.264 29.04C103.117 29.04 103.752 28.7307 104.168 28.112C104.594 27.4933 104.808 26.656 104.808 25.6C104.808 24.544 104.594 23.7067 104.168 23.088C103.752 22.4693 103.117 22.16 102.264 22.16C101.41 22.16 100.77 22.4693 100.344 23.088C99.9275 23.7067 99.7195 24.544 99.7195 25.6C99.7195 26.656 99.9435 27.4933 100.392 28.112C100.84 28.7307 101.464 29.04 102.264 29.04ZM112.812 30V23.856C112.812 23.2587 112.641 22.8267 112.3 22.56C111.969 22.2933 111.548 22.16 111.036 22.16C110.46 22.16 109.969 22.2933 109.564 22.56C109.158 22.816 108.865 23.184 108.684 23.664L107.58 22.944C107.921 22.272 108.39 21.776 108.988 21.456C109.596 21.1253 110.294 20.96 111.084 20.96C111.67 20.96 112.198 21.056 112.668 21.248C113.148 21.44 113.526 21.7547 113.804 22.192C114.081 22.6293 114.22 23.2213 114.22 23.968V30H112.812ZM110.156 30.176C109.292 30.176 108.625 29.9413 108.156 29.472C107.697 28.992 107.468 28.3947 107.468 27.68C107.468 26.88 107.74 26.2453 108.284 25.776C108.828 25.3067 109.633 24.9867 110.7 24.816L113.02 24.48V25.6L110.732 25.952C110.113 26.08 109.644 26.2667 109.324 26.512C109.014 26.7573 108.86 27.1147 108.86 27.584C108.86 28.0853 109.014 28.448 109.324 28.672C109.633 28.896 110.012 29.008 110.46 29.008C111.196 29.008 111.772 28.7627 112.188 28.272C112.604 27.7707 112.812 27.0613 112.812 26.144L113.036 27.504C113.014 28.336 112.758 28.992 112.268 29.472C111.788 29.9413 111.084 30.176 110.156 30.176ZM119.585 30.24C118.913 30.24 118.294 30.0693 117.729 29.728C117.174 29.3867 116.726 28.8747 116.385 28.192C116.043 27.4987 115.873 26.6347 115.873 25.6C115.873 24.5547 116.043 23.6907 116.385 23.008C116.726 22.3253 117.174 21.8133 117.729 21.472C118.294 21.1307 118.913 20.96 119.585 20.96C120.086 20.96 120.555 21.0773 120.993 21.312C121.441 21.536 121.809 21.856 122.097 22.272C122.385 22.688 122.555 23.184 122.609 23.76L123.409 25.6L122.609 27.44C122.555 28.0053 122.385 28.5013 122.097 28.928C121.809 29.344 121.446 29.6693 121.009 29.904C120.571 30.128 120.097 30.24 119.585 30.24ZM119.889 29.04C120.433 29.04 120.886 28.8907 121.249 28.592C121.611 28.2827 121.883 27.872 122.065 27.36C122.246 26.8373 122.337 26.2507 122.337 25.6C122.337 24.9493 122.246 24.368 122.065 23.856C121.883 23.3333 121.611 22.9227 121.249 22.624C120.886 22.3147 120.433 22.16 119.889 22.16C119.046 22.16 118.395 22.464 117.937 23.072C117.478 23.6693 117.249 24.512 117.249 25.6C117.249 26.688 117.478 27.536 117.937 28.144C118.395 28.7413 119.046 29.04 119.889 29.04ZM122.337 30V27.36V23.856V17.84H123.713V30H122.337ZM132.654 30.24C131.843 30.24 131.139 30.048 130.542 29.664C129.955 29.28 129.502 28.7413 129.182 28.048C128.862 27.3547 128.702 26.5387 128.702 25.6C128.702 24.6613 128.862 23.8453 129.182 23.152C129.502 22.4587 129.955 21.92 130.542 21.536C131.139 21.152 131.843 20.96 132.654 20.96C133.475 20.96 134.179 21.152 134.766 21.536C135.353 21.92 135.806 22.4587 136.126 23.152C136.446 23.8453 136.606 24.6613 136.606 25.6C136.606 26.5387 136.446 27.3547 136.126 28.048C135.806 28.7413 135.353 29.28 134.766 29.664C134.179 30.048 133.475 30.24 132.654 30.24ZM132.654 29.04C133.507 29.04 134.142 28.7307 134.558 28.112C134.985 27.4933 135.198 26.656 135.198 25.6C135.198 24.544 134.985 23.7067 134.558 23.088C134.142 22.4693 133.507 22.16 132.654 22.16C131.801 22.16 131.161 22.4693 130.734 23.088C130.318 23.7067 130.11 24.544 130.11 25.6C130.11 26.656 130.334 27.4933 130.782 28.112C131.23 28.7307 131.854 29.04 132.654 29.04ZM144.244 30V24.816C144.244 23.056 143.534 22.176 142.116 22.176C141.348 22.176 140.745 22.432 140.308 22.944C139.881 23.456 139.668 24.2133 139.668 25.216L139.524 23.472C139.566 22.672 139.86 22.0587 140.404 21.632C140.948 21.1947 141.636 20.976 142.468 20.976C143.577 20.976 144.377 21.296 144.868 21.936C145.369 22.576 145.62 23.456 145.62 24.576V30H144.244ZM138.292 30V21.2H139.668V30H138.292ZM154.034 30C153.501 30 153.079 29.936 152.77 29.808C152.471 29.68 152.258 29.4667 152.13 29.168C152.002 28.8693 151.938 28.4587 151.938 27.936V18.88H153.298V27.952C153.298 28.2827 153.367 28.5067 153.506 28.624C153.645 28.7413 153.869 28.8 154.178 28.8H155.458V30H154.034ZM150.338 22.4V21.2H155.458V22.4H150.338ZM163.119 30V24.816C163.119 23.056 162.409 22.176 160.991 22.176C160.223 22.176 159.62 22.432 159.183 22.944C158.756 23.456 158.543 24.2133 158.543 25.216L158.399 23.472C158.441 22.672 158.735 22.0587 159.279 21.632C159.823 21.1947 160.511 20.976 161.343 20.976C162.452 20.976 163.252 21.296 163.743 21.936C164.244 22.576 164.495 23.456 164.495 24.576V30H163.119ZM157.167 30V17.84H158.543V30H157.167ZM170.06 30.24C169.207 30.24 168.482 30.0427 167.884 29.648C167.298 29.2533 166.855 28.6987 166.556 27.984C166.258 27.2693 166.108 26.4373 166.108 25.488C166.108 24.5707 166.268 23.776 166.588 23.104C166.919 22.4213 167.372 21.8933 167.948 21.52C168.535 21.1467 169.218 20.96 169.996 20.96C170.743 20.96 171.388 21.1253 171.932 21.456C172.476 21.776 172.898 22.2613 173.196 22.912C173.495 23.552 173.644 24.352 173.644 25.312V25.856H167.004V24.768H172.508L172.22 24.88C172.231 24.8267 172.236 24.768 172.236 24.704C172.236 24.64 172.236 24.5813 172.236 24.528C172.236 23.8027 172.05 23.2267 171.676 22.8C171.303 22.3627 170.732 22.144 169.964 22.144C169.207 22.144 168.604 22.3893 168.156 22.88C167.719 23.3707 167.5 24.2133 167.5 25.408C167.5 26.6667 167.692 27.5893 168.076 28.176C168.471 28.7627 169.127 29.056 170.044 29.056C170.588 29.056 171.074 28.9173 171.5 28.64C171.927 28.3627 172.21 27.8987 172.348 27.248L173.564 27.552C173.383 28.2987 173.1 28.864 172.716 29.248C172.332 29.632 171.906 29.8933 171.436 30.032C170.978 30.1707 170.519 30.24 170.06 30.24ZM54.384 59L59.88 42.2H63.792L69.144 59H66.096L61.704 44.264H61.968L57.456 59H54.384ZM57.528 54.176V51.752H65.64V54.176H57.528ZM77.8654 59.36C77.1134 59.36 76.4254 59.192 75.8014 58.856C75.1774 58.52 74.6654 58.04 74.2654 57.416C73.8814 56.792 73.6574 56.04 73.5934 55.16L72.3454 52.304L73.5934 49.472C73.6574 48.592 73.8814 47.84 74.2654 47.216C74.6654 46.592 75.1774 46.12 75.8014 45.8C76.4254 45.464 77.1134 45.296 77.8654 45.296C78.8734 45.296 79.7934 45.552 80.6254 46.064C81.4734 46.576 82.1454 47.352 82.6414 48.392C83.1374 49.416 83.3854 50.72 83.3854 52.304C83.3854 53.872 83.1374 55.184 82.6414 56.24C82.1454 57.28 81.4814 58.064 80.6494 58.592C79.8174 59.104 78.8894 59.36 77.8654 59.36ZM71.1214 64.16V45.632H73.9294V49.664V54.968V64.16H71.1214ZM77.1454 56.888C78.2494 56.888 79.0894 56.488 79.6654 55.688C80.2574 54.872 80.5534 53.744 80.5534 52.304C80.5534 50.88 80.2574 49.768 79.6654 48.968C79.0894 48.152 78.2494 47.744 77.1454 47.744C76.4254 47.744 75.8254 47.944 75.3454 48.344C74.8814 48.744 74.5294 49.288 74.2894 49.976C74.0654 50.648 73.9534 51.424 73.9534 52.304C73.9534 53.184 74.0654 53.968 74.2894 54.656C74.5294 55.344 74.8814 55.888 75.3454 56.288C75.8254 56.688 76.4254 56.888 77.1454 56.888ZM92.2326 59.36C91.4806 59.36 90.7926 59.192 90.1686 58.856C89.5446 58.52 89.0326 58.04 88.6326 57.416C88.2486 56.792 88.0246 56.04 87.9606 55.16L86.7126 52.304L87.9606 49.472C88.0246 48.592 88.2486 47.84 88.6326 47.216C89.0326 46.592 89.5446 46.12 90.1686 45.8C90.7926 45.464 91.4806 45.296 92.2326 45.296C93.2406 45.296 94.1606 45.552 94.9926 46.064C95.8406 46.576 96.5126 47.352 97.0086 48.392C97.5046 49.416 97.7526 50.72 97.7526 52.304C97.7526 53.872 97.5046 55.184 97.0086 56.24C96.5126 57.28 95.8486 58.064 95.0166 58.592C94.1846 59.104 93.2566 59.36 92.2326 59.36ZM85.4886 64.16V45.632H88.2966V49.664V54.968V64.16H85.4886ZM91.5126 56.888C92.6166 56.888 93.4566 56.488 94.0326 55.688C94.6246 54.872 94.9206 53.744 94.9206 52.304C94.9206 50.88 94.6246 49.768 94.0326 48.968C93.4566 48.152 92.6166 47.744 91.5126 47.744C90.7926 47.744 90.1926 47.944 89.7126 48.344C89.2486 48.744 88.8966 49.288 88.6566 49.976C88.4326 50.648 88.3206 51.424 88.3206 52.304C88.3206 53.184 88.4326 53.968 88.6566 54.656C88.8966 55.344 89.2486 55.888 89.7126 56.288C90.1926 56.688 90.7926 56.888 91.5126 56.888ZM110.654 59.36C109.486 59.36 108.438 59.184 107.51 58.832C106.598 58.464 105.854 57.904 105.278 57.152C104.702 56.384 104.35 55.424 104.222 54.272L107.198 53.672C107.246 54.328 107.374 54.872 107.582 55.304C107.79 55.72 108.054 56.056 108.374 56.312C108.694 56.552 109.038 56.728 109.406 56.84C109.79 56.936 110.182 56.984 110.582 56.984C111.014 56.984 111.43 56.904 111.83 56.744C112.23 56.584 112.566 56.336 112.838 56C113.11 55.648 113.246 55.2 113.246 54.656C113.246 53.84 112.934 53.2 112.31 52.736C111.686 52.272 110.694 51.896 109.334 51.608C108.246 51.352 107.366 50.984 106.694 50.504C106.022 50.024 105.526 49.456 105.206 48.8C104.902 48.144 104.75 47.424 104.75 46.64C104.75 45.68 104.974 44.84 105.422 44.12C105.886 43.4 106.534 42.84 107.366 42.44C108.198 42.04 109.166 41.84 110.27 41.84C110.926 41.84 111.566 41.912 112.19 42.056C112.83 42.2 113.414 42.448 113.942 42.8C114.47 43.136 114.918 43.592 115.286 44.168C115.654 44.728 115.894 45.432 116.006 46.28L113.102 47C113.038 46.312 112.87 45.768 112.598 45.368C112.326 44.952 111.982 44.656 111.566 44.48C111.166 44.304 110.718 44.216 110.222 44.216C109.774 44.216 109.358 44.296 108.974 44.456C108.606 44.6 108.31 44.824 108.086 45.128C107.862 45.432 107.75 45.8 107.75 46.232C107.75 46.632 107.822 47 107.966 47.336C108.126 47.672 108.43 47.976 108.878 48.248C109.326 48.504 109.974 48.736 110.822 48.944C112.054 49.232 113.062 49.616 113.846 50.096C114.646 50.56 115.23 51.128 115.598 51.8C115.966 52.472 116.15 53.256 116.15 54.152C116.166 55.032 116.022 55.8 115.718 56.456C115.414 57.112 115.006 57.656 114.494 58.088C113.982 58.52 113.39 58.84 112.718 59.048C112.062 59.256 111.374 59.36 110.654 59.36ZM123.266 59C122.354 59 121.634 58.888 121.106 58.664C120.594 58.44 120.234 58.072 120.026 57.56C119.818 57.048 119.714 56.368 119.714 55.52V42.176H122.522V55.328C122.522 55.792 122.618 56.12 122.81 56.312C123.002 56.504 123.314 56.6 123.746 56.6H125.57V59H123.266ZM117.482 48.056V45.656H125.57V48.056H117.482ZM132.983 59.36C131.703 59.36 130.599 59.064 129.671 58.472C128.759 57.864 128.055 57.032 127.559 55.976C127.079 54.92 126.839 53.696 126.839 52.304C126.839 50.896 127.087 49.672 127.583 48.632C128.079 47.576 128.783 46.76 129.695 46.184C130.607 45.592 131.703 45.296 132.983 45.296C134.279 45.296 135.375 45.592 136.271 46.184C137.183 46.76 137.879 47.576 138.359 48.632C138.839 49.672 139.079 50.896 139.079 52.304C139.079 53.696 138.839 54.928 138.359 56C137.879 57.056 137.183 57.88 136.271 58.472C135.375 59.064 134.279 59.36 132.983 59.36ZM132.983 56.96C134.071 56.96 134.879 56.56 135.407 55.76C135.951 54.944 136.223 53.792 136.223 52.304C136.223 50.816 135.951 49.68 135.407 48.896C134.863 48.096 134.055 47.696 132.983 47.696C131.895 47.696 131.071 48.096 130.511 48.896C129.967 49.696 129.695 50.832 129.695 52.304C129.695 53.808 129.983 54.96 130.559 55.76C131.151 56.56 131.959 56.96 132.983 56.96ZM141.176 59V45.656H143.984V59H141.176ZM143.984 51.872L143.84 48.656C143.952 47.6 144.264 46.824 144.776 46.328C145.288 45.832 146.048 45.584 147.056 45.584H148.232V48.296H146.864C145.808 48.296 145.064 48.568 144.632 49.112C144.2 49.64 143.984 50.56 143.984 51.872ZM155.13 59.336C153.85 59.336 152.754 59.04 151.842 58.448C150.946 57.856 150.258 57.024 149.778 55.952C149.298 54.864 149.058 53.6 149.058 52.16C149.058 50.752 149.306 49.536 149.802 48.512C150.298 47.488 151.002 46.696 151.914 46.136C152.826 45.576 153.874 45.296 155.058 45.296C156.162 45.296 157.138 45.536 157.986 46.016C158.834 46.496 159.498 47.232 159.978 48.224C160.458 49.2 160.698 50.44 160.698 51.944V52.904H150.714V50.912H158.25L157.698 51.224C157.714 51.128 157.722 51.024 157.722 50.912C157.722 50.8 157.722 50.696 157.722 50.6C157.722 49.72 157.498 49.008 157.05 48.464C156.602 47.904 155.906 47.624 154.962 47.624C154.034 47.624 153.29 47.952 152.73 48.608C152.186 49.264 151.914 50.4 151.914 52.016C151.914 53.744 152.154 55.008 152.634 55.808C153.13 56.608 153.962 57.008 155.13 57.008C155.834 57.008 156.45 56.832 156.978 56.48C157.506 56.112 157.866 55.48 158.058 54.584L160.578 55.28C160.306 56.4 159.874 57.256 159.282 57.848C158.69 58.424 158.026 58.816 157.29 59.024C156.554 59.232 155.834 59.336 155.13 59.336Z" fill="white"/>
</svg>
