<svg width="198" height="81" viewBox="0 0 198 81" fill="none" xmlns="http://www.w3.org/2000/svg">
<rect width="198" height="81" rx="4" fill="#C4DE00"/>
<path d="M18.6097 30.3135L28.793 40.4995L18.6108 50.6859C18.4178 50.6043 18.2487 50.4615 18.1355 50.2662C18.0474 50.1139 18.001 49.9411 18.001 49.7651V31.234C18.001 30.8206 18.2519 30.4658 18.6097 30.3135ZM29.5 41.2065L31.802 43.5085L20.865 49.8415L29.5 41.2065ZM32.699 38.0085L35.5061 39.6342C35.9841 39.9109 36.1473 40.5227 35.8705 41.0006C35.783 41.1518 35.6574 41.2775 35.5061 41.365L32.698 42.9905L30.207 40.4995L32.699 38.0085ZM20.865 31.1575L31.803 37.4895L29.5 39.7925L20.865 31.1575Z" fill="#1F1F1F"/>
<path d="M49.264 30.192C48.272 30.192 47.4507 29.952 46.8 29.472C46.1493 28.992 45.664 28.3147 45.344 27.44C45.0347 26.5653 44.88 25.5467 44.88 24.384C44.88 23.2213 45.04 22.2027 45.36 21.328C45.6907 20.4533 46.1813 19.776 46.832 19.296C47.4827 18.816 48.2933 18.576 49.264 18.576C49.8933 18.576 50.4747 18.6827 51.008 18.896C51.5413 19.0987 51.9947 19.4453 52.368 19.936C52.752 20.416 53.0133 21.0827 53.152 21.936L51.744 22.192C51.6587 21.3813 51.3973 20.7787 50.96 20.384C50.5333 19.9787 49.968 19.776 49.264 19.776C48.2293 19.776 47.4773 20.1707 47.008 20.96C46.5493 21.7387 46.32 22.88 46.32 24.384C46.32 25.8773 46.5493 27.0187 47.008 27.808C47.4773 28.5973 48.2187 28.992 49.232 28.992C49.9147 28.992 50.4427 28.8267 50.816 28.496C51.2 28.1653 51.4773 27.696 51.648 27.088C51.8187 26.4693 51.904 25.744 51.904 24.912H48.688V23.712H53.344C53.344 23.8507 53.344 23.9947 53.344 24.144C53.344 24.2827 53.344 24.4267 53.344 24.576C53.344 25.376 53.28 26.1173 53.152 26.8C53.0347 27.4827 52.8267 28.08 52.528 28.592C52.2293 29.0933 51.8133 29.488 51.28 29.776C50.7573 30.0533 50.0853 30.192 49.264 30.192ZM55.2499 30V18.8H61.6019V20H56.6899V28.8H62.0499V30H55.2499ZM55.3139 24.464V23.264H61.1219V24.464H55.3139ZM66.2626 30V18.88H67.7026V30H66.2626ZM62.9506 20V18.8H71.0466V20H62.9506ZM76.203 30V18.8H77.643V30H76.203ZM82.622 30V18.88H84.062V30H82.622ZM79.31 20V18.8H87.406V20H79.31ZM96.4984 30.192C95.581 30.192 94.797 29.9627 94.1464 29.504C93.4957 29.0453 92.9944 28.384 92.6424 27.52C92.2904 26.656 92.1144 25.6107 92.1144 24.384C92.1144 23.1573 92.2904 22.112 92.6424 21.248C92.9944 20.384 93.4957 19.7227 94.1464 19.264C94.797 18.8053 95.581 18.576 96.4984 18.576C97.4264 18.576 98.1997 18.8053 98.8184 19.264C99.4477 19.7227 99.9224 20.384 100.242 21.248C100.562 22.112 100.722 23.1573 100.722 24.384C100.722 25.6107 100.562 26.656 100.242 27.52C99.9224 28.384 99.4477 29.0453 98.8184 29.504C98.1997 29.9627 97.4264 30.192 96.4984 30.192ZM96.4984 28.992C97.437 28.992 98.1304 28.6027 98.5784 27.824C99.037 27.0453 99.2664 25.8987 99.2664 24.384C99.2664 22.8587 99.037 21.712 98.5784 20.944C98.1304 20.1653 97.437 19.776 96.4984 19.776C95.517 19.776 94.781 20.1653 94.2904 20.944C93.8104 21.712 93.5704 22.8587 93.5704 24.384C93.5704 25.8987 93.8104 27.0453 94.2904 27.824C94.781 28.6027 95.517 28.992 96.4984 28.992ZM102.937 30V18.8H104.793L109.961 28.368L109.753 28.736V18.8H111.177V30H109.305L104.153 20.464L104.345 20.24V30H102.937ZM51.992 59.288C50.376 59.288 49.048 58.92 48.008 58.184C46.968 57.432 46.2 56.408 45.704 55.112C45.224 53.8 44.984 52.288 44.984 50.576C44.984 48.864 45.24 47.36 45.752 46.064C46.28 44.752 47.064 43.728 48.104 42.992C49.16 42.24 50.456 41.864 51.992 41.864C52.904 41.864 53.784 42.024 54.632 42.344C55.48 42.664 56.216 43.176 56.84 43.88C57.464 44.584 57.896 45.496 58.136 46.616L55.304 47.264C55.128 46.224 54.736 45.464 54.128 44.984C53.536 44.504 52.824 44.264 51.992 44.264C50.536 44.264 49.504 44.784 48.896 45.824C48.288 46.864 47.984 48.448 47.984 50.576C47.984 52.688 48.288 54.264 48.896 55.304C49.52 56.344 50.528 56.864 51.92 56.864C52.768 56.864 53.448 56.664 53.96 56.264C54.488 55.864 54.864 55.28 55.088 54.512C55.328 53.728 55.448 52.752 55.448 51.584H51.104V49.16H58.496C58.496 49.416 58.496 49.664 58.496 49.904C58.496 50.144 58.496 50.384 58.496 50.624C58.496 51.872 58.392 53.024 58.184 54.08C57.976 55.136 57.624 56.056 57.128 56.84C56.648 57.624 55.984 58.232 55.136 58.664C54.304 59.08 53.256 59.288 51.992 59.288ZM66.3813 59.36C65.1013 59.36 63.9973 59.064 63.0693 58.472C62.1573 57.864 61.4533 57.032 60.9573 55.976C60.4773 54.92 60.2373 53.696 60.2373 52.304C60.2373 50.896 60.4853 49.672 60.9813 48.632C61.4773 47.576 62.1813 46.76 63.0933 46.184C64.0053 45.592 65.1013 45.296 66.3813 45.296C67.6773 45.296 68.7733 45.592 69.6693 46.184C70.5813 46.76 71.2773 47.576 71.7573 48.632C72.2373 49.672 72.4773 50.896 72.4773 52.304C72.4773 53.696 72.2373 54.928 71.7573 56C71.2773 57.056 70.5813 57.88 69.6693 58.472C68.7733 59.064 67.6773 59.36 66.3813 59.36ZM66.3813 56.96C67.4693 56.96 68.2773 56.56 68.8053 55.76C69.3493 54.944 69.6213 53.792 69.6213 52.304C69.6213 50.816 69.3493 49.68 68.8053 48.896C68.2613 48.096 67.4533 47.696 66.3813 47.696C65.2933 47.696 64.4693 48.096 63.9093 48.896C63.3653 49.696 63.0933 50.832 63.0933 52.304C63.0933 53.808 63.3813 54.96 63.9573 55.76C64.5493 56.56 65.3573 56.96 66.3813 56.96ZM80.2798 59.36C78.9998 59.36 77.8958 59.064 76.9678 58.472C76.0558 57.864 75.3518 57.032 74.8558 55.976C74.3758 54.92 74.1357 53.696 74.1357 52.304C74.1357 50.896 74.3838 49.672 74.8798 48.632C75.3758 47.576 76.0798 46.76 76.9918 46.184C77.9038 45.592 78.9998 45.296 80.2798 45.296C81.5758 45.296 82.6718 45.592 83.5678 46.184C84.4798 46.76 85.1758 47.576 85.6558 48.632C86.1358 49.672 86.3758 50.896 86.3758 52.304C86.3758 53.696 86.1358 54.928 85.6558 56C85.1758 57.056 84.4798 57.88 83.5678 58.472C82.6718 59.064 81.5758 59.36 80.2798 59.36ZM80.2798 56.96C81.3678 56.96 82.1758 56.56 82.7038 55.76C83.2478 54.944 83.5198 53.792 83.5198 52.304C83.5198 50.816 83.2478 49.68 82.7038 48.896C82.1598 48.096 81.3518 47.696 80.2798 47.696C79.1918 47.696 78.3678 48.096 77.8078 48.896C77.2638 49.696 76.9918 50.832 76.9918 52.304C76.9918 53.808 77.2798 54.96 77.8558 55.76C78.4478 56.56 79.2558 56.96 80.2798 56.96ZM90.1663 64.16V61.76H95.5423C96.1983 61.76 96.6943 61.584 97.0303 61.232C97.3823 60.88 97.5583 60.312 97.5583 59.528V45.632H100.366V59.456C100.366 60.464 100.23 61.312 99.9583 62C99.7023 62.704 99.2383 63.24 98.5663 63.608C97.8943 63.976 96.9503 64.16 95.7343 64.16H90.1663ZM93.6223 59.36C92.6143 59.36 91.6943 59.104 90.8623 58.592C90.0303 58.064 89.3663 57.28 88.8703 56.24C88.3743 55.184 88.1263 53.872 88.1263 52.304C88.1263 50.72 88.3743 49.416 88.8703 48.392C89.3663 47.352 90.0303 46.576 90.8623 46.064C91.6943 45.552 92.6143 45.296 93.6223 45.296C94.3743 45.296 95.0623 45.464 95.6863 45.8C96.3263 46.12 96.8383 46.592 97.2223 47.216C97.6223 47.84 97.8463 48.592 97.8943 49.472L99.1423 52.304L97.8943 55.16C97.8463 56.024 97.6223 56.776 97.2223 57.416C96.8383 58.04 96.3263 58.52 95.6863 58.856C95.0623 59.192 94.3743 59.36 93.6223 59.36ZM94.3663 56.888C95.1023 56.888 95.7023 56.688 96.1663 56.288C96.6303 55.888 96.9743 55.344 97.1983 54.656C97.4223 53.968 97.5343 53.184 97.5343 52.304C97.5343 51.424 97.4143 50.648 97.1743 49.976C96.9503 49.288 96.6063 48.744 96.1423 48.344C95.6783 47.944 95.0863 47.744 94.3663 47.744C93.2623 47.744 92.4143 48.152 91.8223 48.968C91.2303 49.768 90.9342 50.88 90.9342 52.304C90.9342 53.744 91.2303 54.872 91.8223 55.688C92.4143 56.488 93.2623 56.888 94.3663 56.888ZM106.336 59C105.312 59 104.528 58.728 103.984 58.184C103.44 57.64 103.168 56.864 103.168 55.856V40.76H106V55.64C106 56.36 106.36 56.72 107.08 56.72H108.112V59H106.336ZM114.989 59.336C113.709 59.336 112.613 59.04 111.701 58.448C110.805 57.856 110.117 57.024 109.637 55.952C109.157 54.864 108.917 53.6 108.917 52.16C108.917 50.752 109.165 49.536 109.661 48.512C110.157 47.488 110.861 46.696 111.773 46.136C112.685 45.576 113.733 45.296 114.917 45.296C116.021 45.296 116.997 45.536 117.845 46.016C118.693 46.496 119.357 47.232 119.837 48.224C120.317 49.2 120.557 50.44 120.557 51.944V52.904H110.573V50.912H118.109L117.557 51.224C117.573 51.128 117.581 51.024 117.581 50.912C117.581 50.8 117.581 50.696 117.581 50.6C117.581 49.72 117.357 49.008 116.909 48.464C116.461 47.904 115.765 47.624 114.821 47.624C113.893 47.624 113.149 47.952 112.589 48.608C112.045 49.264 111.773 50.4 111.773 52.016C111.773 53.744 112.013 55.008 112.493 55.808C112.989 56.608 113.821 57.008 114.989 57.008C115.693 57.008 116.309 56.832 116.837 56.48C117.365 56.112 117.725 55.48 117.917 54.584L120.437 55.28C120.165 56.4 119.733 57.256 119.141 57.848C118.549 58.424 117.885 58.816 117.149 59.024C116.413 59.232 115.693 59.336 114.989 59.336ZM127.923 59V42.2H133.803C135.739 42.2 137.219 42.688 138.243 43.664C139.283 44.624 139.803 45.992 139.803 47.768C139.803 49.512 139.283 50.88 138.243 51.872C137.203 52.864 135.723 53.36 133.803 53.36H130.923V59H127.923ZM130.923 50.912H133.635C134.675 50.912 135.459 50.664 135.987 50.168C136.531 49.672 136.803 48.896 136.803 47.84C136.803 46.672 136.531 45.84 135.987 45.344C135.459 44.848 134.675 44.6 133.635 44.6H130.923V50.912ZM144.985 59C143.961 59 143.177 58.728 142.633 58.184C142.089 57.64 141.817 56.864 141.817 55.856V40.76H144.649V55.64C144.649 56.36 145.009 56.72 145.729 56.72H146.761V59H144.985ZM155.835 59V49.88C155.835 49.112 155.611 48.552 155.163 48.2C154.715 47.848 154.155 47.672 153.483 47.672C152.715 47.672 152.035 47.864 151.443 48.248C150.851 48.632 150.411 49.104 150.123 49.664L148.203 47.936C148.811 47.024 149.595 46.36 150.555 45.944C151.531 45.512 152.563 45.296 153.651 45.296C154.691 45.296 155.579 45.456 156.315 45.776C157.067 46.096 157.643 46.6 158.043 47.288C158.459 47.976 158.667 48.88 158.667 50V59H155.835ZM152.067 59.264C150.771 59.264 149.771 58.912 149.067 58.208C148.363 57.488 148.011 56.56 148.011 55.424C148.011 54.208 148.411 53.248 149.211 52.544C150.027 51.824 151.251 51.328 152.883 51.056L156.147 50.48V52.592L153.171 53.12C152.387 53.28 151.803 53.528 151.419 53.864C151.051 54.2 150.867 54.648 150.867 55.208C150.867 55.848 151.059 56.312 151.443 56.6C151.843 56.888 152.323 57.032 152.883 57.032C153.811 57.032 154.531 56.704 155.043 56.048C155.571 55.376 155.835 54.424 155.835 53.192L156.003 55.256C156.019 56.504 155.683 57.488 154.995 58.208C154.323 58.912 153.347 59.264 152.067 59.264ZM160.393 64.16V61.76H162.553C163.081 61.76 163.489 61.64 163.777 61.4C164.065 61.176 164.289 60.808 164.449 60.296L169.273 45.656H172.249L166.729 61.472C166.489 62.144 166.209 62.672 165.889 63.056C165.569 63.456 165.153 63.736 164.641 63.896C164.129 64.072 163.465 64.16 162.649 64.16H160.393ZM165.025 59.648L159.913 45.656H162.889L166.969 57.536L166.873 59.648H165.025Z" fill="#303030"/>
</svg>
