<svg width="208" height="81" viewBox="0 0 208 81" fill="none" xmlns="http://www.w3.org/2000/svg">
<rect width="208" height="81" rx="4" fill="#9BED68"/>
<path d="M18.6097 30.314L28.793 40.5L18.6108 50.6864C18.4178 50.6048 18.2487 50.462 18.1355 50.2667C18.0474 50.1144 18.001 49.9416 18.001 49.7656V31.2345C18.001 30.8211 18.2519 30.4663 18.6097 30.314ZM29.5 41.207L31.802 43.509L20.865 49.842L29.5 41.207ZM32.699 38.009L35.5061 39.6347C35.9841 39.9114 36.1473 40.5232 35.8705 41.0011C35.783 41.1523 35.6574 41.278 35.5061 41.3655L32.698 42.991L30.207 40.5L32.699 38.009ZM20.865 31.158L31.803 37.49L29.5 39.793L20.865 31.158Z" fill="#1F1F1F"/>
<path d="M59.264 30.192C58.272 30.192 57.4507 29.952 56.8 29.472C56.1493 28.992 55.664 28.3147 55.344 27.44C55.0347 26.5653 54.88 25.5467 54.88 24.384C54.88 23.2213 55.04 22.2027 55.36 21.328C55.6907 20.4533 56.1813 19.776 56.832 19.296C57.4827 18.816 58.2933 18.576 59.264 18.576C59.8933 18.576 60.4747 18.6827 61.008 18.896C61.5413 19.0987 61.9947 19.4453 62.368 19.936C62.752 20.416 63.0133 21.0827 63.152 21.936L61.744 22.192C61.6587 21.3813 61.3973 20.7787 60.96 20.384C60.5333 19.9787 59.968 19.776 59.264 19.776C58.2293 19.776 57.4773 20.1707 57.008 20.96C56.5493 21.7387 56.32 22.88 56.32 24.384C56.32 25.8773 56.5493 27.0187 57.008 27.808C57.4773 28.5973 58.2187 28.992 59.232 28.992C59.9147 28.992 60.4427 28.8267 60.816 28.496C61.2 28.1653 61.4773 27.696 61.648 27.088C61.8187 26.4693 61.904 25.744 61.904 24.912H58.688V23.712H63.344C63.344 23.8507 63.344 23.9947 63.344 24.144C63.344 24.2827 63.344 24.4267 63.344 24.576C63.344 25.376 63.28 26.1173 63.152 26.8C63.0347 27.4827 62.8267 28.08 62.528 28.592C62.2293 29.0933 61.8133 29.488 61.28 29.776C60.7573 30.0533 60.0853 30.192 59.264 30.192ZM65.2499 30V18.8H71.6019V20H66.6899V28.8H72.0499V30H65.2499ZM65.3139 24.464V23.264H71.1219V24.464H65.3139ZM76.2626 30V18.88H77.7026V30H76.2626ZM72.9506 20V18.8H81.0466V20H72.9506ZM86.203 30V18.8H87.643V30H86.203ZM92.622 30V18.88H94.062V30H92.622ZM89.31 20V18.8H97.406V20H89.31ZM106.498 30.192C105.581 30.192 104.797 29.9627 104.146 29.504C103.496 29.0453 102.994 28.384 102.642 27.52C102.29 26.656 102.114 25.6107 102.114 24.384C102.114 23.1573 102.29 22.112 102.642 21.248C102.994 20.384 103.496 19.7227 104.146 19.264C104.797 18.8053 105.581 18.576 106.498 18.576C107.426 18.576 108.2 18.8053 108.818 19.264C109.448 19.7227 109.922 20.384 110.242 21.248C110.562 22.112 110.722 23.1573 110.722 24.384C110.722 25.6107 110.562 26.656 110.242 27.52C109.922 28.384 109.448 29.0453 108.818 29.504C108.2 29.9627 107.426 30.192 106.498 30.192ZM106.498 28.992C107.437 28.992 108.13 28.6027 108.578 27.824C109.037 27.0453 109.266 25.8987 109.266 24.384C109.266 22.8587 109.037 21.712 108.578 20.944C108.13 20.1653 107.437 19.776 106.498 19.776C105.517 19.776 104.781 20.1653 104.29 20.944C103.81 21.712 103.57 22.8587 103.57 24.384C103.57 25.8987 103.81 27.0453 104.29 27.824C104.781 28.6027 105.517 28.992 106.498 28.992ZM112.937 30V18.8H114.793L119.961 28.368L119.753 28.736V18.8H121.177V30H119.305L114.153 20.464L114.345 20.24V30H112.937ZM61.992 59.288C60.376 59.288 59.048 58.92 58.008 58.184C56.968 57.432 56.2 56.408 55.704 55.112C55.224 53.8 54.984 52.288 54.984 50.576C54.984 48.864 55.24 47.36 55.752 46.064C56.28 44.752 57.064 43.728 58.104 42.992C59.16 42.24 60.456 41.864 61.992 41.864C62.904 41.864 63.784 42.024 64.632 42.344C65.48 42.664 66.216 43.176 66.84 43.88C67.464 44.584 67.896 45.496 68.136 46.616L65.304 47.264C65.128 46.224 64.736 45.464 64.128 44.984C63.536 44.504 62.824 44.264 61.992 44.264C60.536 44.264 59.504 44.784 58.896 45.824C58.288 46.864 57.984 48.448 57.984 50.576C57.984 52.688 58.288 54.264 58.896 55.304C59.52 56.344 60.528 56.864 61.92 56.864C62.768 56.864 63.448 56.664 63.96 56.264C64.488 55.864 64.864 55.28 65.088 54.512C65.328 53.728 65.448 52.752 65.448 51.584H61.104V49.16H68.496C68.496 49.416 68.496 49.664 68.496 49.904C68.496 50.144 68.496 50.384 68.496 50.624C68.496 51.872 68.392 53.024 68.184 54.08C67.976 55.136 67.624 56.056 67.128 56.84C66.648 57.624 65.984 58.232 65.136 58.664C64.304 59.08 63.256 59.288 61.992 59.288ZM76.3813 59.36C75.1013 59.36 73.9973 59.064 73.0693 58.472C72.1573 57.864 71.4533 57.032 70.9573 55.976C70.4773 54.92 70.2373 53.696 70.2373 52.304C70.2373 50.896 70.4853 49.672 70.9813 48.632C71.4773 47.576 72.1813 46.76 73.0933 46.184C74.0053 45.592 75.1013 45.296 76.3813 45.296C77.6773 45.296 78.7733 45.592 79.6693 46.184C80.5813 46.76 81.2773 47.576 81.7573 48.632C82.2373 49.672 82.4773 50.896 82.4773 52.304C82.4773 53.696 82.2373 54.928 81.7573 56C81.2773 57.056 80.5813 57.88 79.6693 58.472C78.7733 59.064 77.6773 59.36 76.3813 59.36ZM76.3813 56.96C77.4693 56.96 78.2773 56.56 78.8053 55.76C79.3493 54.944 79.6213 53.792 79.6213 52.304C79.6213 50.816 79.3493 49.68 78.8053 48.896C78.2613 48.096 77.4533 47.696 76.3813 47.696C75.2933 47.696 74.4693 48.096 73.9093 48.896C73.3653 49.696 73.0933 50.832 73.0933 52.304C73.0933 53.808 73.3813 54.96 73.9573 55.76C74.5493 56.56 75.3573 56.96 76.3813 56.96ZM90.2798 59.36C88.9998 59.36 87.8958 59.064 86.9678 58.472C86.0558 57.864 85.3518 57.032 84.8558 55.976C84.3758 54.92 84.1357 53.696 84.1357 52.304C84.1357 50.896 84.3838 49.672 84.8798 48.632C85.3758 47.576 86.0798 46.76 86.9918 46.184C87.9038 45.592 88.9998 45.296 90.2798 45.296C91.5758 45.296 92.6718 45.592 93.5678 46.184C94.4798 46.76 95.1758 47.576 95.6558 48.632C96.1358 49.672 96.3758 50.896 96.3758 52.304C96.3758 53.696 96.1358 54.928 95.6558 56C95.1758 57.056 94.4798 57.88 93.5678 58.472C92.6718 59.064 91.5758 59.36 90.2798 59.36ZM90.2798 56.96C91.3678 56.96 92.1758 56.56 92.7038 55.76C93.2478 54.944 93.5198 53.792 93.5198 52.304C93.5198 50.816 93.2478 49.68 92.7038 48.896C92.1598 48.096 91.3518 47.696 90.2798 47.696C89.1918 47.696 88.3678 48.096 87.8078 48.896C87.2638 49.696 86.9918 50.832 86.9918 52.304C86.9918 53.808 87.2798 54.96 87.8558 55.76C88.4478 56.56 89.2558 56.96 90.2798 56.96ZM100.166 64.16V61.76H105.542C106.198 61.76 106.694 61.584 107.03 61.232C107.382 60.88 107.558 60.312 107.558 59.528V45.632H110.366V59.456C110.366 60.464 110.23 61.312 109.958 62C109.702 62.704 109.238 63.24 108.566 63.608C107.894 63.976 106.95 64.16 105.734 64.16H100.166ZM103.622 59.36C102.614 59.36 101.694 59.104 100.862 58.592C100.03 58.064 99.3663 57.28 98.8703 56.24C98.3743 55.184 98.1263 53.872 98.1263 52.304C98.1263 50.72 98.3743 49.416 98.8703 48.392C99.3663 47.352 100.03 46.576 100.862 46.064C101.694 45.552 102.614 45.296 103.622 45.296C104.374 45.296 105.062 45.464 105.686 45.8C106.326 46.12 106.838 46.592 107.222 47.216C107.622 47.84 107.846 48.592 107.894 49.472L109.142 52.304L107.894 55.16C107.846 56.024 107.622 56.776 107.222 57.416C106.838 58.04 106.326 58.52 105.686 58.856C105.062 59.192 104.374 59.36 103.622 59.36ZM104.366 56.888C105.102 56.888 105.702 56.688 106.166 56.288C106.63 55.888 106.974 55.344 107.198 54.656C107.422 53.968 107.534 53.184 107.534 52.304C107.534 51.424 107.414 50.648 107.174 49.976C106.95 49.288 106.606 48.744 106.142 48.344C105.678 47.944 105.086 47.744 104.366 47.744C103.262 47.744 102.414 48.152 101.822 48.968C101.23 49.768 100.934 50.88 100.934 52.304C100.934 53.744 101.23 54.872 101.822 55.688C102.414 56.488 103.262 56.888 104.366 56.888ZM116.336 59C115.312 59 114.528 58.728 113.984 58.184C113.44 57.64 113.168 56.864 113.168 55.856V40.76H116V55.64C116 56.36 116.36 56.72 117.08 56.72H118.112V59H116.336ZM124.989 59.336C123.709 59.336 122.613 59.04 121.701 58.448C120.805 57.856 120.117 57.024 119.637 55.952C119.157 54.864 118.917 53.6 118.917 52.16C118.917 50.752 119.165 49.536 119.661 48.512C120.157 47.488 120.861 46.696 121.773 46.136C122.685 45.576 123.733 45.296 124.917 45.296C126.021 45.296 126.997 45.536 127.845 46.016C128.693 46.496 129.357 47.232 129.837 48.224C130.317 49.2 130.557 50.44 130.557 51.944V52.904H120.573V50.912H128.109L127.557 51.224C127.573 51.128 127.581 51.024 127.581 50.912C127.581 50.8 127.581 50.696 127.581 50.6C127.581 49.72 127.357 49.008 126.909 48.464C126.461 47.904 125.765 47.624 124.821 47.624C123.893 47.624 123.149 47.952 122.589 48.608C122.045 49.264 121.773 50.4 121.773 52.016C121.773 53.744 122.013 55.008 122.493 55.808C122.989 56.608 123.821 57.008 124.989 57.008C125.693 57.008 126.309 56.832 126.837 56.48C127.365 56.112 127.725 55.48 127.917 54.584L130.437 55.28C130.165 56.4 129.733 57.256 129.141 57.848C128.549 58.424 127.885 58.816 127.149 59.024C126.413 59.232 125.693 59.336 124.989 59.336ZM137.923 59V42.2H143.803C145.739 42.2 147.219 42.688 148.243 43.664C149.283 44.624 149.803 45.992 149.803 47.768C149.803 49.512 149.283 50.88 148.243 51.872C147.203 52.864 145.723 53.36 143.803 53.36H140.923V59H137.923ZM140.923 50.912H143.635C144.675 50.912 145.459 50.664 145.987 50.168C146.531 49.672 146.803 48.896 146.803 47.84C146.803 46.672 146.531 45.84 145.987 45.344C145.459 44.848 144.675 44.6 143.635 44.6H140.923V50.912ZM154.985 59C153.961 59 153.177 58.728 152.633 58.184C152.089 57.64 151.817 56.864 151.817 55.856V40.76H154.649V55.64C154.649 56.36 155.009 56.72 155.729 56.72H156.761V59H154.985ZM165.835 59V49.88C165.835 49.112 165.611 48.552 165.163 48.2C164.715 47.848 164.155 47.672 163.483 47.672C162.715 47.672 162.035 47.864 161.443 48.248C160.851 48.632 160.411 49.104 160.123 49.664L158.203 47.936C158.811 47.024 159.595 46.36 160.555 45.944C161.531 45.512 162.563 45.296 163.651 45.296C164.691 45.296 165.579 45.456 166.315 45.776C167.067 46.096 167.643 46.6 168.043 47.288C168.459 47.976 168.667 48.88 168.667 50V59H165.835ZM162.067 59.264C160.771 59.264 159.771 58.912 159.067 58.208C158.363 57.488 158.011 56.56 158.011 55.424C158.011 54.208 158.411 53.248 159.211 52.544C160.027 51.824 161.251 51.328 162.883 51.056L166.147 50.48V52.592L163.171 53.12C162.387 53.28 161.803 53.528 161.419 53.864C161.051 54.2 160.867 54.648 160.867 55.208C160.867 55.848 161.059 56.312 161.443 56.6C161.843 56.888 162.323 57.032 162.883 57.032C163.811 57.032 164.531 56.704 165.043 56.048C165.571 55.376 165.835 54.424 165.835 53.192L166.003 55.256C166.019 56.504 165.683 57.488 164.995 58.208C164.323 58.912 163.347 59.264 162.067 59.264ZM170.393 64.16V61.76H172.553C173.081 61.76 173.489 61.64 173.777 61.4C174.065 61.176 174.289 60.808 174.449 60.296L179.273 45.656H182.249L176.729 61.472C176.489 62.144 176.209 62.672 175.889 63.056C175.569 63.456 175.153 63.736 174.641 63.896C174.129 64.072 173.465 64.16 172.649 64.16H170.393ZM175.025 59.648L169.913 45.656H172.889L176.969 57.536L176.873 59.648H175.025Z" fill="#303030"/>
</svg>
