<svg width="127" height="50" viewBox="0 0 127 50" fill="none" xmlns="http://www.w3.org/2000/svg">
<path d="M44.0386 24.9974C43.6785 24.6852 43.3065 24.3851 42.9584 24.0549C39.496 20.7892 35.8475 17.7576 31.761 15.3144C27.8905 12.9971 23.996 10.71 19.7174 9.19717C18.8533 8.89101 17.9352 8.6809 17.0231 8.56084C15.1749 8.32071 13.6207 8.92703 12.4385 10.3978C10.9983 12.1927 10.3623 14.3238 10.0922 16.533C9.1141 24.4991 10.2122 32.1351 14.1847 39.1948C15.5109 41.548 17.3712 43.493 20.2875 43.6611C21.5297 43.7331 22.8739 43.457 24.044 43.0128C27.6325 41.644 30.4888 39.3448 32.103 35.761C33.1412 33.4618 32.7691 31.3907 30.8489 29.7339C29.5167 28.5813 27.9925 27.6268 26.4503 26.7623C24.8121 25.8438 23.0539 25.1535 21.3557 24.343C21.0256 24.181 20.7436 23.9108 20.4135 23.6707C20.9176 22.9803 21.5897 22.9803 22.2078 22.9143C26.6243 22.4701 30.9509 23.0284 35.2054 24.217C36.9516 24.7032 38.6259 25.3756 40.078 26.4922C42.1663 28.095 42.7904 29.932 42.1123 32.4893C41.4282 35.0706 40 37.2438 38.2778 39.2188C34.2633 43.8292 29.4207 47.257 23.5519 49.0699C19.1954 50.4146 14.8568 50.4866 10.7583 48.0734C8.01596 46.4585 6.0417 44.0933 4.51151 41.3559C2.1112 37.0577 0.887047 32.4052 0.310973 27.5427C-0.379115 21.7497 0.0709427 16.0647 1.74516 10.4758C2.45325 8.1106 3.46137 5.87744 4.99157 3.92643C7.79393 0.354572 11.7064 -0.792025 16.279 0.534665C19.3934 1.43513 22.1838 2.98394 24.7701 4.89293C30.7829 9.32324 36.4716 14.1257 41.1642 19.9908C42.1423 21.2154 42.9644 22.5661 43.8405 23.8688C44.0325 24.157 44.1226 24.5051 44.2546 24.8293C44.1826 24.8893 44.1106 24.9434 44.0386 24.9974Z" fill="#9BED68"/>
<path d="M54 34.7158V11H68.4214V14.8962H58.9087V30.7858H69.3693V34.7158H54ZM54.1354 23.8743V19.9443H67.4058V23.8743H54.1354Z" fill="white"/>
<path d="M71.2616 34.7158L77.4229 23.6372L77.2198 25.8732L71.2278 15.7432H76.5427L80.7067 23.7049H79.6234L83.4826 15.7432H88.7637L83.0764 25.8393L82.8733 23.8404L88.8653 34.7158H83.5503L79.3525 26.0426H80.9436L76.5766 34.7158H71.2616Z" fill="white"/>
<path d="M101.77 35.224C100.709 35.224 99.75 34.9982 98.8924 34.5464C98.0348 34.0721 97.3464 33.3945 96.8274 32.5137C96.3083 31.6328 96.0149 30.5712 95.9472 29.329L94.153 25.1956L95.9472 21.0962C96.0149 19.8539 96.3083 18.8036 96.8274 17.9454C97.3464 17.0645 98.0348 16.3982 98.8924 15.9464C99.75 15.4721 100.709 15.235 101.77 15.235C103.192 15.235 104.489 15.6076 105.663 16.353C106.837 17.0758 107.773 18.1712 108.473 19.6393C109.172 21.1075 109.522 22.9596 109.522 25.1956C109.522 27.4091 109.172 29.2612 108.473 30.7519C107.773 32.2426 106.837 33.3607 105.663 34.106C104.512 34.8514 103.214 35.224 101.77 35.224ZM91.8171 42V15.7432H96.3873V42H91.8171ZM100.517 31.2262C101.939 31.2262 103.022 30.6954 103.767 29.6339C104.535 28.5497 104.918 27.0703 104.918 25.1956C104.918 23.3435 104.546 21.8867 103.801 20.8251C103.056 19.741 101.962 19.1989 100.517 19.1989C99.592 19.1989 98.8247 19.4587 98.2153 19.9781C97.606 20.4976 97.1546 21.2091 96.8612 22.1126C96.5678 22.9934 96.4211 24.0211 96.4211 25.1956C96.4211 26.3475 96.5565 27.3865 96.8274 28.3126C97.1208 29.216 97.5721 29.9275 98.1815 30.447C98.7908 30.9665 99.5695 31.2262 100.517 31.2262Z" fill="white"/>
<path d="M122.396 34.7158V21.9093C122.396 20.9155 122.114 20.204 121.55 19.7749C120.985 19.3231 120.263 19.0973 119.383 19.0973C118.367 19.0973 117.442 19.357 116.607 19.8765C115.772 20.396 115.151 20.9945 114.745 21.6721L111.834 18.6907C112.782 17.4936 113.967 16.624 115.388 16.082C116.81 15.5173 118.243 15.235 119.688 15.235C121.268 15.235 122.599 15.4721 123.682 15.9464C124.766 16.4208 125.589 17.1661 126.154 18.1825C126.718 19.1763 127 20.475 127 22.0787V34.7158H122.396ZM117.284 35.0885C115.456 35.0885 114.046 34.5803 113.053 33.5639C112.059 32.5475 111.563 31.2149 111.563 29.5661C111.563 27.8495 112.127 26.4944 113.256 25.5005C114.407 24.4842 116.133 23.7614 118.435 23.3322L122.836 22.5191V25.8393L119.045 26.5847C118.074 26.788 117.352 27.1155 116.878 27.5672C116.427 27.9964 116.201 28.561 116.201 29.2612C116.201 30.0743 116.449 30.6616 116.946 31.0229C117.442 31.3617 118.04 31.5311 118.74 31.5311C119.891 31.5311 120.782 31.102 121.414 30.2437C122.069 29.3628 122.396 28.1206 122.396 26.5169L122.531 29.4645C122.599 31.2262 122.17 32.604 121.245 33.5978C120.342 34.5916 119.022 35.0885 117.284 35.0885Z" fill="white"/>
</svg>
