<svg width="127" height="50" viewBox="0 0 127 50" fill="none" xmlns="http://www.w3.org/2000/svg">
<path d="M44.0386 24.9974C43.6785 24.6852 43.3065 24.3851 42.9584 24.0549C39.496 20.7892 35.8475 17.7576 31.761 15.3144C27.8905 12.9971 23.996 10.71 19.7174 9.19717C18.8533 8.89101 17.9352 8.6809 17.0231 8.56084C15.1749 8.32071 13.6207 8.92703 12.4385 10.3978C10.9983 12.1927 10.3623 14.3238 10.0922 16.533C9.1141 24.4991 10.2122 32.1351 14.1847 39.1948C15.5109 41.548 17.3712 43.493 20.2875 43.6611C21.5297 43.7331 22.8739 43.457 24.044 43.0128C27.6325 41.644 30.4888 39.3448 32.103 35.761C33.1412 33.4618 32.7691 31.3907 30.8489 29.7339C29.5167 28.5813 27.9925 27.6268 26.4503 26.7623C24.8121 25.8438 23.0539 25.1535 21.3557 24.343C21.0256 24.181 20.7436 23.9108 20.4135 23.6707C20.9176 22.9803 21.5897 22.9803 22.2078 22.9143C26.6243 22.4701 30.9509 23.0284 35.2054 24.217C36.9516 24.7032 38.6259 25.3756 40.078 26.4922C42.1663 28.095 42.7904 29.932 42.1123 32.4893C41.4282 35.0706 40 37.2438 38.2778 39.2188C34.2633 43.8292 29.4207 47.257 23.5519 49.0699C19.1954 50.4146 14.8568 50.4866 10.7583 48.0734C8.01596 46.4585 6.0417 44.0933 4.51151 41.3559C2.1112 37.0577 0.887047 32.4052 0.310973 27.5427C-0.379115 21.7497 0.0709427 16.0647 1.74516 10.4758C2.45325 8.1106 3.46137 5.87744 4.99157 3.92643C7.79393 0.354572 11.7064 -0.792025 16.279 0.534665C19.3934 1.43513 22.1838 2.98394 24.7701 4.89293C30.7829 9.32324 36.4716 14.1257 41.1642 19.9908C42.1423 21.2154 42.9644 22.5661 43.8405 23.8688C44.0325 24.157 44.1226 24.5051 44.2546 24.8293C44.1826 24.8893 44.1106 24.9434 44.0386 24.9974Z" fill="#1F1F1F"/>
<path d="M54 33.7158V10H68.4214V13.8962H58.9087V29.7858H69.3693V33.7158H54ZM54.1354 22.8743V18.9443H67.4058V22.8743H54.1354Z" fill="#1F1F1F"/>
<path d="M71.2616 33.7158L77.4229 22.6372L77.2198 24.8732L71.2278 14.7432H76.5427L80.7067 22.7049H79.6234L83.4826 14.7432H88.7637L83.0764 24.8393L82.8733 22.8404L88.8653 33.7158H83.5503L79.3525 25.0426H80.9436L76.5766 33.7158H71.2616Z" fill="#1F1F1F"/>
<path d="M101.77 34.224C100.709 34.224 99.75 33.9982 98.8924 33.5464C98.0348 33.0721 97.3464 32.3945 96.8274 31.5137C96.3083 30.6328 96.0149 29.5712 95.9472 28.329L94.153 24.1956L95.9472 20.0962C96.0149 18.8539 96.3083 17.8036 96.8274 16.9454C97.3464 16.0645 98.0348 15.3982 98.8924 14.9464C99.75 14.4721 100.709 14.235 101.77 14.235C103.192 14.235 104.489 14.6076 105.663 15.353C106.837 16.0758 107.773 17.1712 108.473 18.6393C109.172 20.1075 109.522 21.9596 109.522 24.1956C109.522 26.4091 109.172 28.2612 108.473 29.7519C107.773 31.2426 106.837 32.3607 105.663 33.106C104.512 33.8514 103.214 34.224 101.77 34.224ZM91.8171 41V14.7432H96.3873V41H91.8171ZM100.517 30.2262C101.939 30.2262 103.022 29.6954 103.767 28.6339C104.535 27.5497 104.918 26.0703 104.918 24.1956C104.918 22.3435 104.546 20.8867 103.801 19.8251C103.056 18.741 101.962 18.1989 100.517 18.1989C99.592 18.1989 98.8247 18.4587 98.2153 18.9781C97.606 19.4976 97.1546 20.2091 96.8612 21.1126C96.5678 21.9934 96.4211 23.0211 96.4211 24.1956C96.4211 25.3475 96.5565 26.3865 96.8274 27.3126C97.1208 28.216 97.5721 28.9275 98.1815 29.447C98.7908 29.9665 99.5695 30.2262 100.517 30.2262Z" fill="#1F1F1F"/>
<path d="M122.396 33.7158V20.9093C122.396 19.9155 122.114 19.204 121.55 18.7749C120.985 18.3231 120.263 18.0973 119.383 18.0973C118.367 18.0973 117.442 18.357 116.607 18.8765C115.772 19.396 115.151 19.9945 114.745 20.6721L111.834 17.6907C112.782 16.4936 113.967 15.624 115.388 15.082C116.81 14.5173 118.243 14.235 119.688 14.235C121.268 14.235 122.599 14.4721 123.682 14.9464C124.766 15.4208 125.589 16.1661 126.154 17.1825C126.718 18.1763 127 19.475 127 21.0787V33.7158H122.396ZM117.284 34.0885C115.456 34.0885 114.046 33.5803 113.053 32.5639C112.059 31.5475 111.563 30.2149 111.563 28.5661C111.563 26.8495 112.127 25.4944 113.256 24.5005C114.407 23.4842 116.133 22.7614 118.435 22.3322L122.836 21.5191V24.8393L119.045 25.5847C118.074 25.788 117.352 26.1155 116.878 26.5672C116.427 26.9964 116.201 27.561 116.201 28.2612C116.201 29.0743 116.449 29.6616 116.946 30.0229C117.442 30.3617 118.04 30.5311 118.74 30.5311C119.891 30.5311 120.782 30.102 121.414 29.2437C122.069 28.3628 122.396 27.1206 122.396 25.5169L122.531 28.4645C122.599 30.2262 122.17 31.604 121.245 32.5978C120.342 33.5916 119.022 34.0885 117.284 34.0885Z" fill="#1F1F1F"/>
</svg>
