<svg width="160" height="70" viewBox="0 0 160 70" fill="none" xmlns="http://www.w3.org/2000/svg">
<rect width="160" height="70" rx="35" fill="#F7F7F7"/>
<g clip-path="url(#clip0_328_85)">
<path d="M65 35C65 51.5684 51.5684 65 35 65C18.4316 65 5 51.5684 5 35C5 35.007 35 5.0034 35 5C51.5684 5 65 18.4316 65 35Z" fill="#0052B4"/>
<path d="M34.9991 5C34.9977 5 34.9962 5.001 34.9949 5.001L34.9991 5Z" fill="#F0F0F0"/>
<path d="M34.9197 35.0002H35C35 34.973 35 34.947 35 34.9199C34.9732 34.9468 34.9465 34.9735 34.9197 35.0002Z" fill="#F0F0F0"/>
<path d="M35 20.6521C35 15.3734 35 11.9144 35 5H34.995C18.4288 5.0027 5 18.433 5 34.9999H20.6522V26.186L29.4661 34.9999H34.9198C34.9467 34.9732 34.9734 34.9464 35.0001 34.9196C35.0001 32.8985 35.0001 31.0951 35.0001 29.4662L26.1861 20.6521H35Z" fill="#F0F0F0"/>
<path d="M20.1776 8.91309C15.4855 11.5848 11.5848 15.4855 8.91309 20.1776V35.0001H16.7392V16.7393L35.0001 16.7392C35.0001 14.2709 35.0001 11.9194 35.0001 8.91309H20.1776Z" fill="#D80027"/>
<path d="M35.0001 31.3108L24.3415 20.6524H20.6523L35 35H35.0001C35.0001 35 35.0001 32.4565 35.0001 31.3108Z" fill="#D80027"/>
<path d="M23.0932 40.2173L24.7397 43.66L28.4577 42.8007L26.7927 46.2345L29.7826 48.6056L26.0599 49.4446L26.0704 53.2607L23.0932 50.8733L20.1162 53.2607L20.1266 49.4446L16.4038 48.6056L19.3938 46.2345L17.7286 42.8007L21.4469 43.66L23.0932 40.2173Z" fill="#F0F0F0"/>
<path d="M49.9162 46.7393L50.7394 48.4606L52.5985 48.0309L51.7659 49.7478L53.2609 50.9334L51.3995 51.3529L51.4047 53.261L49.9162 52.0672L48.4277 53.261L48.4328 51.3529L46.5715 50.9334L48.0665 49.7478L47.234 48.0309L49.0929 48.4606L49.9162 46.7393Z" fill="#F0F0F0"/>
<path d="M42.2579 28.4785L43.081 30.2L44.94 29.7702L44.1075 31.4871L45.6025 32.6727L43.7412 33.0922L43.7463 35.0002L42.2579 33.8064L40.7693 35.0002L40.7744 33.0922L38.9131 32.6727L40.408 31.4871L39.5755 29.7702L41.4346 30.2L42.2579 28.4785Z" fill="#F0F0F0"/>
<path d="M49.9162 18.0435L50.7394 19.7649L52.5985 19.3352L51.766 21.0521L53.2608 22.2376L51.3995 22.6572L51.4047 24.5653L49.9162 23.3715L48.4277 24.5653L48.4328 22.6572L46.5715 22.2376L48.0664 21.0521L47.234 19.3352L49.0929 19.7649L49.9162 18.0435Z" fill="#F0F0F0"/>
<path d="M56.6058 25.8696L57.4289 27.5911L59.2879 27.1613L58.4554 28.8782L59.9504 30.0638L58.089 30.4834L58.0942 32.3913L56.6058 31.1977L55.1172 32.3913L55.1223 30.4834L53.261 30.0638L54.7559 28.8782L53.9234 27.1613L55.7824 27.5911L56.6058 25.8696Z" fill="#F0F0F0"/>
<path d="M51.8224 35L52.4698 36.9929H54.5654L52.87 38.2246L53.5177 40.2174L51.8224 38.9858L50.1271 40.2174L50.7746 38.2246L49.0793 36.9929H51.1748L51.8224 35Z" fill="#F0F0F0"/>
</g>
<path d="M75.256 41L78.92 29.8H81.528L85.096 41H83.064L80.136 31.176H80.312L77.304 41H75.256ZM77.352 37.784V36.168H82.76V37.784H77.352ZM89.5094 41.24C88.7734 41.24 88.1227 41.1013 87.5574 40.824C87.0027 40.536 86.5654 40.0987 86.2454 39.512C85.936 38.9147 85.7814 38.1573 85.7814 37.24V32.104H87.6374V37.512C87.6374 38.2587 87.8134 38.8027 88.1654 39.144C88.528 39.4747 88.976 39.64 89.5094 39.64C90.0534 39.64 90.496 39.4693 90.8374 39.128C91.1787 38.776 91.3494 38.2373 91.3494 37.512V32.104H93.2374V37.24C93.2374 38.168 93.0774 38.9307 92.7574 39.528C92.448 40.1147 92.0107 40.5467 91.4454 40.824C90.8907 41.1013 90.2454 41.24 89.5094 41.24ZM98.0168 41.24C97.0141 41.24 96.1928 41.0373 95.5528 40.632C94.9234 40.216 94.5181 39.6027 94.3368 38.792L96.0807 38.328C96.1768 38.8507 96.4008 39.2347 96.7528 39.48C97.1154 39.7147 97.5474 39.832 98.0488 39.832C98.4968 39.832 98.8594 39.72 99.1368 39.496C99.4248 39.272 99.5688 39.0053 99.5688 38.696C99.5688 38.3013 99.4141 37.9973 99.1048 37.784C98.7954 37.56 98.2408 37.3733 97.4408 37.224C96.5021 37.0427 95.7981 36.712 95.3288 36.232C94.8701 35.752 94.6408 35.1707 94.6408 34.488C94.6408 33.9547 94.7794 33.4907 95.0568 33.096C95.3341 32.7013 95.7128 32.3973 96.1928 32.184C96.6834 31.9707 97.2541 31.864 97.9048 31.864C98.8328 31.864 99.5848 32.04 100.161 32.392C100.737 32.7333 101.131 33.2987 101.345 34.088L99.6648 34.664C99.5261 34.1307 99.3021 33.768 98.9928 33.576C98.6941 33.3733 98.3261 33.272 97.8888 33.272C97.5048 33.272 97.1848 33.3573 96.9288 33.528C96.6728 33.6987 96.5448 33.9333 96.5448 34.232C96.5448 34.5733 96.6781 34.8507 96.9448 35.064C97.2221 35.2667 97.7234 35.4427 98.4488 35.592C99.4514 35.7947 100.198 36.1253 100.689 36.584C101.19 37.0427 101.441 37.656 101.441 38.424C101.441 39.3093 101.137 40.0027 100.529 40.504C99.9208 40.9947 99.0834 41.24 98.0168 41.24ZM106.036 41C105.429 41 104.949 40.9253 104.597 40.776C104.255 40.6267 104.015 40.3813 103.877 40.04C103.738 39.6987 103.669 39.2453 103.669 38.68V29.784H105.541V38.552C105.541 38.8613 105.605 39.08 105.733 39.208C105.861 39.336 106.069 39.4 106.357 39.4H107.573V41H106.036ZM102.181 33.704V32.104H107.573V33.704H102.181ZM109.211 41V32.104H111.083V41H109.211ZM111.083 36.248L110.987 34.104C111.062 33.4 111.27 32.8827 111.611 32.552C111.952 32.2213 112.459 32.056 113.131 32.056H113.915V33.864H113.003C112.299 33.864 111.803 34.0453 111.515 34.408C111.227 34.76 111.083 35.3733 111.083 36.248ZM119.744 41V34.92C119.744 34.408 119.595 34.0347 119.296 33.8C118.997 33.5653 118.624 33.448 118.176 33.448C117.664 33.448 117.211 33.576 116.816 33.832C116.421 34.088 116.128 34.4027 115.936 34.776L114.656 33.624C115.061 33.016 115.584 32.5733 116.224 32.296C116.875 32.008 117.563 31.864 118.288 31.864C118.981 31.864 119.573 31.9707 120.064 32.184C120.565 32.3973 120.949 32.7333 121.216 33.192C121.493 33.6507 121.632 34.2533 121.632 35V41H119.744ZM117.232 41.176C116.368 41.176 115.701 40.9413 115.232 40.472C114.763 39.992 114.528 39.3733 114.528 38.616C114.528 37.8053 114.795 37.1653 115.328 36.696C115.872 36.216 116.688 35.8853 117.776 35.704L119.952 35.32V36.728L117.968 37.08C117.445 37.1867 117.056 37.352 116.8 37.576C116.555 37.8 116.432 38.0987 116.432 38.472C116.432 38.8987 116.56 39.208 116.816 39.4C117.083 39.592 117.403 39.688 117.776 39.688C118.395 39.688 118.875 39.4693 119.216 39.032C119.568 38.584 119.744 37.9493 119.744 37.128L119.856 38.504C119.867 39.336 119.643 39.992 119.184 40.472C118.736 40.9413 118.085 41.176 117.232 41.176ZM125.526 41C124.844 41 124.321 40.8187 123.958 40.456C123.596 40.0933 123.414 39.576 123.414 38.904V28.84H125.302V38.76C125.302 39.24 125.542 39.48 126.022 39.48H126.71V41H125.526ZM128.071 41V32.104H129.943V41H128.071ZM128.983 30.792C128.631 30.792 128.343 30.68 128.118 30.456C127.905 30.232 127.799 29.9653 127.799 29.656C127.799 29.3573 127.905 29.1013 128.118 28.888C128.343 28.664 128.631 28.552 128.983 28.552C129.345 28.552 129.633 28.664 129.847 28.888C130.071 29.1013 130.183 29.3573 130.183 29.656C130.183 29.976 130.071 30.248 129.847 30.472C129.623 30.6853 129.335 30.792 128.983 30.792ZM136.541 41V34.92C136.541 34.408 136.392 34.0347 136.093 33.8C135.794 33.5653 135.421 33.448 134.973 33.448C134.461 33.448 134.008 33.576 133.613 33.832C133.218 34.088 132.925 34.4027 132.733 34.776L131.453 33.624C131.858 33.016 132.381 32.5733 133.021 32.296C133.672 32.008 134.36 31.864 135.085 31.864C135.778 31.864 136.37 31.9707 136.861 32.184C137.362 32.3973 137.746 32.7333 138.013 33.192C138.29 33.6507 138.429 34.2533 138.429 35V41H136.541ZM134.029 41.176C133.165 41.176 132.498 40.9413 132.029 40.472C131.56 39.992 131.325 39.3733 131.325 38.616C131.325 37.8053 131.592 37.1653 132.125 36.696C132.669 36.216 133.485 35.8853 134.573 35.704L136.749 35.32V36.728L134.765 37.08C134.242 37.1867 133.853 37.352 133.597 37.576C133.352 37.8 133.229 38.0987 133.229 38.472C133.229 38.8987 133.357 39.208 133.613 39.4C133.88 39.592 134.2 39.688 134.573 39.688C135.192 39.688 135.672 39.4693 136.013 39.032C136.365 38.584 136.541 37.9493 136.541 37.128L136.653 38.504C136.664 39.336 136.44 39.992 135.981 40.472C135.533 40.9413 134.882 41.176 134.029 41.176Z" fill="#1F1F1F"/>
<defs>
<clipPath id="clip0_328_85">
<rect width="60" height="60" fill="white" transform="translate(5 5)"/>
</clipPath>
</defs>
</svg>
