<svg width="150" height="70" viewBox="0 0 150 70" fill="none" xmlns="http://www.w3.org/2000/svg">
<rect width="150" height="70" rx="35" fill="#F7F7F7"/>
<g clip-path="url(#clip0_328_143)">
<path d="M35 65C51.5685 65 65 51.5685 65 35C65 18.4315 51.5685 5 35 5C18.4315 5 5 18.4315 5 35C5 51.5685 18.4315 65 35 65Z" fill="#F0F0F0"/>
<path d="M65 34.9998C65 23.1059 58.0783 12.8291 48.0435 7.97656V62.0229C58.0783 57.1705 65 46.8936 65 34.9998Z" fill="#D80027"/>
<path d="M5 34.9998C5 46.8936 11.9217 57.1705 21.9566 62.023V7.97656C11.9217 12.8291 5 23.1059 5 34.9998Z" fill="#D80027"/>
<path d="M40.2173 38.9126L45.4346 36.3039L42.826 34.9996V32.3909L37.6086 34.9996L40.2173 29.7821H37.6086L34.9999 25.8691L32.3912 29.7821H29.7825L32.3912 34.9996L27.1738 32.3909V34.9996L24.5652 36.3039L29.7825 38.9126L28.4782 41.5213H33.6956V45.4343H36.3042V41.5213H41.5216L40.2173 38.9126Z" fill="#D80027"/>
</g>
<path d="M80.216 41.192C79.2347 41.192 78.4027 40.9467 77.72 40.456C77.0373 39.9547 76.52 39.272 76.168 38.408C75.8267 37.5333 75.656 36.5253 75.656 35.384C75.656 34.2427 75.8267 33.24 76.168 32.376C76.52 31.5013 77.0373 30.8187 77.72 30.328C78.4027 29.8267 79.2347 29.576 80.216 29.576C80.9093 29.576 81.5547 29.688 82.152 29.912C82.7493 30.136 83.256 30.536 83.672 31.112C84.0987 31.6773 84.3867 32.4827 84.536 33.528L82.536 33.864C82.4507 32.936 82.2053 32.2587 81.8 31.832C81.4053 31.3947 80.8827 31.176 80.232 31.176C79.336 31.176 78.68 31.5227 78.264 32.216C77.8587 32.9093 77.656 33.9653 77.656 35.384C77.656 36.8027 77.864 37.8587 78.28 38.552C78.696 39.2347 79.3467 39.576 80.232 39.576C80.8613 39.576 81.368 39.3787 81.752 38.984C82.136 38.5893 82.3867 37.896 82.504 36.904L84.488 37.224C84.3493 38.0347 84.1413 38.7013 83.864 39.224C83.5973 39.736 83.2773 40.136 82.904 40.424C82.5307 40.712 82.1147 40.9093 81.656 41.016C81.1973 41.1333 80.7173 41.192 80.216 41.192ZM90.8221 41V34.92C90.8221 34.408 90.6728 34.0347 90.3741 33.8C90.0755 33.5653 89.7021 33.448 89.2541 33.448C88.7421 33.448 88.2888 33.576 87.8941 33.832C87.4995 34.088 87.2061 34.4027 87.0141 34.776L85.7341 33.624C86.1395 33.016 86.6621 32.5733 87.3021 32.296C87.9528 32.008 88.6408 31.864 89.3661 31.864C90.0595 31.864 90.6515 31.9707 91.1421 32.184C91.6435 32.3973 92.0275 32.7333 92.2941 33.192C92.5715 33.6507 92.7101 34.2533 92.7101 35V41H90.8221ZM88.3101 41.176C87.4461 41.176 86.7795 40.9413 86.3101 40.472C85.8408 39.992 85.6061 39.3733 85.6061 38.616C85.6061 37.8053 85.8728 37.1653 86.4061 36.696C86.9501 36.216 87.7661 35.8853 88.8541 35.704L91.0301 35.32V36.728L89.0461 37.08C88.5235 37.1867 88.1341 37.352 87.8781 37.576C87.6328 37.8 87.5101 38.0987 87.5101 38.472C87.5101 38.8987 87.6381 39.208 87.8941 39.4C88.1608 39.592 88.4808 39.688 88.8541 39.688C89.4728 39.688 89.9528 39.4693 90.2941 39.032C90.6461 38.584 90.8221 37.9493 90.8221 37.128L90.9341 38.504C90.9448 39.336 90.7208 39.992 90.2621 40.472C89.8141 40.9413 89.1635 41.176 88.3101 41.176ZM100.332 41V35.72C100.332 34.2373 99.713 33.496 98.4756 33.496C97.825 33.496 97.313 33.7147 96.9396 34.152C96.577 34.5787 96.3956 35.208 96.3956 36.04L96.2996 34.264C96.3423 33.5173 96.625 32.936 97.1476 32.52C97.6703 32.104 98.3263 31.896 99.1156 31.896C100.182 31.896 100.961 32.2053 101.452 32.824C101.953 33.4427 102.204 34.2907 102.204 35.368V41H100.332ZM94.5236 41V32.088H96.3956V41H94.5236ZM108.775 41V34.92C108.775 34.408 108.626 34.0347 108.327 33.8C108.029 33.5653 107.655 33.448 107.207 33.448C106.695 33.448 106.242 33.576 105.847 33.832C105.453 34.088 105.159 34.4027 104.967 34.776L103.687 33.624C104.093 33.016 104.615 32.5733 105.255 32.296C105.906 32.008 106.594 31.864 107.319 31.864C108.013 31.864 108.605 31.9707 109.095 32.184C109.597 32.3973 109.981 32.7333 110.247 33.192C110.525 33.6507 110.663 34.2533 110.663 35V41H108.775ZM106.263 41.176C105.399 41.176 104.733 40.9413 104.263 40.472C103.794 39.992 103.559 39.3733 103.559 38.616C103.559 37.8053 103.826 37.1653 104.359 36.696C104.903 36.216 105.719 35.8853 106.807 35.704L108.983 35.32V36.728L106.999 37.08C106.477 37.1867 106.087 37.352 105.831 37.576C105.586 37.8 105.463 38.0987 105.463 38.472C105.463 38.8987 105.591 39.208 105.847 39.4C106.114 39.592 106.434 39.688 106.807 39.688C107.426 39.688 107.906 39.4693 108.247 39.032C108.599 38.584 108.775 37.9493 108.775 37.128L108.887 38.504C108.898 39.336 108.674 39.992 108.215 40.472C107.767 40.9413 107.117 41.176 106.263 41.176ZM115.723 41.24C115.051 41.24 114.432 41.0693 113.867 40.728C113.312 40.376 112.869 39.8533 112.539 39.16C112.208 38.4667 112.043 37.592 112.043 36.536C112.043 35.4907 112.208 34.6213 112.539 33.928C112.869 33.2347 113.312 32.7173 113.867 32.376C114.432 32.0347 115.051 31.864 115.723 31.864C116.235 31.864 116.699 31.976 117.115 32.2C117.531 32.4133 117.867 32.728 118.123 33.144C118.379 33.56 118.523 34.0613 118.555 34.648L119.419 36.536L118.555 38.44C118.523 39.016 118.379 39.5173 118.123 39.944C117.867 40.36 117.531 40.68 117.115 40.904C116.699 41.128 116.235 41.24 115.723 41.24ZM116.219 39.592C116.699 39.592 117.093 39.4587 117.403 39.192C117.723 38.9253 117.957 38.5627 118.107 38.104C118.267 37.6453 118.347 37.1227 118.347 36.536C118.347 35.96 118.272 35.4427 118.123 34.984C117.973 34.5253 117.739 34.1627 117.419 33.896C117.099 33.6293 116.699 33.496 116.219 33.496C115.483 33.496 114.917 33.7627 114.523 34.296C114.139 34.8293 113.947 35.576 113.947 36.536C113.947 37.4853 114.139 38.232 114.523 38.776C114.907 39.32 115.472 39.592 116.219 39.592ZM118.347 41V38.344V34.792V28.856H120.219V41H118.347ZM126.791 41V34.92C126.791 34.408 126.642 34.0347 126.343 33.8C126.044 33.5653 125.671 33.448 125.223 33.448C124.711 33.448 124.258 33.576 123.863 33.832C123.468 34.088 123.175 34.4027 122.983 34.776L121.703 33.624C122.108 33.016 122.631 32.5733 123.271 32.296C123.922 32.008 124.61 31.864 125.335 31.864C126.028 31.864 126.62 31.9707 127.111 32.184C127.612 32.3973 127.996 32.7333 128.263 33.192C128.54 33.6507 128.679 34.2533 128.679 35V41H126.791ZM124.279 41.176C123.415 41.176 122.748 40.9413 122.279 40.472C121.81 39.992 121.575 39.3733 121.575 38.616C121.575 37.8053 121.842 37.1653 122.375 36.696C122.919 36.216 123.735 35.8853 124.823 35.704L126.999 35.32V36.728L125.015 37.08C124.492 37.1867 124.103 37.352 123.847 37.576C123.602 37.8 123.479 38.0987 123.479 38.472C123.479 38.8987 123.607 39.208 123.863 39.4C124.13 39.592 124.45 39.688 124.823 39.688C125.442 39.688 125.922 39.4693 126.263 39.032C126.615 38.584 126.791 37.9493 126.791 37.128L126.903 38.504C126.914 39.336 126.69 39.992 126.231 40.472C125.783 40.9413 125.132 41.176 124.279 41.176Z" fill="#1F1F1F"/>
<defs>
<clipPath id="clip0_328_143">
<rect width="60" height="60" fill="white" transform="translate(5 5)"/>
</clipPath>
</defs>
</svg>
