<svg width="132" height="70" viewBox="0 0 132 70" fill="none" xmlns="http://www.w3.org/2000/svg">
<rect width="132" height="70" rx="35" fill="#F7F7F7"/>
<g clip-path="url(#clip0_328_1372)">
<path d="M35 65C51.5685 65 65 51.5685 65 35C65 18.4315 51.5685 5 35 5C18.4315 5 5 18.4315 5 35C5 51.5685 18.4315 65 35 65Z" fill="#F0F0F0"/>
<path d="M65 35C65 51.5684 51.5684 65 35 65C18.4316 65 5 51.5684 5 35C5 18.4315 35 35 35 35C35 35 57.7064 35 65 35Z" fill="#D80027"/>
<path d="M5 35C5 18.4316 18.4316 5 35 5V35C35 35 15.4347 35 5 35Z" fill="#0052B4"/>
<path d="M22.8581 15.4346L24.8007 21.4132H31.087L26.0013 25.1082L27.9438 31.0868L22.8581 27.3918L17.7724 31.0868L19.7149 25.1082L14.6292 21.4132H20.9154L22.8581 15.4346Z" fill="#F0F0F0"/>
</g>
<path d="M80.216 41.192C79.2347 41.192 78.4027 40.9467 77.72 40.456C77.0373 39.9547 76.52 39.272 76.168 38.408C75.8267 37.5333 75.656 36.5253 75.656 35.384C75.656 34.2427 75.8267 33.24 76.168 32.376C76.52 31.5013 77.0373 30.8187 77.72 30.328C78.4027 29.8267 79.2347 29.576 80.216 29.576C80.9093 29.576 81.5547 29.688 82.152 29.912C82.7493 30.136 83.256 30.536 83.672 31.112C84.0987 31.6773 84.3867 32.4827 84.536 33.528L82.536 33.864C82.4507 32.936 82.2053 32.2587 81.8 31.832C81.4053 31.3947 80.8827 31.176 80.232 31.176C79.336 31.176 78.68 31.5227 78.264 32.216C77.8587 32.9093 77.656 33.9653 77.656 35.384C77.656 36.8027 77.864 37.8587 78.28 38.552C78.696 39.2347 79.3467 39.576 80.232 39.576C80.8613 39.576 81.368 39.3787 81.752 38.984C82.136 38.5893 82.3867 37.896 82.504 36.904L84.488 37.224C84.3493 38.0347 84.1413 38.7013 83.864 39.224C83.5973 39.736 83.2773 40.136 82.904 40.424C82.5307 40.712 82.1147 40.9093 81.656 41.016C81.1973 41.1333 80.7173 41.192 80.216 41.192ZM91.8004 41V35.72C91.8004 34.2373 91.1817 33.496 89.9444 33.496C89.2937 33.496 88.7817 33.7147 88.4084 34.152C88.0457 34.5787 87.8644 35.208 87.8644 36.04L87.7684 34.264C87.811 33.5173 88.0937 32.936 88.6164 32.52C89.139 32.104 89.795 31.896 90.5844 31.896C91.651 31.896 92.4297 32.2053 92.9204 32.824C93.4217 33.4427 93.6724 34.2907 93.6724 35.368V41H91.8004ZM85.9924 41V28.84H87.8644V41H85.9924ZM95.4768 41V32.104H97.3488V41H95.4768ZM96.3888 30.792C96.0368 30.792 95.7488 30.68 95.5247 30.456C95.3114 30.232 95.2048 29.9653 95.2048 29.656C95.2048 29.3573 95.3114 29.1013 95.5247 28.888C95.7488 28.664 96.0368 28.552 96.3888 28.552C96.7514 28.552 97.0394 28.664 97.2528 28.888C97.4768 29.1013 97.5888 29.3573 97.5888 29.656C97.5888 29.976 97.4768 30.248 97.2528 30.472C97.0288 30.6853 96.7408 30.792 96.3888 30.792ZM101.339 41C100.656 41 100.133 40.8187 99.7708 40.456C99.4081 40.0933 99.2268 39.576 99.2268 38.904V28.84H101.115V38.76C101.115 39.24 101.355 39.48 101.835 39.48H102.523V41H101.339ZM107.107 41.224C106.254 41.224 105.523 41.0267 104.915 40.632C104.318 40.2373 103.859 39.6827 103.539 38.968C103.219 38.2427 103.059 37.4 103.059 36.44C103.059 35.5013 103.225 34.6907 103.555 34.008C103.886 33.3253 104.355 32.7973 104.963 32.424C105.571 32.0507 106.27 31.864 107.059 31.864C107.795 31.864 108.446 32.024 109.011 32.344C109.577 32.664 110.019 33.1547 110.339 33.816C110.659 34.4667 110.819 35.2933 110.819 36.296V36.936H104.163V35.608H109.187L108.819 35.816C108.83 35.752 108.835 35.6827 108.835 35.608C108.835 35.5333 108.835 35.464 108.835 35.4C108.835 34.8133 108.686 34.3387 108.387 33.976C108.089 33.6027 107.625 33.416 106.995 33.416C106.377 33.416 105.881 33.6347 105.507 34.072C105.145 34.5093 104.963 35.2667 104.963 36.344C104.963 37.496 105.123 38.3387 105.443 38.872C105.774 39.4053 106.329 39.672 107.107 39.672C107.577 39.672 107.987 39.5547 108.339 39.32C108.691 39.0747 108.931 38.6533 109.059 38.056L110.739 38.52C110.558 39.2667 110.27 39.8373 109.875 40.232C109.481 40.616 109.038 40.8773 108.547 41.016C108.057 41.1547 107.577 41.224 107.107 41.224Z" fill="#1F1F1F"/>
<defs>
<clipPath id="clip0_328_1372">
<rect width="60" height="60" fill="white" transform="translate(5 5)"/>
</clipPath>
</defs>
</svg>
