<svg width="137" height="70" viewBox="0 0 137 70" fill="none" xmlns="http://www.w3.org/2000/svg">
<rect width="137" height="70" rx="35" fill="#F7F7F7"/>
<g clip-path="url(#clip0_328_1399)">
<path d="M35 65C51.5685 65 65 51.5685 65 35C65 18.4315 51.5685 5 35 5C18.4315 5 5 18.4315 5 35C5 51.5685 18.4315 65 35 65Z" fill="#D80027"/>
<path d="M21.418 23.2578L24.0078 31.2266H32.3867L25.6133 36.1602L28.2031 44.1289L21.418 39.207L14.6328 44.1289L17.2344 36.1602L10.4492 31.2266H18.8281L21.418 23.2578Z" fill="#FFDA44"/>
<path d="M40.5664 51.4648L38.5859 49.0273L35.6563 50.1641L37.3555 47.5273L35.375 45.0781L38.4102 45.8867L40.1211 43.25L40.2852 46.3906L43.332 47.1992L40.3906 48.3242L40.5664 51.4648Z" fill="#FFDA44"/>
<path d="M44.5039 44.3164L45.4414 41.3164L42.875 39.5L46.0156 39.4531L46.9414 36.4531L47.9609 39.4297L51.1016 39.3945L48.582 41.2695L49.5898 44.2461L47.0234 42.4297L44.5039 44.3164Z" fill="#FFDA44"/>
<path d="M49.8125 27.0195L48.4297 29.8437L50.6797 32.0352L47.5742 31.5898L46.1914 34.4023L45.6523 31.3086L42.5352 30.8633L45.3242 29.3984L44.7852 26.293L47.0352 28.4844L49.8125 27.0195Z" fill="#FFDA44"/>
<path d="M40.6484 18.4648L40.4141 21.5938L43.332 22.7773L40.2734 23.5273L40.0508 26.668L38.3984 23.9961L35.3398 24.7461L37.3672 22.3438L35.7031 19.6836L38.6211 20.8672L40.6484 18.4648Z" fill="#FFDA44"/>
</g>
<path d="M80.216 41.192C79.2347 41.192 78.4027 40.9467 77.72 40.456C77.0373 39.9547 76.52 39.272 76.168 38.408C75.8267 37.5333 75.656 36.5253 75.656 35.384C75.656 34.2427 75.8267 33.24 76.168 32.376C76.52 31.5013 77.0373 30.8187 77.72 30.328C78.4027 29.8267 79.2347 29.576 80.216 29.576C80.9093 29.576 81.5547 29.688 82.152 29.912C82.7493 30.136 83.256 30.536 83.672 31.112C84.0987 31.6773 84.3867 32.4827 84.536 33.528L82.536 33.864C82.4507 32.936 82.2053 32.2587 81.8 31.832C81.4053 31.3947 80.8827 31.176 80.232 31.176C79.336 31.176 78.68 31.5227 78.264 32.216C77.8587 32.9093 77.656 33.9653 77.656 35.384C77.656 36.8027 77.864 37.8587 78.28 38.552C78.696 39.2347 79.3467 39.576 80.232 39.576C80.8613 39.576 81.368 39.3787 81.752 38.984C82.136 38.5893 82.3867 37.896 82.504 36.904L84.488 37.224C84.3493 38.0347 84.1413 38.7013 83.864 39.224C83.5973 39.736 83.2773 40.136 82.904 40.424C82.5307 40.712 82.1147 40.9093 81.656 41.016C81.1973 41.1333 80.7173 41.192 80.216 41.192ZM91.8004 41V35.72C91.8004 34.2373 91.1817 33.496 89.9444 33.496C89.2937 33.496 88.7817 33.7147 88.4084 34.152C88.0457 34.5787 87.8644 35.208 87.8644 36.04L87.7684 34.264C87.811 33.5173 88.0937 32.936 88.6164 32.52C89.139 32.104 89.795 31.896 90.5844 31.896C91.651 31.896 92.4297 32.2053 92.9204 32.824C93.4217 33.4427 93.6724 34.2907 93.6724 35.368V41H91.8004ZM85.9924 41V28.84H87.8644V41H85.9924ZM95.4768 41V32.104H97.3488V41H95.4768ZM96.3888 30.792C96.0368 30.792 95.7488 30.68 95.5247 30.456C95.3114 30.232 95.2048 29.9653 95.2048 29.656C95.2048 29.3573 95.3114 29.1013 95.5247 28.888C95.7488 28.664 96.0368 28.552 96.3888 28.552C96.7514 28.552 97.0394 28.664 97.2528 28.888C97.4768 29.1013 97.5888 29.3573 97.5888 29.656C97.5888 29.976 97.4768 30.248 97.2528 30.472C97.0288 30.6853 96.7408 30.792 96.3888 30.792ZM105.05 41V35.72C105.05 34.2373 104.432 33.496 103.194 33.496C102.544 33.496 102.032 33.7147 101.658 34.152C101.296 34.5787 101.114 35.208 101.114 36.04L101.018 34.264C101.061 33.5173 101.344 32.936 101.866 32.52C102.389 32.104 103.045 31.896 103.834 31.896C104.901 31.896 105.68 32.2053 106.17 32.824C106.672 33.4427 106.922 34.2907 106.922 35.368V41H105.05ZM99.2424 41V32.088H101.114V41H99.2424ZM113.494 41V34.92C113.494 34.408 113.345 34.0347 113.046 33.8C112.747 33.5653 112.374 33.448 111.926 33.448C111.414 33.448 110.961 33.576 110.566 33.832C110.171 34.088 109.878 34.4027 109.686 34.776L108.406 33.624C108.811 33.016 109.334 32.5733 109.974 32.296C110.625 32.008 111.313 31.864 112.038 31.864C112.731 31.864 113.323 31.9707 113.814 32.184C114.315 32.3973 114.699 32.7333 114.966 33.192C115.243 33.6507 115.382 34.2533 115.382 35V41H113.494ZM110.982 41.176C110.118 41.176 109.451 40.9413 108.982 40.472C108.513 39.992 108.278 39.3733 108.278 38.616C108.278 37.8053 108.545 37.1653 109.078 36.696C109.622 36.216 110.438 35.8853 111.526 35.704L113.702 35.32V36.728L111.718 37.08C111.195 37.1867 110.806 37.352 110.55 37.576C110.305 37.8 110.182 38.0987 110.182 38.472C110.182 38.8987 110.31 39.208 110.566 39.4C110.833 39.592 111.153 39.688 111.526 39.688C112.145 39.688 112.625 39.4693 112.966 39.032C113.318 38.584 113.494 37.9493 113.494 37.128L113.606 38.504C113.617 39.336 113.393 39.992 112.934 40.472C112.486 40.9413 111.835 41.176 110.982 41.176Z" fill="#1F1F1F"/>
<defs>
<clipPath id="clip0_328_1399">
<rect width="60" height="60" fill="white" transform="translate(5 5)"/>
</clipPath>
</defs>
</svg>
