<svg width="161" height="70" viewBox="0 0 161 70" fill="none" xmlns="http://www.w3.org/2000/svg">
<rect width="161" height="70" rx="35" fill="#F7F7F7"/>
<g clip-path="url(#clip0_328_1500)">
<path d="M35 65C51.5685 65 65 51.5685 65 35C65 18.4315 51.5685 5 35 5C18.4315 5 5 18.4315 5 35C5 51.5685 18.4315 65 35 65Z" fill="#F0F0F0"/>
<path d="M28.4784 31.087H64.746C62.8285 16.3674 50.2422 5 35 5C32.7599 5 30.5783 5.24762 28.4783 5.71309L28.4784 31.087Z" fill="#D80027"/>
<path d="M20.6521 31.0866V8.64746C12.4146 13.1421 6.51754 21.3863 5.25391 31.0868L20.6521 31.0866Z" fill="#D80027"/>
<path d="M20.652 38.9131H5.25391C6.51754 48.6135 12.4146 56.8578 20.6521 61.3523L20.652 38.9131Z" fill="#D80027"/>
<path d="M28.4783 38.9132V64.287C30.5783 64.7525 32.7599 65.0001 35 65.0001C50.2422 65.0001 62.8285 53.6327 64.746 38.9131H28.4783V38.9132Z" fill="#D80027"/>
</g>
<path d="M76.136 41V29.8H79.608C80.6107 29.8 81.4853 30.008 82.232 30.424C82.9787 30.8293 83.56 31.4427 83.976 32.264C84.392 33.0853 84.6 34.1147 84.6 35.352C84.6 36.5893 84.392 37.6293 83.976 38.472C83.56 39.3147 82.9787 39.9493 82.232 40.376C81.4853 40.792 80.6107 41 79.608 41H76.136ZM78.136 39.384H79.48C80.4507 39.384 81.2133 39.064 81.768 38.424C82.3227 37.7733 82.6 36.7547 82.6 35.368C82.6 33.9707 82.3227 32.9627 81.768 32.344C81.2133 31.7147 80.4507 31.4 79.48 31.4H78.136V39.384ZM89.8104 41.224C88.957 41.224 88.2264 41.0267 87.6184 40.632C87.021 40.2373 86.5624 39.6827 86.2424 38.968C85.9224 38.2427 85.7624 37.4 85.7624 36.44C85.7624 35.5013 85.9277 34.6907 86.2584 34.008C86.589 33.3253 87.0584 32.7973 87.6664 32.424C88.2744 32.0507 88.973 31.864 89.7624 31.864C90.4984 31.864 91.149 32.024 91.7144 32.344C92.2797 32.664 92.7224 33.1547 93.0424 33.816C93.3624 34.4667 93.5224 35.2933 93.5224 36.296V36.936H86.8664V35.608H91.8904L91.5224 35.816C91.533 35.752 91.5384 35.6827 91.5384 35.608C91.5384 35.5333 91.5384 35.464 91.5384 35.4C91.5384 34.8133 91.389 34.3387 91.0904 33.976C90.7917 33.6027 90.3277 33.416 89.6984 33.416C89.0797 33.416 88.5837 33.6347 88.2104 34.072C87.8477 34.5093 87.6664 35.2667 87.6664 36.344C87.6664 37.496 87.8264 38.3387 88.1464 38.872C88.477 39.4053 89.0317 39.672 89.8104 39.672C90.2797 39.672 90.6904 39.5547 91.0424 39.32C91.3944 39.0747 91.6344 38.6533 91.7624 38.056L93.4424 38.52C93.261 39.2667 92.973 39.8373 92.5784 40.232C92.1837 40.616 91.741 40.8773 91.2504 41.016C90.7597 41.1547 90.2797 41.224 89.8104 41.224ZM100.707 41V35.72C100.707 34.2373 100.088 33.496 98.8506 33.496C98.2 33.496 97.688 33.7147 97.3146 34.152C96.952 34.5787 96.7706 35.208 96.7706 36.04L96.6746 34.264C96.7173 33.5173 97 32.936 97.5226 32.52C98.0453 32.104 98.7013 31.896 99.4906 31.896C100.557 31.896 101.336 32.2053 101.827 32.824C102.328 33.4427 102.579 34.2907 102.579 35.368V41H100.707ZM94.8986 41V32.088H96.7706V41H94.8986ZM114.303 41V35.24C114.303 34.6427 114.175 34.1947 113.919 33.896C113.663 33.5867 113.3 33.432 112.831 33.432C112.33 33.432 111.935 33.592 111.647 33.912C111.359 34.2213 111.215 34.6693 111.215 35.256L110.911 33.896C111.007 33.288 111.279 32.7973 111.727 32.424C112.175 32.0507 112.751 31.864 113.455 31.864C114.33 31.864 115.002 32.12 115.471 32.632C115.94 33.1333 116.175 33.9013 116.175 34.936V41H114.303ZM104.383 41V32.088H106.255V41H104.383ZM109.343 41V35.24C109.343 34.6427 109.215 34.1947 108.959 33.896C108.714 33.5867 108.346 33.432 107.855 33.432C107.364 33.432 106.975 33.592 106.687 33.912C106.399 34.2213 106.255 34.6693 106.255 35.256L106.127 33.912C106.148 33.336 106.378 32.8507 106.815 32.456C107.263 32.0613 107.855 31.864 108.591 31.864C109.434 31.864 110.079 32.12 110.527 32.632C110.986 33.1333 111.215 33.9013 111.215 34.936V41H109.343ZM122.76 41V34.92C122.76 34.408 122.61 34.0347 122.312 33.8C122.013 33.5653 121.64 33.448 121.192 33.448C120.68 33.448 120.226 33.576 119.832 33.832C119.437 34.088 119.144 34.4027 118.952 34.776L117.672 33.624C118.077 33.016 118.6 32.5733 119.24 32.296C119.89 32.008 120.578 31.864 121.304 31.864C121.997 31.864 122.589 31.9707 123.08 32.184C123.581 32.3973 123.965 32.7333 124.232 33.192C124.509 33.6507 124.648 34.2533 124.648 35V41H122.76ZM120.248 41.176C119.384 41.176 118.717 40.9413 118.248 40.472C117.778 39.992 117.544 39.3733 117.544 38.616C117.544 37.8053 117.81 37.1653 118.344 36.696C118.888 36.216 119.704 35.8853 120.792 35.704L122.968 35.32V36.728L120.984 37.08C120.461 37.1867 120.072 37.352 119.816 37.576C119.57 37.8 119.448 38.0987 119.448 38.472C119.448 38.8987 119.576 39.208 119.832 39.4C120.098 39.592 120.418 39.688 120.792 39.688C121.41 39.688 121.89 39.4693 122.232 39.032C122.584 38.584 122.76 37.9493 122.76 37.128L122.872 38.504C122.882 39.336 122.658 39.992 122.2 40.472C121.752 40.9413 121.101 41.176 120.248 41.176ZM126.461 41V32.104H128.333V41H126.461ZM128.333 36.248L128.237 34.104C128.312 33.4 128.52 32.8827 128.861 32.552C129.202 32.2213 129.709 32.056 130.381 32.056H131.165V33.864H130.253C129.549 33.864 129.053 34.0453 128.765 34.408C128.477 34.76 128.333 35.3733 128.333 36.248ZM137.597 41L133.901 36.152L137.293 32.104H139.613L135.949 36.248V35.976L139.997 41H137.597ZM132.461 41V28.84H134.333V41H132.461Z" fill="#1F1F1F"/>
<defs>
<clipPath id="clip0_328_1500">
<rect width="60" height="60" fill="white" transform="translate(5 5)"/>
</clipPath>
</defs>
</svg>
