<svg width="155" height="70" viewBox="0 0 155 70" fill="none" xmlns="http://www.w3.org/2000/svg">
<rect width="155" height="70" rx="35" fill="#F7F7F7"/>
<g clip-path="url(#clip0_328_133)">
<path d="M35 65C51.5685 65 65 51.5685 65 35C65 18.4315 51.5685 5 35 5C18.4315 5 5 18.4315 5 35C5 51.5685 18.4315 65 35 65Z" fill="#F0F0F0"/>
<path d="M64.7461 31.087H38.9132H38.9131V5.25395C37.6321 5.08719 36.3262 5 35 5C33.6738 5 32.3679 5.08719 31.087 5.25395V31.0868V31.0869H5.25395C5.08719 32.3679 5 33.6736 5 35C5 36.3264 5.08719 37.6321 5.25395 38.913H31.0868H31.0869V64.7461C32.3679 64.9128 33.6738 65 35 65C36.3262 65 37.6321 64.9129 38.913 64.7461V38.9132V38.9131H64.7461C64.9128 37.6321 65 36.3264 65 35C65 33.6736 64.9128 32.3679 64.7461 31.087Z" fill="#D80027"/>
</g>
<path d="M76.136 41V29.8H82.776V31.4H78.136V39.384H83.224V41H76.136ZM76.2 35.72V34.104H82.296V35.72H76.2ZM90.3004 41V35.72C90.3004 34.2373 89.6817 33.496 88.4444 33.496C87.7937 33.496 87.2817 33.7147 86.9084 34.152C86.5457 34.5787 86.3644 35.208 86.3644 36.04L86.2684 34.264C86.311 33.5173 86.5937 32.936 87.1164 32.52C87.639 32.104 88.295 31.896 89.0844 31.896C90.151 31.896 90.9297 32.2053 91.4204 32.824C91.9217 33.4427 92.1724 34.2907 92.1724 35.368V41H90.3004ZM84.4924 41V32.088H86.3644V41H84.4924ZM94.8869 44.44V42.84H98.4709C98.9082 42.84 99.2389 42.7227 99.4629 42.488C99.6975 42.2533 99.8149 41.8747 99.8149 41.352V32.088H101.687V41.304C101.687 41.976 101.596 42.5413 101.415 43C101.244 43.4693 100.935 43.8267 100.487 44.072C100.039 44.3173 99.4095 44.44 98.5989 44.44H94.8869ZM97.1909 41.24C96.5189 41.24 95.9055 41.0693 95.3509 40.728C94.7962 40.376 94.3535 39.8533 94.0229 39.16C93.6922 38.456 93.5269 37.5813 93.5269 36.536C93.5269 35.48 93.6922 34.6107 94.0229 33.928C94.3535 33.2347 94.7962 32.7173 95.3509 32.376C95.9055 32.0347 96.5189 31.864 97.1909 31.864C97.6922 31.864 98.1509 31.976 98.5669 32.2C98.9935 32.4133 99.3349 32.728 99.5909 33.144C99.8575 33.56 100.007 34.0613 100.039 34.648L100.871 36.536L100.039 38.44C100.007 39.016 99.8575 39.5173 99.5909 39.944C99.3349 40.36 98.9935 40.68 98.5669 40.904C98.1509 41.128 97.6922 41.24 97.1909 41.24ZM97.6869 39.592C98.1775 39.592 98.5775 39.4587 98.8869 39.192C99.1962 38.9253 99.4255 38.5627 99.5749 38.104C99.7242 37.6453 99.7989 37.1227 99.7989 36.536C99.7989 35.9493 99.7189 35.432 99.5589 34.984C99.4095 34.5253 99.1802 34.1627 98.8709 33.896C98.5615 33.6293 98.1669 33.496 97.6869 33.496C96.9509 33.496 96.3855 33.768 95.9909 34.312C95.5962 34.8453 95.3989 35.5867 95.3989 36.536C95.3989 37.496 95.5962 38.248 95.9909 38.792C96.3855 39.3253 96.9509 39.592 97.6869 39.592ZM105.667 41C104.984 41 104.462 40.8187 104.099 40.456C103.736 40.0933 103.555 39.576 103.555 38.904V28.84H105.443V38.76C105.443 39.24 105.683 39.48 106.163 39.48H106.851V41H105.667ZM112.9 41V34.92C112.9 34.408 112.751 34.0347 112.452 33.8C112.154 33.5653 111.78 33.448 111.332 33.448C110.82 33.448 110.367 33.576 109.972 33.832C109.578 34.088 109.284 34.4027 109.092 34.776L107.812 33.624C108.218 33.016 108.74 32.5733 109.38 32.296C110.031 32.008 110.719 31.864 111.444 31.864C112.138 31.864 112.73 31.9707 113.22 32.184C113.722 32.3973 114.106 32.7333 114.372 33.192C114.65 33.6507 114.788 34.2533 114.788 35V41H112.9ZM110.388 41.176C109.524 41.176 108.858 40.9413 108.388 40.472C107.919 39.992 107.684 39.3733 107.684 38.616C107.684 37.8053 107.951 37.1653 108.484 36.696C109.028 36.216 109.844 35.8853 110.932 35.704L113.108 35.32V36.728L111.124 37.08C110.602 37.1867 110.212 37.352 109.956 37.576C109.711 37.8 109.588 38.0987 109.588 38.472C109.588 38.8987 109.716 39.208 109.972 39.4C110.239 39.592 110.559 39.688 110.932 39.688C111.551 39.688 112.031 39.4693 112.372 39.032C112.724 38.584 112.9 37.9493 112.9 37.128L113.012 38.504C113.023 39.336 112.799 39.992 112.34 40.472C111.892 40.9413 111.242 41.176 110.388 41.176ZM122.41 41V35.72C122.41 34.2373 121.791 33.496 120.554 33.496C119.903 33.496 119.391 33.7147 119.018 34.152C118.655 34.5787 118.474 35.208 118.474 36.04L118.378 34.264C118.42 33.5173 118.703 32.936 119.226 32.52C119.748 32.104 120.404 31.896 121.194 31.896C122.26 31.896 123.039 32.2053 123.53 32.824C124.031 33.4427 124.282 34.2907 124.282 35.368V41H122.41ZM116.602 41V32.088H118.474V41H116.602ZM129.316 41.24C128.644 41.24 128.026 41.0693 127.46 40.728C126.906 40.376 126.463 39.8533 126.132 39.16C125.802 38.4667 125.636 37.592 125.636 36.536C125.636 35.4907 125.802 34.6213 126.132 33.928C126.463 33.2347 126.906 32.7173 127.46 32.376C128.026 32.0347 128.644 31.864 129.316 31.864C129.828 31.864 130.292 31.976 130.708 32.2C131.124 32.4133 131.46 32.728 131.716 33.144C131.972 33.56 132.116 34.0613 132.148 34.648L133.012 36.536L132.148 38.44C132.116 39.016 131.972 39.5173 131.716 39.944C131.46 40.36 131.124 40.68 130.708 40.904C130.292 41.128 129.828 41.24 129.316 41.24ZM129.812 39.592C130.292 39.592 130.687 39.4587 130.996 39.192C131.316 38.9253 131.551 38.5627 131.7 38.104C131.86 37.6453 131.94 37.1227 131.94 36.536C131.94 35.96 131.866 35.4427 131.716 34.984C131.567 34.5253 131.332 34.1627 131.012 33.896C130.692 33.6293 130.292 33.496 129.812 33.496C129.076 33.496 128.511 33.7627 128.116 34.296C127.732 34.8293 127.54 35.576 127.54 36.536C127.54 37.4853 127.732 38.232 128.116 38.776C128.5 39.32 129.066 39.592 129.812 39.592ZM131.94 41V38.344V34.792V28.856H133.812V41H131.94Z" fill="#1F1F1F"/>
<defs>
<clipPath id="clip0_328_133">
<rect width="60" height="60" fill="white" transform="translate(5 5)"/>
</clipPath>
</defs>
</svg>
