<svg width="149" height="70" viewBox="0 0 149 70" fill="none" xmlns="http://www.w3.org/2000/svg">
<rect width="149" height="70" rx="35" fill="#F7F7F7"/>
<g clip-path="url(#clip0_328_1384)">
<path d="M35 65C51.5685 65 65 51.5685 65 35C65 18.4315 51.5685 5 35 5C18.4315 5 5 18.4315 5 35C5 51.5685 18.4315 65 35 65Z" fill="#F0F0F0"/>
<path d="M64.7461 31.0868H28.4784L28.4783 5.71289C25.7059 6.32766 23.0775 7.3241 20.6521 8.6475V31.0866V31.0867H5.25395C5.08695 32.3677 5 33.6736 5 34.9998C5 36.326 5.08695 37.6319 5.25395 38.9128H20.652H20.6521V61.352C23.0775 62.6753 25.7059 63.6719 28.4783 64.2866V38.9132V38.9129H64.7461C64.9128 37.632 65 36.326 65 34.9998C65 33.6736 64.9128 32.3677 64.7461 31.0868Z" fill="#0052B4"/>
</g>
<path d="M76.136 41V29.8H83V31.4H78.136V41H76.136ZM76.2 35.816V34.2H82.52V35.816H76.2ZM84.2893 41V32.104H86.1613V41H84.2893ZM85.2013 30.792C84.8493 30.792 84.5613 30.68 84.3372 30.456C84.1239 30.232 84.0173 29.9653 84.0173 29.656C84.0173 29.3573 84.1239 29.1013 84.3372 28.888C84.5613 28.664 84.8493 28.552 85.2013 28.552C85.5639 28.552 85.8519 28.664 86.0653 28.888C86.2893 29.1013 86.4013 29.3573 86.4013 29.656C86.4013 29.976 86.2893 30.248 86.0653 30.472C85.8413 30.6853 85.5533 30.792 85.2013 30.792ZM93.8629 41V35.72C93.8629 34.2373 93.2442 33.496 92.0069 33.496C91.3562 33.496 90.8442 33.7147 90.4709 34.152C90.1082 34.5787 89.9269 35.208 89.9269 36.04L89.8309 34.264C89.8735 33.5173 90.1562 32.936 90.6789 32.52C91.2015 32.104 91.8575 31.896 92.6469 31.896C93.7135 31.896 94.4922 32.2053 94.9829 32.824C95.4842 33.4427 95.7349 34.2907 95.7349 35.368V41H93.8629ZM88.0549 41V32.088H89.9269V41H88.0549ZM99.62 41C98.9373 41 98.4147 40.8187 98.052 40.456C97.6893 40.0933 97.508 39.576 97.508 38.904V28.84H99.396V38.76C99.396 39.24 99.636 39.48 100.116 39.48H100.804V41H99.62ZM106.853 41V34.92C106.853 34.408 106.704 34.0347 106.405 33.8C106.107 33.5653 105.733 33.448 105.285 33.448C104.773 33.448 104.32 33.576 103.925 33.832C103.531 34.088 103.237 34.4027 103.045 34.776L101.765 33.624C102.171 33.016 102.693 32.5733 103.333 32.296C103.984 32.008 104.672 31.864 105.397 31.864C106.091 31.864 106.683 31.9707 107.173 32.184C107.675 32.3973 108.059 32.7333 108.325 33.192C108.603 33.6507 108.741 34.2533 108.741 35V41H106.853ZM104.341 41.176C103.477 41.176 102.811 40.9413 102.341 40.472C101.872 39.992 101.637 39.3733 101.637 38.616C101.637 37.8053 101.904 37.1653 102.437 36.696C102.981 36.216 103.797 35.8853 104.885 35.704L107.061 35.32V36.728L105.077 37.08C104.555 37.1867 104.165 37.352 103.909 37.576C103.664 37.8 103.541 38.0987 103.541 38.472C103.541 38.8987 103.669 39.208 103.925 39.4C104.192 39.592 104.512 39.688 104.885 39.688C105.504 39.688 105.984 39.4693 106.325 39.032C106.677 38.584 106.853 37.9493 106.853 37.128L106.965 38.504C106.976 39.336 106.752 39.992 106.293 40.472C105.845 40.9413 105.195 41.176 104.341 41.176ZM116.363 41V35.72C116.363 34.2373 115.744 33.496 114.507 33.496C113.856 33.496 113.344 33.7147 112.971 34.152C112.608 34.5787 112.427 35.208 112.427 36.04L112.331 34.264C112.374 33.5173 112.656 32.936 113.179 32.52C113.702 32.104 114.358 31.896 115.147 31.896C116.214 31.896 116.992 32.2053 117.483 32.824C117.984 33.4427 118.235 34.2907 118.235 35.368V41H116.363ZM110.555 41V32.088H112.427V41H110.555ZM123.269 41.24C122.597 41.24 121.979 41.0693 121.413 40.728C120.859 40.376 120.416 39.8533 120.085 39.16C119.755 38.4667 119.589 37.592 119.589 36.536C119.589 35.4907 119.755 34.6213 120.085 33.928C120.416 33.2347 120.859 32.7173 121.413 32.376C121.979 32.0347 122.597 31.864 123.269 31.864C123.781 31.864 124.245 31.976 124.661 32.2C125.077 32.4133 125.413 32.728 125.669 33.144C125.925 33.56 126.069 34.0613 126.101 34.648L126.965 36.536L126.101 38.44C126.069 39.016 125.925 39.5173 125.669 39.944C125.413 40.36 125.077 40.68 124.661 40.904C124.245 41.128 123.781 41.24 123.269 41.24ZM123.765 39.592C124.245 39.592 124.64 39.4587 124.949 39.192C125.269 38.9253 125.504 38.5627 125.653 38.104C125.813 37.6453 125.893 37.1227 125.893 36.536C125.893 35.96 125.819 35.4427 125.669 34.984C125.52 34.5253 125.285 34.1627 124.965 33.896C124.645 33.6293 124.245 33.496 123.765 33.496C123.029 33.496 122.464 33.7627 122.069 34.296C121.685 34.8293 121.493 35.576 121.493 36.536C121.493 37.4853 121.685 38.232 122.069 38.776C122.453 39.32 123.019 39.592 123.765 39.592ZM125.893 41V38.344V34.792V28.856H127.765V41H125.893Z" fill="#1F1F1F"/>
<defs>
<clipPath id="clip0_328_1384">
<rect width="60" height="60" fill="white" transform="translate(5 5)"/>
</clipPath>
</defs>
</svg>
