<svg width="145" height="70" viewBox="0 0 145 70" fill="none" xmlns="http://www.w3.org/2000/svg">
<rect width="145" height="70" rx="35" fill="#F7F7F7"/>
<g clip-path="url(#clip0_328_1415)">
<path d="M35 65C51.5685 65 65 51.5685 65 35C65 18.4315 51.5685 5 35 5C18.4315 5 5 18.4315 5 35C5 51.5685 18.4315 65 35 65Z" fill="#F0F0F0"/>
<path d="M65.0001 35.0002C65.0001 22.1013 56.8588 11.105 45.4348 6.86621V63.1344C56.8588 58.8955 65.0001 47.8992 65.0001 35.0002Z" fill="#D80027"/>
<path d="M5 35.0002C5 47.8992 13.1414 58.8955 24.5653 63.1343V6.86621C13.1414 11.105 5 22.1013 5 35.0002Z" fill="#0052B4"/>
</g>
<path d="M76.136 41V29.8H83V31.4H78.136V41H76.136ZM76.2 35.816V34.2H82.52V35.816H76.2ZM84.0705 41V32.104H85.9425V41H84.0705ZM85.9425 36.248L85.8465 34.104C85.9212 33.4 86.1292 32.8827 86.4705 32.552C86.8118 32.2213 87.3185 32.056 87.9905 32.056H88.7745V33.864H87.8625C87.1585 33.864 86.6625 34.0453 86.3745 34.408C86.0865 34.76 85.9425 35.3733 85.9425 36.248ZM94.6034 41V34.92C94.6034 34.408 94.454 34.0347 94.1554 33.8C93.8567 33.5653 93.4834 33.448 93.0354 33.448C92.5234 33.448 92.07 33.576 91.6754 33.832C91.2807 34.088 90.9874 34.4027 90.7954 34.776L89.5154 33.624C89.9207 33.016 90.4434 32.5733 91.0834 32.296C91.734 32.008 92.422 31.864 93.1474 31.864C93.8407 31.864 94.4327 31.9707 94.9234 32.184C95.4247 32.3973 95.8087 32.7333 96.0754 33.192C96.3527 33.6507 96.4914 34.2533 96.4914 35V41H94.6034ZM92.0914 41.176C91.2274 41.176 90.5607 40.9413 90.0914 40.472C89.622 39.992 89.3874 39.3733 89.3874 38.616C89.3874 37.8053 89.654 37.1653 90.1874 36.696C90.7314 36.216 91.5474 35.8853 92.6354 35.704L94.8114 35.32V36.728L92.8274 37.08C92.3047 37.1867 91.9154 37.352 91.6594 37.576C91.414 37.8 91.2914 38.0987 91.2914 38.472C91.2914 38.8987 91.4194 39.208 91.6754 39.4C91.942 39.592 92.262 39.688 92.6354 39.688C93.254 39.688 93.734 39.4693 94.0754 39.032C94.4274 38.584 94.6034 37.9493 94.6034 37.128L94.7154 38.504C94.726 39.336 94.502 39.992 94.0434 40.472C93.5954 40.9413 92.9447 41.176 92.0914 41.176ZM104.113 41V35.72C104.113 34.2373 103.494 33.496 102.257 33.496C101.606 33.496 101.094 33.7147 100.721 34.152C100.358 34.5787 100.177 35.208 100.177 36.04L100.081 34.264C100.124 33.5173 100.406 32.936 100.929 32.52C101.452 32.104 102.108 31.896 102.897 31.896C103.964 31.896 104.742 32.2053 105.233 32.824C105.734 33.4427 105.985 34.2907 105.985 35.368V41H104.113ZM98.3049 41V32.088H100.177V41H98.3049ZM111.404 41.208C110.572 41.208 109.852 41.0107 109.244 40.616C108.636 40.2213 108.167 39.672 107.836 38.968C107.516 38.264 107.356 37.448 107.356 36.52C107.356 35.5813 107.516 34.7653 107.836 34.072C108.167 33.368 108.631 32.824 109.228 32.44C109.836 32.056 110.561 31.864 111.404 31.864C112.012 31.864 112.577 31.9653 113.1 32.168C113.623 32.36 114.055 32.6693 114.396 33.096C114.748 33.512 114.972 34.0667 115.068 34.76L113.26 35.192C113.153 34.5627 112.935 34.12 112.604 33.864C112.284 33.5973 111.873 33.464 111.372 33.464C110.711 33.464 110.188 33.7253 109.804 34.248C109.431 34.76 109.244 35.5173 109.244 36.52C109.244 37.5333 109.431 38.3013 109.804 38.824C110.177 39.3467 110.7 39.608 111.372 39.608C111.852 39.608 112.263 39.4747 112.604 39.208C112.945 38.9413 113.164 38.4987 113.26 37.88L115.068 38.28C114.94 38.9733 114.7 39.5333 114.348 39.96C113.996 40.3867 113.569 40.7013 113.068 40.904C112.567 41.1067 112.012 41.208 111.404 41.208ZM120.154 41.224C119.301 41.224 118.57 41.0267 117.962 40.632C117.365 40.2373 116.906 39.6827 116.586 38.968C116.266 38.2427 116.106 37.4 116.106 36.44C116.106 35.5013 116.271 34.6907 116.602 34.008C116.933 33.3253 117.402 32.7973 118.01 32.424C118.618 32.0507 119.317 31.864 120.106 31.864C120.842 31.864 121.493 32.024 122.058 32.344C122.623 32.664 123.066 33.1547 123.386 33.816C123.706 34.4667 123.866 35.2933 123.866 36.296V36.936H117.21V35.608H122.234L121.866 35.816C121.877 35.752 121.882 35.6827 121.882 35.608C121.882 35.5333 121.882 35.464 121.882 35.4C121.882 34.8133 121.733 34.3387 121.434 33.976C121.135 33.6027 120.671 33.416 120.042 33.416C119.423 33.416 118.927 33.6347 118.554 34.072C118.191 34.5093 118.01 35.2667 118.01 36.344C118.01 37.496 118.17 38.3387 118.49 38.872C118.821 39.4053 119.375 39.672 120.154 39.672C120.623 39.672 121.034 39.5547 121.386 39.32C121.738 39.0747 121.978 38.6533 122.106 38.056L123.786 38.52C123.605 39.2667 123.317 39.8373 122.922 40.232C122.527 40.616 122.085 40.8773 121.594 41.016C121.103 41.1547 120.623 41.224 120.154 41.224Z" fill="#1F1F1F"/>
<defs>
<clipPath id="clip0_328_1415">
<rect width="60" height="60" fill="white" transform="translate(5 5)"/>
</clipPath>
</defs>
</svg>
