<svg width="161" height="70" viewBox="0 0 161 70" fill="none" xmlns="http://www.w3.org/2000/svg">
<rect width="161" height="70" rx="35" fill="#F7F7F7"/>
<g clip-path="url(#clip0_328_121)">
<path d="M6.86597 45.4348C11.1048 56.8587 22.101 65 35 65C47.8989 65 58.8952 56.8587 63.134 45.4348L35 42.8262L6.86597 45.4348Z" fill="#FFDA44"/>
<path d="M35 5C22.101 5 11.1048 13.1412 6.86597 24.5653L35 27.1739L63.134 24.5652C58.8952 13.1412 47.8989 5 35 5Z" fill="black"/>
<path d="M6.86598 24.5654C5.66012 27.8154 5 31.3305 5 35.0002C5 38.6698 5.66012 42.1849 6.86598 45.4349H63.1341C64.34 42.1849 65 38.6698 65 35.0002C65 31.3305 64.34 27.8154 63.134 24.5654H6.86598Z" fill="#D80027"/>
</g>
<path d="M80.328 41.192C79.2507 41.192 78.3653 40.9467 77.672 40.456C76.9787 39.9547 76.4667 39.272 76.136 38.408C75.816 37.5333 75.656 36.5253 75.656 35.384C75.656 34.2427 75.8267 33.24 76.168 32.376C76.52 31.5013 77.0427 30.8187 77.736 30.328C78.44 29.8267 79.304 29.576 80.328 29.576C80.936 29.576 81.5227 29.6827 82.088 29.896C82.6533 30.1093 83.144 30.4507 83.56 30.92C83.976 31.3893 84.264 31.9973 84.424 32.744L82.536 33.176C82.4187 32.4827 82.1573 31.976 81.752 31.656C81.3573 31.336 80.8827 31.176 80.328 31.176C79.3573 31.176 78.6693 31.5227 78.264 32.216C77.8587 32.9093 77.656 33.9653 77.656 35.384C77.656 36.792 77.8587 37.8427 78.264 38.536C78.68 39.2293 79.352 39.576 80.28 39.576C80.8453 39.576 81.2987 39.4427 81.64 39.176C81.992 38.9093 82.2427 38.52 82.392 38.008C82.552 37.4853 82.632 36.8347 82.632 36.056H79.736V34.44H84.664C84.664 34.6107 84.664 34.776 84.664 34.936C84.664 35.096 84.664 35.256 84.664 35.416C84.664 36.248 84.5947 37.016 84.456 37.72C84.3173 38.424 84.0827 39.0373 83.752 39.56C83.432 40.0827 82.9893 40.488 82.424 40.776C81.8693 41.0533 81.1707 41.192 80.328 41.192ZM89.8729 41.224C89.0195 41.224 88.2889 41.0267 87.6809 40.632C87.0835 40.2373 86.6249 39.6827 86.3049 38.968C85.9849 38.2427 85.8249 37.4 85.8249 36.44C85.8249 35.5013 85.9902 34.6907 86.3209 34.008C86.6515 33.3253 87.1209 32.7973 87.7289 32.424C88.3369 32.0507 89.0355 31.864 89.8249 31.864C90.5609 31.864 91.2115 32.024 91.7769 32.344C92.3422 32.664 92.7849 33.1547 93.1049 33.816C93.4249 34.4667 93.5849 35.2933 93.5849 36.296V36.936H86.9289V35.608H91.9529L91.5849 35.816C91.5955 35.752 91.6009 35.6827 91.6009 35.608C91.6009 35.5333 91.6009 35.464 91.6009 35.4C91.6009 34.8133 91.4515 34.3387 91.1529 33.976C90.8542 33.6027 90.3902 33.416 89.7609 33.416C89.1422 33.416 88.6462 33.6347 88.2729 34.072C87.9102 34.5093 87.7289 35.2667 87.7289 36.344C87.7289 37.496 87.8889 38.3387 88.2089 38.872C88.5395 39.4053 89.0942 39.672 89.8729 39.672C90.3422 39.672 90.7529 39.5547 91.1049 39.32C91.4569 39.0747 91.6969 38.6533 91.8249 38.056L93.5049 38.52C93.3235 39.2667 93.0355 39.8373 92.6409 40.232C92.2462 40.616 91.8035 40.8773 91.3129 41.016C90.8222 41.1547 90.3422 41.224 89.8729 41.224ZM94.9611 41V32.104H96.8331V41H94.9611ZM96.8331 36.248L96.7371 34.104C96.8118 33.4 97.0198 32.8827 97.3611 32.552C97.7025 32.2213 98.2091 32.056 98.8811 32.056H99.6651V33.864H98.7531C98.0491 33.864 97.5531 34.0453 97.2651 34.408C96.9771 34.76 96.8331 35.3733 96.8331 36.248ZM110.881 41V35.24C110.881 34.6427 110.753 34.1947 110.497 33.896C110.241 33.5867 109.878 33.432 109.409 33.432C108.908 33.432 108.513 33.592 108.225 33.912C107.937 34.2213 107.793 34.6693 107.793 35.256L107.489 33.896C107.585 33.288 107.857 32.7973 108.305 32.424C108.753 32.0507 109.329 31.864 110.033 31.864C110.908 31.864 111.58 32.12 112.049 32.632C112.518 33.1333 112.753 33.9013 112.753 34.936V41H110.881ZM100.961 41V32.088H102.833V41H100.961ZM105.921 41V35.24C105.921 34.6427 105.793 34.1947 105.537 33.896C105.292 33.5867 104.924 33.432 104.433 33.432C103.942 33.432 103.553 33.592 103.265 33.912C102.977 34.2213 102.833 34.6693 102.833 35.256L102.705 33.912C102.726 33.336 102.956 32.8507 103.393 32.456C103.841 32.0613 104.433 31.864 105.169 31.864C106.012 31.864 106.657 32.12 107.105 32.632C107.564 33.1333 107.793 33.9013 107.793 34.936V41H105.921ZM119.338 41V34.92C119.338 34.408 119.188 34.0347 118.89 33.8C118.591 33.5653 118.218 33.448 117.77 33.448C117.258 33.448 116.804 33.576 116.41 33.832C116.015 34.088 115.722 34.4027 115.53 34.776L114.25 33.624C114.655 33.016 115.178 32.5733 115.818 32.296C116.468 32.008 117.156 31.864 117.882 31.864C118.575 31.864 119.167 31.9707 119.658 32.184C120.159 32.3973 120.543 32.7333 120.81 33.192C121.087 33.6507 121.226 34.2533 121.226 35V41H119.338ZM116.826 41.176C115.962 41.176 115.295 40.9413 114.826 40.472C114.356 39.992 114.122 39.3733 114.122 38.616C114.122 37.8053 114.388 37.1653 114.922 36.696C115.466 36.216 116.282 35.8853 117.37 35.704L119.546 35.32V36.728L117.562 37.08C117.039 37.1867 116.65 37.352 116.394 37.576C116.148 37.8 116.026 38.0987 116.026 38.472C116.026 38.8987 116.154 39.208 116.41 39.4C116.676 39.592 116.996 39.688 117.37 39.688C117.988 39.688 118.468 39.4693 118.81 39.032C119.162 38.584 119.338 37.9493 119.338 37.128L119.45 38.504C119.46 39.336 119.236 39.992 118.778 40.472C118.33 40.9413 117.679 41.176 116.826 41.176ZM128.847 41V35.72C128.847 34.2373 128.229 33.496 126.991 33.496C126.341 33.496 125.829 33.7147 125.455 34.152C125.093 34.5787 124.911 35.208 124.911 36.04L124.815 34.264C124.858 33.5173 125.141 32.936 125.663 32.52C126.186 32.104 126.842 31.896 127.631 31.896C128.698 31.896 129.477 32.2053 129.967 32.824C130.469 33.4427 130.719 34.2907 130.719 35.368V41H128.847ZM123.039 41V32.088H124.911V41H123.039ZM131.814 44.44V42.84H133.254C133.606 42.84 133.878 42.76 134.07 42.6C134.262 42.4507 134.411 42.2053 134.518 41.864L137.734 32.104H139.718L136.038 42.648C135.878 43.096 135.691 43.448 135.478 43.704C135.264 43.9707 134.987 44.1573 134.646 44.264C134.304 44.3813 133.862 44.44 133.318 44.44H131.814ZM134.902 41.432L131.494 32.104H133.478L136.198 40.024L136.134 41.432H134.902Z" fill="#1F1F1F"/>
<defs>
<clipPath id="clip0_328_121">
<rect width="60" height="60" fill="white" transform="translate(5 5)"/>
</clipPath>
</defs>
</svg>
