<svg width="147" height="70" viewBox="0 0 147 70" fill="none" xmlns="http://www.w3.org/2000/svg">
<rect width="147" height="70" rx="35" fill="#F7F7F7"/>
<g clip-path="url(#clip0_328_189)">
<path d="M35 65C51.5685 65 65 51.5685 65 35C65 18.4315 51.5685 5 35 5C18.4315 5 5 18.4315 5 35C5 51.5685 18.4315 65 35 65Z" fill="#F0F0F0"/>
<path d="M35 27.1738H63.9665C63.2143 24.3831 62.071 21.7533 60.5968 19.3477H35V27.1738Z" fill="#338AF3"/>
<path d="M16.3255 58.4785H53.6747C56.4125 56.2979 58.7605 53.6492 60.5968 50.6523H9.40332C11.2398 53.6491 13.5877 56.2979 16.3255 58.4785Z" fill="#338AF3"/>
<path d="M15.4348 12.2583C13.0763 14.2893 11.0374 16.681 9.40332 19.3477H15.4348V12.2583Z" fill="#338AF3"/>
<path d="M35 35C35 31.9442 35 29.3868 35 27.1738H23.2609V35H15.4347V27.1738H6.03348C5.36094 29.6692 5 32.2921 5 35C5 37.7078 5.36094 40.3307 6.03348 42.8261H63.9666C64.6391 40.3307 65 37.7078 65 35H35Z" fill="#338AF3"/>
<path d="M34.9999 5C30.834 5 26.8666 5.84996 23.2607 7.38453V19.3479H34.9999C34.9999 16.616 34.9999 14.2925 34.9999 11.5217H53.6745C48.5498 7.44031 42.0603 5 34.9999 5Z" fill="#338AF3"/>
</g>
<path d="M80.328 41.192C79.2507 41.192 78.3653 40.9467 77.672 40.456C76.9787 39.9547 76.4667 39.272 76.136 38.408C75.816 37.5333 75.656 36.5253 75.656 35.384C75.656 34.2427 75.8267 33.24 76.168 32.376C76.52 31.5013 77.0427 30.8187 77.736 30.328C78.44 29.8267 79.304 29.576 80.328 29.576C80.936 29.576 81.5227 29.6827 82.088 29.896C82.6533 30.1093 83.144 30.4507 83.56 30.92C83.976 31.3893 84.264 31.9973 84.424 32.744L82.536 33.176C82.4187 32.4827 82.1573 31.976 81.752 31.656C81.3573 31.336 80.8827 31.176 80.328 31.176C79.3573 31.176 78.6693 31.5227 78.264 32.216C77.8587 32.9093 77.656 33.9653 77.656 35.384C77.656 36.792 77.8587 37.8427 78.264 38.536C78.68 39.2293 79.352 39.576 80.28 39.576C80.8453 39.576 81.2987 39.4427 81.64 39.176C81.992 38.9093 82.2427 38.52 82.392 38.008C82.552 37.4853 82.632 36.8347 82.632 36.056H79.736V34.44H84.664C84.664 34.6107 84.664 34.776 84.664 34.936C84.664 35.096 84.664 35.256 84.664 35.416C84.664 36.248 84.5947 37.016 84.456 37.72C84.3173 38.424 84.0827 39.0373 83.752 39.56C83.432 40.0827 82.9893 40.488 82.424 40.776C81.8693 41.0533 81.1707 41.192 80.328 41.192ZM86.1174 41V32.104H87.9894V41H86.1174ZM87.9894 36.248L87.8934 34.104C87.968 33.4 88.176 32.8827 88.5174 32.552C88.8587 32.2213 89.3654 32.056 90.0374 32.056H90.8214V33.864H89.9094C89.2054 33.864 88.7094 34.0453 88.4214 34.408C88.1334 34.76 87.9894 35.3733 87.9894 36.248ZM95.4198 41.224C94.5664 41.224 93.8358 41.0267 93.2278 40.632C92.6304 40.2373 92.1718 39.6827 91.8518 38.968C91.5318 38.2427 91.3717 37.4 91.3717 36.44C91.3717 35.5013 91.5371 34.6907 91.8678 34.008C92.1984 33.3253 92.6678 32.7973 93.2758 32.424C93.8838 32.0507 94.5824 31.864 95.3718 31.864C96.1078 31.864 96.7584 32.024 97.3238 32.344C97.8891 32.664 98.3318 33.1547 98.6518 33.816C98.9718 34.4667 99.1318 35.2933 99.1318 36.296V36.936H92.4758V35.608H97.4998L97.1318 35.816C97.1424 35.752 97.1478 35.6827 97.1478 35.608C97.1478 35.5333 97.1478 35.464 97.1478 35.4C97.1478 34.8133 96.9984 34.3387 96.6998 33.976C96.4011 33.6027 95.9371 33.416 95.3078 33.416C94.6891 33.416 94.1931 33.6347 93.8198 34.072C93.4571 34.5093 93.2758 35.2667 93.2758 36.344C93.2758 37.496 93.4358 38.3387 93.7558 38.872C94.0864 39.4053 94.6411 39.672 95.4198 39.672C95.8891 39.672 96.2998 39.5547 96.6518 39.32C97.0038 39.0747 97.2438 38.6533 97.3718 38.056L99.0518 38.52C98.8704 39.2667 98.5824 39.8373 98.1878 40.232C97.7931 40.616 97.3504 40.8773 96.8598 41.016C96.3691 41.1547 95.8891 41.224 95.4198 41.224ZM104.264 41.224C103.41 41.224 102.68 41.0267 102.072 40.632C101.474 40.2373 101.016 39.6827 100.696 38.968C100.376 38.2427 100.215 37.4 100.215 36.44C100.215 35.5013 100.381 34.6907 100.712 34.008C101.042 33.3253 101.512 32.7973 102.12 32.424C102.728 32.0507 103.426 31.864 104.216 31.864C104.952 31.864 105.602 32.024 106.168 32.344C106.733 32.664 107.176 33.1547 107.496 33.816C107.816 34.4667 107.976 35.2933 107.976 36.296V36.936H101.32V35.608H106.344L105.976 35.816C105.986 35.752 105.992 35.6827 105.992 35.608C105.992 35.5333 105.992 35.464 105.992 35.4C105.992 34.8133 105.842 34.3387 105.544 33.976C105.245 33.6027 104.781 33.416 104.152 33.416C103.533 33.416 103.037 33.6347 102.664 34.072C102.301 34.5093 102.12 35.2667 102.12 36.344C102.12 37.496 102.28 38.3387 102.6 38.872C102.93 39.4053 103.485 39.672 104.264 39.672C104.733 39.672 105.144 39.5547 105.496 39.32C105.848 39.0747 106.088 38.6533 106.216 38.056L107.896 38.52C107.714 39.2667 107.426 39.8373 107.032 40.232C106.637 40.616 106.194 40.8773 105.704 41.016C105.213 41.1547 104.733 41.224 104.264 41.224ZM113.107 41.208C112.275 41.208 111.555 41.0107 110.947 40.616C110.339 40.2213 109.87 39.672 109.539 38.968C109.219 38.264 109.059 37.448 109.059 36.52C109.059 35.5813 109.219 34.7653 109.539 34.072C109.87 33.368 110.334 32.824 110.931 32.44C111.539 32.056 112.265 31.864 113.107 31.864C113.715 31.864 114.281 31.9653 114.803 32.168C115.326 32.36 115.758 32.6693 116.099 33.096C116.451 33.512 116.675 34.0667 116.771 34.76L114.963 35.192C114.857 34.5627 114.638 34.12 114.307 33.864C113.987 33.5973 113.577 33.464 113.075 33.464C112.414 33.464 111.891 33.7253 111.507 34.248C111.134 34.76 110.947 35.5173 110.947 36.52C110.947 37.5333 111.134 38.3013 111.507 38.824C111.881 39.3467 112.403 39.608 113.075 39.608C113.555 39.608 113.966 39.4747 114.307 39.208C114.649 38.9413 114.867 38.4987 114.963 37.88L116.771 38.28C116.643 38.9733 116.403 39.5333 116.051 39.96C115.699 40.3867 115.273 40.7013 114.771 40.904C114.27 41.1067 113.715 41.208 113.107 41.208ZM121.857 41.224C121.004 41.224 120.273 41.0267 119.665 40.632C119.068 40.2373 118.609 39.6827 118.289 38.968C117.969 38.2427 117.809 37.4 117.809 36.44C117.809 35.5013 117.975 34.6907 118.305 34.008C118.636 33.3253 119.105 32.7973 119.713 32.424C120.321 32.0507 121.02 31.864 121.809 31.864C122.545 31.864 123.196 32.024 123.761 32.344C124.327 32.664 124.769 33.1547 125.089 33.816C125.409 34.4667 125.569 35.2933 125.569 36.296V36.936H118.913V35.608H123.937L123.569 35.816C123.58 35.752 123.585 35.6827 123.585 35.608C123.585 35.5333 123.585 35.464 123.585 35.4C123.585 34.8133 123.436 34.3387 123.137 33.976C122.839 33.6027 122.375 33.416 121.745 33.416C121.127 33.416 120.631 33.6347 120.257 34.072C119.895 34.5093 119.713 35.2667 119.713 36.344C119.713 37.496 119.873 38.3387 120.193 38.872C120.524 39.4053 121.079 39.672 121.857 39.672C122.327 39.672 122.737 39.5547 123.089 39.32C123.441 39.0747 123.681 38.6533 123.809 38.056L125.489 38.52C125.308 39.2667 125.02 39.8373 124.625 40.232C124.231 40.616 123.788 40.8773 123.297 41.016C122.807 41.1547 122.327 41.224 121.857 41.224Z" fill="#1F1F1F"/>
<defs>
<clipPath id="clip0_328_189">
<rect width="60" height="60" fill="white" transform="translate(5 5)"/>
</clipPath>
</defs>
</svg>
