<svg width="149" height="70" viewBox="0 0 149 70" fill="none" xmlns="http://www.w3.org/2000/svg">
<rect width="149" height="70" rx="35" fill="#F7F7F7"/>
<g clip-path="url(#clip0_328_1457)">
<path d="M35 65C51.5685 65 65 51.5685 65 35C65 18.4315 51.5685 5 35 5C18.4315 5 5 18.4315 5 35C5 51.5685 18.4315 65 35 65Z" fill="#F0F0F0"/>
<path d="M6.03345 42.8262C7.76923 49.2667 11.5948 54.8488 16.7391 58.8014V42.8262H6.03345Z" fill="#0052B4"/>
<path d="M32.3914 64.8859C33.2513 64.96 34.1209 65 35.0001 65C48.8609 65 60.5241 55.5991 63.9666 42.8262H32.3914V64.8859Z" fill="#0052B4"/>
<path d="M63.9666 27.1739C60.5241 14.4009 48.8609 5 35.0001 5C34.1209 5 33.2513 5.04008 32.3914 5.11414V27.1739H63.9666Z" fill="#0052B4"/>
<path d="M16.7391 11.1987C11.5948 15.1515 7.76923 20.7335 6.03345 27.174H16.7391V11.1987Z" fill="#0052B4"/>
<path d="M64.7461 31.0868H28.4784L28.4783 5.71289C25.7059 6.32766 23.0775 7.3241 20.6521 8.6475V31.0867H5.25395C5.08695 32.3677 5 33.6736 5 34.9998C5 36.326 5.08695 37.6319 5.25395 38.9128H20.652H20.6521V61.352C23.0775 62.6753 25.7059 63.6719 28.4783 64.2866V38.9132V38.9129H64.7461C64.9128 37.632 65 36.326 65 34.9998C65 33.6736 64.9128 32.3677 64.7461 31.0868Z" fill="#D80027"/>
</g>
<path d="M76.136 41V29.8H78.136V41H76.136ZM83.6541 41.208C82.8221 41.208 82.1021 41.0107 81.4941 40.616C80.8861 40.2213 80.4168 39.672 80.0861 38.968C79.7661 38.264 79.6061 37.448 79.6061 36.52C79.6061 35.5813 79.7661 34.7653 80.0861 34.072C80.4168 33.368 80.8808 32.824 81.4781 32.44C82.0861 32.056 82.8115 31.864 83.6541 31.864C84.2621 31.864 84.8275 31.9653 85.3501 32.168C85.8728 32.36 86.3048 32.6693 86.6461 33.096C86.9981 33.512 87.2221 34.0667 87.3181 34.76L85.5101 35.192C85.4035 34.5627 85.1848 34.12 84.8541 33.864C84.5341 33.5973 84.1235 33.464 83.6221 33.464C82.9608 33.464 82.4381 33.7253 82.0541 34.248C81.6808 34.76 81.4941 35.5173 81.4941 36.52C81.4941 37.5333 81.6808 38.3013 82.0541 38.824C82.4275 39.3467 82.9501 39.608 83.6221 39.608C84.1021 39.608 84.5128 39.4747 84.8541 39.208C85.1955 38.9413 85.4141 38.4987 85.5101 37.88L87.3181 38.28C87.1901 38.9733 86.9501 39.5333 86.5981 39.96C86.2461 40.3867 85.8195 40.7013 85.3181 40.904C84.8168 41.1067 84.2621 41.208 83.6541 41.208ZM92.4041 41.224C91.5508 41.224 90.8201 41.0267 90.2121 40.632C89.6148 40.2373 89.1561 39.6827 88.8361 38.968C88.5161 38.2427 88.3561 37.4 88.3561 36.44C88.3561 35.5013 88.5215 34.6907 88.8521 34.008C89.1828 33.3253 89.6521 32.7973 90.2601 32.424C90.8681 32.0507 91.5668 31.864 92.3561 31.864C93.0921 31.864 93.7428 32.024 94.3081 32.344C94.8735 32.664 95.3161 33.1547 95.6361 33.816C95.9561 34.4667 96.1161 35.2933 96.1161 36.296V36.936H89.4601V35.608H94.4841L94.1161 35.816C94.1268 35.752 94.1321 35.6827 94.1321 35.608C94.1321 35.5333 94.1321 35.464 94.1321 35.4C94.1321 34.8133 93.9828 34.3387 93.6841 33.976C93.3855 33.6027 92.9215 33.416 92.2921 33.416C91.6735 33.416 91.1775 33.6347 90.8041 34.072C90.4415 34.5093 90.2601 35.2667 90.2601 36.344C90.2601 37.496 90.4201 38.3387 90.7401 38.872C91.0708 39.4053 91.6255 39.672 92.4041 39.672C92.8735 39.672 93.2841 39.5547 93.6361 39.32C93.9881 39.0747 94.2281 38.6533 94.3561 38.056L96.0361 38.52C95.8548 39.2667 95.5668 39.8373 95.1721 40.232C94.7775 40.616 94.3348 40.8773 93.8441 41.016C93.3535 41.1547 92.8735 41.224 92.4041 41.224ZM99.6044 41C98.9217 41 98.399 40.8187 98.0364 40.456C97.6737 40.0933 97.4924 39.576 97.4924 38.904V28.84H99.3804V38.76C99.3804 39.24 99.6204 39.48 100.1 39.48H100.788V41H99.6044ZM106.838 41V34.92C106.838 34.408 106.688 34.0347 106.39 33.8C106.091 33.5653 105.718 33.448 105.27 33.448C104.758 33.448 104.304 33.576 103.91 33.832C103.515 34.088 103.222 34.4027 103.03 34.776L101.75 33.624C102.155 33.016 102.678 32.5733 103.318 32.296C103.968 32.008 104.656 31.864 105.382 31.864C106.075 31.864 106.667 31.9707 107.158 32.184C107.659 32.3973 108.043 32.7333 108.31 33.192C108.587 33.6507 108.726 34.2533 108.726 35V41H106.838ZM104.326 41.176C103.462 41.176 102.795 40.9413 102.326 40.472C101.856 39.992 101.622 39.3733 101.622 38.616C101.622 37.8053 101.888 37.1653 102.422 36.696C102.966 36.216 103.782 35.8853 104.87 35.704L107.046 35.32V36.728L105.062 37.08C104.539 37.1867 104.15 37.352 103.894 37.576C103.648 37.8 103.526 38.0987 103.526 38.472C103.526 38.8987 103.654 39.208 103.91 39.4C104.176 39.592 104.496 39.688 104.87 39.688C105.488 39.688 105.968 39.4693 106.31 39.032C106.662 38.584 106.838 37.9493 106.838 37.128L106.95 38.504C106.96 39.336 106.736 39.992 106.278 40.472C105.83 40.9413 105.179 41.176 104.326 41.176ZM116.347 41V35.72C116.347 34.2373 115.729 33.496 114.491 33.496C113.841 33.496 113.329 33.7147 112.955 34.152C112.593 34.5787 112.411 35.208 112.411 36.04L112.315 34.264C112.358 33.5173 112.641 32.936 113.163 32.52C113.686 32.104 114.342 31.896 115.131 31.896C116.198 31.896 116.977 32.2053 117.467 32.824C117.969 33.4427 118.219 34.2907 118.219 35.368V41H116.347ZM110.539 41V32.088H112.411V41H110.539ZM123.254 41.24C122.582 41.24 121.963 41.0693 121.398 40.728C120.843 40.376 120.4 39.8533 120.07 39.16C119.739 38.4667 119.574 37.592 119.574 36.536C119.574 35.4907 119.739 34.6213 120.07 33.928C120.4 33.2347 120.843 32.7173 121.398 32.376C121.963 32.0347 122.582 31.864 123.254 31.864C123.766 31.864 124.23 31.976 124.646 32.2C125.062 32.4133 125.398 32.728 125.654 33.144C125.91 33.56 126.054 34.0613 126.086 34.648L126.95 36.536L126.086 38.44C126.054 39.016 125.91 39.5173 125.654 39.944C125.398 40.36 125.062 40.68 124.646 40.904C124.23 41.128 123.766 41.24 123.254 41.24ZM123.75 39.592C124.23 39.592 124.624 39.4587 124.934 39.192C125.254 38.9253 125.488 38.5627 125.638 38.104C125.798 37.6453 125.878 37.1227 125.878 36.536C125.878 35.96 125.803 35.4427 125.654 34.984C125.504 34.5253 125.27 34.1627 124.95 33.896C124.63 33.6293 124.23 33.496 123.75 33.496C123.014 33.496 122.448 33.7627 122.054 34.296C121.67 34.8293 121.478 35.576 121.478 36.536C121.478 37.4853 121.67 38.232 122.054 38.776C122.438 39.32 123.003 39.592 123.75 39.592ZM125.878 41V38.344V34.792V28.856H127.75V41H125.878Z" fill="#1F1F1F"/>
<defs>
<clipPath id="clip0_328_1457">
<rect width="60" height="60" fill="white" transform="translate(5 5)"/>
</clipPath>
</defs>
</svg>
