<svg width="124" height="70" viewBox="0 0 124 70" fill="none" xmlns="http://www.w3.org/2000/svg">
<rect width="124" height="70" rx="35" fill="#F7F7F7"/>
<g clip-path="url(#clip0_328_1519)">
<path d="M35 65C51.5685 65 65 51.5685 65 35C65 18.4315 51.5685 5 35 5C18.4315 5 5 18.4315 5 35C5 51.5685 18.4315 65 35 65Z" fill="#F0F0F0"/>
<path d="M35 5C22.101 5 11.1048 13.1412 6.86597 24.5653H63.1341C58.8952 13.1412 47.8989 5 35 5Z" fill="#A2001D"/>
<path d="M35 64.9998C47.8989 64.9998 58.8952 56.8586 63.134 45.4346H6.86597C11.1048 56.8586 22.101 64.9998 35 64.9998Z" fill="black"/>
<path d="M27.8262 33.0434C27.8098 33.0434 27.7938 33.0445 27.7774 33.0447V33.0434H22.0426C22.3333 31.92 23.3526 31.0868 24.5654 31.0868V27.1738C20.9692 27.1738 18.0436 30.0995 18.0436 33.6955V36.8913V36.9565H27.7774H27.8262C28.1859 36.9565 28.4784 37.2491 28.4784 37.6087V38.913H15.4348V42.826H32.3914V37.6086C32.3914 35.0914 30.3434 33.0434 27.8262 33.0434Z" fill="#496E2D"/>
<path d="M37.6088 38.913V27.1738H33.6958V42.8261H40.2175V38.913H37.6088Z" fill="#496E2D"/>
<path d="M50.6522 38.9131V27.1738H46.7392V38.9131H45.4347V35.0001H41.5217V42.8262H53.2609V38.9131H50.6522Z" fill="#496E2D"/>
</g>
<path d="M76.136 41V29.8H78.136V41H76.136ZM80.0705 41V32.104H81.9425V41H80.0705ZM81.9425 36.248L81.8465 34.104C81.9212 33.4 82.1292 32.8827 82.4705 32.552C82.8118 32.2213 83.3185 32.056 83.9905 32.056H84.7745V33.864H83.8625C83.1585 33.864 82.6625 34.0453 82.3745 34.408C82.0865 34.76 81.9425 35.3733 81.9425 36.248ZM90.6034 41V34.92C90.6034 34.408 90.454 34.0347 90.1554 33.8C89.8567 33.5653 89.4834 33.448 89.0354 33.448C88.5234 33.448 88.07 33.576 87.6754 33.832C87.2807 34.088 86.9874 34.4027 86.7954 34.776L85.5154 33.624C85.9207 33.016 86.4434 32.5733 87.0834 32.296C87.734 32.008 88.422 31.864 89.1474 31.864C89.8407 31.864 90.4327 31.9707 90.9234 32.184C91.4247 32.3973 91.8087 32.7333 92.0754 33.192C92.3527 33.6507 92.4914 34.2533 92.4914 35V41H90.6034ZM88.0914 41.176C87.2274 41.176 86.5607 40.9413 86.0914 40.472C85.622 39.992 85.3874 39.3733 85.3874 38.616C85.3874 37.8053 85.654 37.1653 86.1874 36.696C86.7314 36.216 87.5474 35.8853 88.6354 35.704L90.8114 35.32V36.728L88.8274 37.08C88.3047 37.1867 87.9154 37.352 87.6594 37.576C87.414 37.8 87.2914 38.0987 87.2914 38.472C87.2914 38.8987 87.4194 39.208 87.6754 39.4C87.942 39.592 88.262 39.688 88.6354 39.688C89.254 39.688 89.734 39.4693 90.0754 39.032C90.4274 38.584 90.6034 37.9493 90.6034 37.128L90.7154 38.504C90.726 39.336 90.502 39.992 90.0434 40.472C89.5954 40.9413 88.9447 41.176 88.0914 41.176ZM97.5506 41.24C96.8786 41.24 96.26 41.0693 95.6946 40.728C95.14 40.376 94.6973 39.8533 94.3666 39.16C94.036 38.456 93.8706 37.5813 93.8706 36.536C93.8706 35.48 94.036 34.6107 94.3666 33.928C94.6973 33.2347 95.14 32.7173 95.6946 32.376C96.26 32.0347 96.8786 31.864 97.5506 31.864C98.0626 31.864 98.5213 31.976 98.9266 32.2C99.3426 32.4133 99.6786 32.728 99.9346 33.144C100.201 33.56 100.356 34.0613 100.399 34.648L101.231 36.536L100.399 38.44C100.356 39.0267 100.201 39.528 99.9346 39.944C99.6786 40.36 99.3426 40.68 98.9266 40.904C98.5213 41.128 98.0626 41.24 97.5506 41.24ZM98.0306 39.592C98.5213 39.592 98.9213 39.4587 99.2306 39.192C99.5506 38.9253 99.7853 38.5627 99.9346 38.104C100.084 37.6453 100.159 37.1227 100.159 36.536C100.159 35.9493 100.079 35.432 99.9186 34.984C99.7693 34.5253 99.54 34.1627 99.2306 33.896C98.9213 33.6293 98.5213 33.496 98.0306 33.496C97.2946 33.496 96.7293 33.768 96.3346 34.312C95.9506 34.8453 95.7586 35.5867 95.7586 36.536C95.7586 37.496 95.9506 38.248 96.3346 38.792C96.7293 39.3253 97.2946 39.592 98.0306 39.592ZM100.175 44.44V38.312V34.776V32.088H102.047V44.44H100.175Z" fill="#1F1F1F"/>
<defs>
<clipPath id="clip0_328_1519">
<rect width="60" height="60" fill="white" transform="translate(5 5)"/>
</clipPath>
</defs>
</svg>
