<svg width="138" height="70" viewBox="0 0 138 70" fill="none" xmlns="http://www.w3.org/2000/svg">
<rect width="138" height="70" rx="35" fill="#F7F7F7"/>
<g clip-path="url(#clip0_328_241)">
<path d="M35 65C51.5685 65 65 51.5685 65 35C65 18.4315 51.5685 5 35 5C18.4315 5 5 18.4315 5 35C5 51.5685 18.4315 65 35 65Z" fill="#F0F0F0"/>
<path d="M35 48.0434C42.2037 48.0434 48.0434 42.2037 48.0434 35C48.0434 27.7963 42.2037 21.9565 35 21.9565C27.7963 21.9565 21.9565 27.7963 21.9565 35C21.9565 42.2037 27.7963 48.0434 35 48.0434Z" fill="#D80027"/>
</g>
<path d="M75.304 41V39.384H76.936C77.3627 39.384 77.6933 39.272 77.928 39.048C78.1627 38.8133 78.28 38.4933 78.28 38.088V29.8H80.28V38.168C80.28 39.0747 80.0293 39.7733 79.528 40.264C79.0267 40.7547 78.28 41 77.288 41H75.304ZM86.9471 41V34.92C86.9471 34.408 86.7978 34.0347 86.4991 33.8C86.2005 33.5653 85.8271 33.448 85.3791 33.448C84.8671 33.448 84.4138 33.576 84.0191 33.832C83.6245 34.088 83.3311 34.4027 83.1391 34.776L81.8591 33.624C82.2645 33.016 82.7871 32.5733 83.4271 32.296C84.0778 32.008 84.7658 31.864 85.4911 31.864C86.1845 31.864 86.7765 31.9707 87.2671 32.184C87.7685 32.3973 88.1525 32.7333 88.4191 33.192C88.6965 33.6507 88.8351 34.2533 88.8351 35V41H86.9471ZM84.4351 41.176C83.5711 41.176 82.9045 40.9413 82.4351 40.472C81.9658 39.992 81.7311 39.3733 81.7311 38.616C81.7311 37.8053 81.9978 37.1653 82.5311 36.696C83.0751 36.216 83.8911 35.8853 84.9791 35.704L87.1551 35.32V36.728L85.1711 37.08C84.6485 37.1867 84.2591 37.352 84.0031 37.576C83.7578 37.8 83.6351 38.0987 83.6351 38.472C83.6351 38.8987 83.7631 39.208 84.0191 39.4C84.2858 39.592 84.6058 39.688 84.9791 39.688C85.5978 39.688 86.0778 39.4693 86.4191 39.032C86.7711 38.584 86.9471 37.9493 86.9471 37.128L87.0591 38.504C87.0698 39.336 86.8458 39.992 86.3871 40.472C85.9391 40.9413 85.2885 41.176 84.4351 41.176ZM95.1446 41.24C94.6433 41.24 94.1846 41.128 93.7686 40.904C93.3526 40.68 93.0113 40.36 92.7446 39.944C92.4886 39.528 92.3393 39.0267 92.2966 38.44L91.4646 36.536L92.2966 34.648C92.3393 34.0613 92.4886 33.56 92.7446 33.144C93.0113 32.728 93.3526 32.4133 93.7686 32.2C94.1846 31.976 94.6433 31.864 95.1446 31.864C95.8166 31.864 96.43 32.0347 96.9846 32.376C97.55 32.7173 97.998 33.2347 98.3286 33.928C98.6593 34.6107 98.8246 35.48 98.8246 36.536C98.8246 37.5813 98.6593 38.456 98.3286 39.16C97.998 39.8533 97.5553 40.376 97.0006 40.728C96.446 41.0693 95.8273 41.24 95.1446 41.24ZM90.6486 44.44V32.088H92.5206V34.776V38.312V44.44H90.6486ZM94.6646 39.592C95.4006 39.592 95.9606 39.3253 96.3446 38.792C96.7393 38.248 96.9366 37.496 96.9366 36.536C96.9366 35.5867 96.7393 34.8453 96.3446 34.312C95.9606 33.768 95.4006 33.496 94.6646 33.496C94.1846 33.496 93.7846 33.6293 93.4646 33.896C93.1553 34.1627 92.9206 34.5253 92.7606 34.984C92.6113 35.432 92.5366 35.9493 92.5366 36.536C92.5366 37.1227 92.6113 37.6453 92.7606 38.104C92.9206 38.5627 93.1553 38.9253 93.4646 39.192C93.7846 39.4587 94.1846 39.592 94.6646 39.592ZM105.103 41V34.92C105.103 34.408 104.954 34.0347 104.655 33.8C104.357 33.5653 103.983 33.448 103.535 33.448C103.023 33.448 102.57 33.576 102.175 33.832C101.781 34.088 101.487 34.4027 101.295 34.776L100.015 33.624C100.421 33.016 100.943 32.5733 101.583 32.296C102.234 32.008 102.922 31.864 103.647 31.864C104.341 31.864 104.933 31.9707 105.423 32.184C105.925 32.3973 106.309 32.7333 106.575 33.192C106.853 33.6507 106.991 34.2533 106.991 35V41H105.103ZM102.591 41.176C101.727 41.176 101.061 40.9413 100.591 40.472C100.122 39.992 99.8874 39.3733 99.8874 38.616C99.8874 37.8053 100.154 37.1653 100.687 36.696C101.231 36.216 102.047 35.8853 103.135 35.704L105.311 35.32V36.728L103.327 37.08C102.805 37.1867 102.415 37.352 102.159 37.576C101.914 37.8 101.791 38.0987 101.791 38.472C101.791 38.8987 101.919 39.208 102.175 39.4C102.442 39.592 102.762 39.688 103.135 39.688C103.754 39.688 104.234 39.4693 104.575 39.032C104.927 38.584 105.103 37.9493 105.103 37.128L105.215 38.504C105.226 39.336 105.002 39.992 104.543 40.472C104.095 40.9413 103.445 41.176 102.591 41.176ZM114.613 41V35.72C114.613 34.2373 113.994 33.496 112.757 33.496C112.106 33.496 111.594 33.7147 111.221 34.152C110.858 34.5787 110.677 35.208 110.677 36.04L110.581 34.264C110.624 33.5173 110.906 32.936 111.429 32.52C111.952 32.104 112.608 31.896 113.397 31.896C114.464 31.896 115.242 32.2053 115.733 32.824C116.234 33.4427 116.485 34.2907 116.485 35.368V41H114.613ZM108.805 41V32.088H110.677V41H108.805Z" fill="#1F1F1F"/>
<defs>
<clipPath id="clip0_328_241">
<rect width="60" height="60" fill="white" transform="translate(5 5)"/>
</clipPath>
</defs>
</svg>
