<svg width="158" height="70" viewBox="0 0 158 70" fill="none" xmlns="http://www.w3.org/2000/svg">
<rect width="158" height="70" rx="35" fill="#F7F7F7"/>
<g clip-path="url(#clip0_328_1434)">
<path d="M35 65C51.5685 65 65 51.5685 65 35C65 18.4315 51.5685 5 35 5C18.4315 5 5 18.4315 5 35C5 51.5685 18.4315 65 35 65Z" fill="#F0F0F0"/>
<path d="M33.6956 35H64.9999C64.9999 32.2921 64.6389 29.6692 63.9664 27.1738H33.6956V35Z" fill="#D80027"/>
<path d="M33.6956 19.3476H60.5966C58.7602 16.3509 56.4123 13.7021 53.6745 11.5215H33.6956V19.3476Z" fill="#D80027"/>
<path d="M35.0001 64.9997C42.0605 64.9997 48.55 62.5594 53.6747 58.478H16.3254C21.4502 62.5594 27.9397 64.9997 35.0001 64.9997Z" fill="#D80027"/>
<path d="M9.40317 50.6518H60.5968C62.0711 48.2462 63.2144 45.6164 63.9665 42.8257H6.03345C6.78544 45.6164 7.92884 48.2462 9.40317 50.6518Z" fill="#D80027"/>
<path d="M35 35C35 18.4316 35 16.4783 35 5C18.4316 5 5 18.4316 5 35H35Z" fill="#0052B4"/>
<path d="M24.9493 30.6791C20.8522 30.6791 17.5308 27.3577 17.5308 23.2607C17.5308 19.1637 20.8523 15.8422 24.9493 15.8422C26.2267 15.8422 27.4287 16.1653 28.4782 16.7339C26.8319 15.1241 24.5805 14.1304 22.096 14.1304C17.0535 14.1304 12.9656 18.2182 12.9656 23.2608C12.9656 28.3034 17.0535 32.3912 22.096 32.3912C24.5805 32.3912 26.8319 31.3975 28.4782 29.7877C27.4287 30.356 26.2269 30.6791 24.9493 30.6791Z" fill="#FFDA44"/>
<path d="M27.0397 18.0435L28.3568 20.7976L31.3311 20.1104L29.9992 22.8572L32.3912 24.7541L29.413 25.4254L29.4213 28.4783L27.0397 26.5684L24.658 28.4783L24.6662 25.4254L21.688 24.7541L24.08 22.8572L22.7479 20.1104L25.7225 20.7976L27.0397 18.0435Z" fill="#FFDA44"/>
</g>
<path d="M76.136 41V29.8H79.064L81.592 37.016H81.256L83.8 29.8H86.744V41H84.84V30.92L85.32 30.824L82.312 39.192H80.52L77.528 30.808L78.04 30.952V41H76.136ZM93.3846 41V34.92C93.3846 34.408 93.2353 34.0347 92.9366 33.8C92.638 33.5653 92.2646 33.448 91.8166 33.448C91.3046 33.448 90.8513 33.576 90.4566 33.832C90.062 34.088 89.7686 34.4027 89.5766 34.776L88.2966 33.624C88.702 33.016 89.2246 32.5733 89.8646 32.296C90.5153 32.008 91.2033 31.864 91.9286 31.864C92.622 31.864 93.214 31.9707 93.7046 32.184C94.206 32.3973 94.59 32.7333 94.8566 33.192C95.134 33.6507 95.2726 34.2533 95.2726 35V41H93.3846ZM90.8726 41.176C90.0086 41.176 89.342 40.9413 88.8726 40.472C88.4033 39.992 88.1686 39.3733 88.1686 38.616C88.1686 37.8053 88.4353 37.1653 88.9686 36.696C89.5126 36.216 90.3286 35.8853 91.4166 35.704L93.5926 35.32V36.728L91.6086 37.08C91.086 37.1867 90.6966 37.352 90.4406 37.576C90.1953 37.8 90.0726 38.0987 90.0726 38.472C90.0726 38.8987 90.2006 39.208 90.4566 39.4C90.7233 39.592 91.0433 39.688 91.4166 39.688C92.0353 39.688 92.5153 39.4693 92.8566 39.032C93.2086 38.584 93.3846 37.9493 93.3846 37.128L93.4966 38.504C93.5073 39.336 93.2833 39.992 92.8246 40.472C92.3766 40.9413 91.726 41.176 90.8726 41.176ZM99.1669 41C98.4842 41 97.9615 40.8187 97.5989 40.456C97.2362 40.0933 97.0549 39.576 97.0549 38.904V28.84H98.9429V38.76C98.9429 39.24 99.1829 39.48 99.6629 39.48H100.351V41H99.1669ZM106.4 41V34.92C106.4 34.408 106.251 34.0347 105.952 33.8C105.654 33.5653 105.28 33.448 104.832 33.448C104.32 33.448 103.867 33.576 103.472 33.832C103.078 34.088 102.784 34.4027 102.592 34.776L101.312 33.624C101.718 33.016 102.24 32.5733 102.88 32.296C103.531 32.008 104.219 31.864 104.944 31.864C105.638 31.864 106.23 31.9707 106.72 32.184C107.222 32.3973 107.606 32.7333 107.872 33.192C108.15 33.6507 108.288 34.2533 108.288 35V41H106.4ZM103.888 41.176C103.024 41.176 102.358 40.9413 101.888 40.472C101.419 39.992 101.184 39.3733 101.184 38.616C101.184 37.8053 101.451 37.1653 101.984 36.696C102.528 36.216 103.344 35.8853 104.432 35.704L106.608 35.32V36.728L104.624 37.08C104.102 37.1867 103.712 37.352 103.456 37.576C103.211 37.8 103.088 38.0987 103.088 38.472C103.088 38.8987 103.216 39.208 103.472 39.4C103.739 39.592 104.059 39.688 104.432 39.688C105.051 39.688 105.531 39.4693 105.872 39.032C106.224 38.584 106.4 37.9493 106.4 37.128L106.512 38.504C106.523 39.336 106.299 39.992 105.84 40.472C105.392 40.9413 104.742 41.176 103.888 41.176ZM109.439 44.44V42.84H110.879C111.231 42.84 111.503 42.76 111.695 42.6C111.887 42.4507 112.036 42.2053 112.143 41.864L115.359 32.104H117.343L113.663 42.648C113.503 43.096 113.316 43.448 113.103 43.704C112.889 43.9707 112.612 44.1573 112.271 44.264C111.929 44.3813 111.487 44.44 110.943 44.44H109.439ZM112.527 41.432L109.119 32.104H111.103L113.823 40.024L113.759 41.432H112.527ZM121.486 41.24C120.483 41.24 119.662 41.0373 119.022 40.632C118.392 40.216 117.987 39.6027 117.806 38.792L119.549 38.328C119.646 38.8507 119.87 39.2347 120.222 39.48C120.584 39.7147 121.016 39.832 121.518 39.832C121.966 39.832 122.328 39.72 122.606 39.496C122.894 39.272 123.038 39.0053 123.038 38.696C123.038 38.3013 122.883 37.9973 122.574 37.784C122.264 37.56 121.71 37.3733 120.91 37.224C119.971 37.0427 119.267 36.712 118.798 36.232C118.339 35.752 118.11 35.1707 118.11 34.488C118.11 33.9547 118.248 33.4907 118.526 33.096C118.803 32.7013 119.182 32.3973 119.662 32.184C120.152 31.9707 120.723 31.864 121.374 31.864C122.302 31.864 123.054 32.04 123.63 32.392C124.206 32.7333 124.6 33.2987 124.814 34.088L123.134 34.664C122.995 34.1307 122.771 33.768 122.462 33.576C122.163 33.3733 121.795 33.272 121.358 33.272C120.974 33.272 120.654 33.3573 120.398 33.528C120.142 33.6987 120.014 33.9333 120.014 34.232C120.014 34.5733 120.147 34.8507 120.414 35.064C120.691 35.2667 121.192 35.4427 121.918 35.592C122.92 35.7947 123.667 36.1253 124.158 36.584C124.659 37.0427 124.91 37.656 124.91 38.424C124.91 39.3093 124.606 40.0027 123.998 40.504C123.39 40.9947 122.552 41.24 121.486 41.24ZM126.305 41V32.104H128.177V41H126.305ZM127.217 30.792C126.865 30.792 126.577 30.68 126.353 30.456C126.14 30.232 126.033 29.9653 126.033 29.656C126.033 29.3573 126.14 29.1013 126.353 28.888C126.577 28.664 126.865 28.552 127.217 28.552C127.58 28.552 127.868 28.664 128.081 28.888C128.305 29.1013 128.417 29.3573 128.417 29.656C128.417 29.976 128.305 30.248 128.081 30.472C127.857 30.6853 127.569 30.792 127.217 30.792ZM134.775 41V34.92C134.775 34.408 134.626 34.0347 134.327 33.8C134.029 33.5653 133.655 33.448 133.207 33.448C132.695 33.448 132.242 33.576 131.847 33.832C131.453 34.088 131.159 34.4027 130.967 34.776L129.687 33.624C130.093 33.016 130.615 32.5733 131.255 32.296C131.906 32.008 132.594 31.864 133.319 31.864C134.013 31.864 134.605 31.9707 135.095 32.184C135.597 32.3973 135.981 32.7333 136.247 33.192C136.525 33.6507 136.663 34.2533 136.663 35V41H134.775ZM132.263 41.176C131.399 41.176 130.733 40.9413 130.263 40.472C129.794 39.992 129.559 39.3733 129.559 38.616C129.559 37.8053 129.826 37.1653 130.359 36.696C130.903 36.216 131.719 35.8853 132.807 35.704L134.983 35.32V36.728L132.999 37.08C132.477 37.1867 132.087 37.352 131.831 37.576C131.586 37.8 131.463 38.0987 131.463 38.472C131.463 38.8987 131.591 39.208 131.847 39.4C132.114 39.592 132.434 39.688 132.807 39.688C133.426 39.688 133.906 39.4693 134.247 39.032C134.599 38.584 134.775 37.9493 134.775 37.128L134.887 38.504C134.898 39.336 134.674 39.992 134.215 40.472C133.767 40.9413 133.117 41.176 132.263 41.176Z" fill="#1F1F1F"/>
<defs>
<clipPath id="clip0_328_1434">
<rect width="60" height="60" fill="white" transform="translate(5 5)"/>
</clipPath>
</defs>
</svg>
