<svg width="189" height="70" viewBox="0 0 189 70" fill="none" xmlns="http://www.w3.org/2000/svg">
<rect width="189" height="70" rx="35" fill="#F7F7F7"/>
<g clip-path="url(#clip0_328_159)">
<path d="M65 35C65 51.5684 51.5684 65 35 65C18.4316 65 5 51.5684 5 35C5 35.0071 35 5.00328 35 5C51.5684 5 65 18.4316 65 35Z" fill="#0052B4"/>
<path d="M34.9197 35.0002H35C35 34.9732 35 34.947 35 34.9199C34.9732 34.9468 34.9465 34.9735 34.9197 35.0002Z" fill="#F0F0F0"/>
<path d="M35 20.6521C35 15.3734 35 11.9146 35 5H34.995C18.4288 5.00281 5 18.4331 5 35H20.6522V26.1862L29.4661 35H34.9198C34.9466 34.9733 34.9734 34.9466 35.0001 34.9197C35.0001 32.8986 35.0001 31.0952 35.0001 29.4662L26.1861 20.6521H35Z" fill="#F0F0F0"/>
<path d="M20.1776 8.91309C15.4855 11.5848 11.5848 15.4855 8.91309 20.1776V35.0001H16.7392V16.7395V16.7392H35.0001C35.0001 14.2709 35.0001 11.9194 35.0001 8.91309H20.1776Z" fill="#D80027"/>
<path d="M35.0001 31.3109L24.3415 20.6523C24.3415 20.6523 20.6523 20.6526 20.6523 20.6523V20.6526L35 35.0001H35.0001C35.0001 35.0001 35.0001 32.4563 35.0001 31.3109Z" fill="#D80027"/>
<path d="M56.9528 27.2607L57.6003 29.2536H59.6957L58.0005 30.4853L58.6481 32.478L56.9528 31.2465L55.2575 32.478L55.9051 30.4853L54.2097 29.2536H56.3051L56.9528 27.2607Z" fill="#D80027"/>
<path d="M49.4624 41.6084L50.4337 44.5979H53.5768L51.0338 46.4452L52.0053 49.4345L49.4624 47.5871L46.9194 49.4345L47.8909 46.4452L45.3479 44.5979H48.491L49.4624 41.6084Z" fill="#D80027"/>
<path d="M49.7452 18.1304L50.5547 20.6217H53.174L51.0548 22.1609L51.8643 24.6521L49.7452 23.1124L47.6262 24.6521L48.4356 22.1609L46.3167 20.6217H48.9358L49.7452 18.1304Z" fill="#D80027"/>
<path d="M42.5378 27.1738L43.509 30.1633H46.6522L44.1093 32.0106L45.0808 35L42.5378 33.1525L39.9948 35L40.9663 32.0106L38.4233 30.1633H41.5664L42.5378 27.1738Z" fill="#D80027"/>
</g>
<path d="M76.136 41V29.8H78.744L83.448 39.224L83.016 39.608V29.8H84.936V41H82.328L77.64 31.624L78.072 31.336V41H76.136ZM90.4666 41.224C89.6133 41.224 88.8826 41.0267 88.2746 40.632C87.6773 40.2373 87.2186 39.6827 86.8986 38.968C86.5786 38.2427 86.4186 37.4 86.4186 36.44C86.4186 35.5013 86.584 34.6907 86.9146 34.008C87.2453 33.3253 87.7146 32.7973 88.3226 32.424C88.9306 32.0507 89.6293 31.864 90.4186 31.864C91.1546 31.864 91.8053 32.024 92.3706 32.344C92.936 32.664 93.3786 33.1547 93.6986 33.816C94.0186 34.4667 94.1786 35.2933 94.1786 36.296V36.936H87.5226V35.608H92.5466L92.1786 35.816C92.1893 35.752 92.1946 35.6827 92.1946 35.608C92.1946 35.5333 92.1946 35.464 92.1946 35.4C92.1946 34.8133 92.0453 34.3387 91.7466 33.976C91.448 33.6027 90.984 33.416 90.3546 33.416C89.736 33.416 89.24 33.6347 88.8666 34.072C88.504 34.5093 88.3226 35.2667 88.3226 36.344C88.3226 37.496 88.4826 38.3387 88.8026 38.872C89.1333 39.4053 89.688 39.672 90.4666 39.672C90.936 39.672 91.3466 39.5547 91.6986 39.32C92.0506 39.0747 92.2906 38.6533 92.4186 38.056L94.0986 38.52C93.9173 39.2667 93.6293 39.8373 93.2346 40.232C92.84 40.616 92.3973 40.8773 91.9066 41.016C91.416 41.1547 90.936 41.224 90.4666 41.224ZM96.6295 41L94.8375 32.104H96.6775L97.9895 39.528H97.6055L99.5255 32.104H101.334L103.19 39.528H102.838L104.118 32.104H105.958L104.182 41H101.91L100.054 33.592H100.79L98.8535 41H96.6295ZM110.377 41V39.128L116.169 31.064L116.361 31.4H110.745V29.8H118.217V31.64L112.281 39.912L112.041 39.384H118.425V41H110.377ZM123.185 41.224C122.332 41.224 121.601 41.0267 120.993 40.632C120.396 40.2373 119.937 39.6827 119.617 38.968C119.297 38.2427 119.137 37.4 119.137 36.44C119.137 35.5013 119.303 34.6907 119.633 34.008C119.964 33.3253 120.433 32.7973 121.041 32.424C121.649 32.0507 122.348 31.864 123.137 31.864C123.873 31.864 124.524 32.024 125.089 32.344C125.655 32.664 126.097 33.1547 126.417 33.816C126.737 34.4667 126.897 35.2933 126.897 36.296V36.936H120.241V35.608H125.265L124.897 35.816C124.908 35.752 124.913 35.6827 124.913 35.608C124.913 35.5333 124.913 35.464 124.913 35.4C124.913 34.8133 124.764 34.3387 124.465 33.976C124.167 33.6027 123.703 33.416 123.073 33.416C122.455 33.416 121.959 33.6347 121.585 34.072C121.223 34.5093 121.041 35.2667 121.041 36.344C121.041 37.496 121.201 38.3387 121.521 38.872C121.852 39.4053 122.407 39.672 123.185 39.672C123.655 39.672 124.065 39.5547 124.417 39.32C124.769 39.0747 125.009 38.6533 125.137 38.056L126.817 38.52C126.636 39.2667 126.348 39.8373 125.953 40.232C125.559 40.616 125.116 40.8773 124.625 41.016C124.135 41.1547 123.655 41.224 123.185 41.224ZM133.166 41V34.92C133.166 34.408 133.017 34.0347 132.718 33.8C132.419 33.5653 132.046 33.448 131.598 33.448C131.086 33.448 130.633 33.576 130.238 33.832C129.843 34.088 129.55 34.4027 129.358 34.776L128.078 33.624C128.483 33.016 129.006 32.5733 129.646 32.296C130.297 32.008 130.985 31.864 131.71 31.864C132.403 31.864 132.995 31.9707 133.486 32.184C133.987 32.3973 134.371 32.7333 134.638 33.192C134.915 33.6507 135.054 34.2533 135.054 35V41H133.166ZM130.654 41.176C129.79 41.176 129.123 40.9413 128.654 40.472C128.185 39.992 127.95 39.3733 127.95 38.616C127.95 37.8053 128.217 37.1653 128.75 36.696C129.294 36.216 130.11 35.8853 131.198 35.704L133.374 35.32V36.728L131.39 37.08C130.867 37.1867 130.478 37.352 130.222 37.576C129.977 37.8 129.854 38.0987 129.854 38.472C129.854 38.8987 129.982 39.208 130.238 39.4C130.505 39.592 130.825 39.688 131.198 39.688C131.817 39.688 132.297 39.4693 132.638 39.032C132.99 38.584 133.166 37.9493 133.166 37.128L133.278 38.504C133.289 39.336 133.065 39.992 132.606 40.472C132.158 40.9413 131.507 41.176 130.654 41.176ZM138.948 41C138.265 41 137.743 40.8187 137.38 40.456C137.017 40.0933 136.836 39.576 136.836 38.904V28.84H138.724V38.76C138.724 39.24 138.964 39.48 139.444 39.48H140.132V41H138.948ZM146.182 41V34.92C146.182 34.408 146.032 34.0347 145.734 33.8C145.435 33.5653 145.062 33.448 144.614 33.448C144.102 33.448 143.648 33.576 143.254 33.832C142.859 34.088 142.566 34.4027 142.374 34.776L141.094 33.624C141.499 33.016 142.022 32.5733 142.662 32.296C143.312 32.008 144 31.864 144.726 31.864C145.419 31.864 146.011 31.9707 146.502 32.184C147.003 32.3973 147.387 32.7333 147.654 33.192C147.931 33.6507 148.07 34.2533 148.07 35V41H146.182ZM143.67 41.176C142.806 41.176 142.139 40.9413 141.67 40.472C141.2 39.992 140.965 39.3733 140.965 38.616C140.965 37.8053 141.232 37.1653 141.766 36.696C142.31 36.216 143.126 35.8853 144.214 35.704L146.39 35.32V36.728L144.406 37.08C143.883 37.1867 143.494 37.352 143.238 37.576C142.992 37.8 142.87 38.0987 142.87 38.472C142.87 38.8987 142.998 39.208 143.254 39.4C143.52 39.592 143.84 39.688 144.214 39.688C144.832 39.688 145.312 39.4693 145.654 39.032C146.006 38.584 146.182 37.9493 146.182 37.128L146.294 38.504C146.304 39.336 146.08 39.992 145.622 40.472C145.174 40.9413 144.523 41.176 143.67 41.176ZM155.691 41V35.72C155.691 34.2373 155.072 33.496 153.835 33.496C153.184 33.496 152.672 33.7147 152.299 34.152C151.936 34.5787 151.755 35.208 151.755 36.04L151.659 34.264C151.702 33.5173 151.984 32.936 152.507 32.52C153.03 32.104 153.686 31.896 154.475 31.896C155.542 31.896 156.32 32.2053 156.811 32.824C157.312 33.4427 157.563 34.2907 157.563 35.368V41H155.691ZM149.883 41V32.088H151.755V41H149.883ZM162.598 41.24C161.926 41.24 161.307 41.0693 160.742 40.728C160.187 40.376 159.744 39.8533 159.414 39.16C159.083 38.4667 158.918 37.592 158.918 36.536C158.918 35.4907 159.083 34.6213 159.414 33.928C159.744 33.2347 160.187 32.7173 160.742 32.376C161.307 32.0347 161.926 31.864 162.598 31.864C163.11 31.864 163.574 31.976 163.99 32.2C164.406 32.4133 164.742 32.728 164.998 33.144C165.254 33.56 165.398 34.0613 165.43 34.648L166.294 36.536L165.43 38.44C165.398 39.016 165.254 39.5173 164.998 39.944C164.742 40.36 164.406 40.68 163.99 40.904C163.574 41.128 163.11 41.24 162.598 41.24ZM163.094 39.592C163.574 39.592 163.968 39.4587 164.278 39.192C164.598 38.9253 164.832 38.5627 164.982 38.104C165.142 37.6453 165.222 37.1227 165.222 36.536C165.222 35.96 165.147 35.4427 164.998 34.984C164.848 34.5253 164.614 34.1627 164.294 33.896C163.974 33.6293 163.574 33.496 163.094 33.496C162.358 33.496 161.792 33.7627 161.398 34.296C161.014 34.8293 160.822 35.576 160.822 36.536C160.822 37.4853 161.014 38.232 161.398 38.776C161.782 39.32 162.347 39.592 163.094 39.592ZM165.222 41V38.344V34.792V28.856H167.094V41H165.222Z" fill="#1F1F1F"/>
<defs>
<clipPath id="clip0_328_159">
<rect width="60" height="60" fill="white" transform="translate(5 5)"/>
</clipPath>
</defs>
</svg>
