<svg width="185" height="70" viewBox="0 0 185 70" fill="none" xmlns="http://www.w3.org/2000/svg">
<rect width="185" height="70" rx="35" fill="#F7F7F7"/>
<g clip-path="url(#clip0_328_1356)">
<path d="M35 65C51.5685 65 65 51.5685 65 35C65 18.4315 51.5685 5 35 5C18.4315 5 5 18.4315 5 35C5 51.5685 18.4315 65 35 65Z" fill="#F0F0F0"/>
<path d="M13.7868 56.2132C2.07107 44.4974 2.07107 25.5024 13.7868 13.7866C13.786 13.7879 31.087 34.9999 31.087 34.9999L13.7868 56.2132Z" fill="black"/>
<path d="M31.0871 34.9999L8.97894 20.0601C8.29351 21.2515 7.68905 22.4951 7.16968 23.7823L18.3621 35.0001L7.17003 46.2184C7.68894 47.5047 8.2928 48.7474 8.97776 49.9381L31.0871 34.9999Z" fill="#FFDA44"/>
<path d="M64.7461 31.0869H31.0863L13.7866 13.7871C11.9224 15.6513 10.3027 17.7596 8.97895 20.0602L23.8898 34.9999L8.97778 49.9378C10.3015 52.2389 11.9219 54.3479 13.7866 56.2126L31.0863 38.9129H64.7461C64.9129 37.6321 65.0001 36.3261 65.0001 34.9999C65.0001 33.6737 64.9129 32.3678 64.7461 31.0869Z" fill="#6DA544"/>
<path d="M16.7349 58.7981C21.7937 62.6866 28.1262 65 34.9999 65C48.8608 65 60.524 55.5991 63.9665 42.8262H32.7069L16.7349 58.7981Z" fill="#0052B4"/>
<path d="M63.9665 27.1739C60.524 14.4009 48.8608 5 34.9999 5C28.1262 5 21.7937 7.3134 16.7349 11.2019L32.7068 27.1739H63.9665Z" fill="#D80027"/>
</g>
<path d="M79.816 41.24C79.0373 41.24 78.3387 41.1227 77.72 40.888C77.112 40.6427 76.616 40.2693 76.232 39.768C75.848 39.256 75.6133 38.616 75.528 37.848L77.512 37.448C77.544 37.8853 77.6293 38.248 77.768 38.536C77.9067 38.8133 78.0827 39.0373 78.296 39.208C78.5093 39.368 78.7387 39.4853 78.984 39.56C79.24 39.624 79.5013 39.656 79.768 39.656C80.056 39.656 80.3333 39.6027 80.6 39.496C80.8667 39.3893 81.0907 39.224 81.272 39C81.4533 38.7653 81.544 38.4667 81.544 38.104C81.544 37.56 81.336 37.1333 80.92 36.824C80.504 36.5147 79.8427 36.264 78.936 36.072C78.2107 35.9013 77.624 35.656 77.176 35.336C76.728 35.016 76.3973 34.6373 76.184 34.2C75.9813 33.7627 75.88 33.2827 75.88 32.76C75.88 32.12 76.0293 31.56 76.328 31.08C76.6373 30.6 77.0693 30.2267 77.624 29.96C78.1787 29.6933 78.824 29.56 79.56 29.56C79.9973 29.56 80.424 29.608 80.84 29.704C81.2667 29.8 81.656 29.9653 82.008 30.2C82.36 30.424 82.6587 30.728 82.904 31.112C83.1493 31.4853 83.3093 31.9547 83.384 32.52L81.448 33C81.4053 32.5413 81.2933 32.1787 81.112 31.912C80.9307 31.6347 80.7013 31.4373 80.424 31.32C80.1573 31.2027 79.8587 31.144 79.528 31.144C79.2293 31.144 78.952 31.1973 78.696 31.304C78.4507 31.4 78.2533 31.5493 78.104 31.752C77.9547 31.9547 77.88 32.2 77.88 32.488C77.88 32.7547 77.928 33 78.024 33.224C78.1307 33.448 78.3333 33.6507 78.632 33.832C78.9307 34.0027 79.3627 34.1573 79.928 34.296C80.7493 34.488 81.4213 34.744 81.944 35.064C82.4773 35.3733 82.8667 35.752 83.112 36.2C83.3573 36.648 83.48 37.1707 83.48 37.768C83.4907 38.3547 83.3947 38.8667 83.192 39.304C82.9893 39.7413 82.7173 40.104 82.376 40.392C82.0347 40.68 81.64 40.8933 81.192 41.032C80.7547 41.1707 80.296 41.24 79.816 41.24ZM88.7021 41.24C87.8488 41.24 87.1128 41.0427 86.4941 40.648C85.8861 40.2427 85.4168 39.688 85.0861 38.984C84.7661 38.28 84.6061 37.464 84.6061 36.536C84.6061 35.5973 84.7715 34.7813 85.1021 34.088C85.4328 33.384 85.9021 32.84 86.5101 32.456C87.1181 32.0613 87.8488 31.864 88.7021 31.864C89.5661 31.864 90.2968 32.0613 90.8941 32.456C91.5021 32.84 91.9661 33.384 92.2861 34.088C92.6061 34.7813 92.7661 35.5973 92.7661 36.536C92.7661 37.464 92.6061 38.2853 92.2861 39C91.9661 39.704 91.5021 40.2533 90.8941 40.648C90.2968 41.0427 89.5661 41.24 88.7021 41.24ZM88.7021 39.64C89.4275 39.64 89.9661 39.3733 90.3181 38.84C90.6808 38.296 90.8621 37.528 90.8621 36.536C90.8621 35.544 90.6808 34.7867 90.3181 34.264C89.9555 33.7307 89.4168 33.464 88.7021 33.464C87.9768 33.464 87.4275 33.7307 87.0541 34.264C86.6915 34.7973 86.5101 35.5547 86.5101 36.536C86.5101 37.5387 86.7021 38.3067 87.0861 38.84C87.4808 39.3733 88.0195 39.64 88.7021 39.64ZM97.8219 41.24C97.0859 41.24 96.4352 41.1013 95.8699 40.824C95.3152 40.536 94.8779 40.0987 94.5579 39.512C94.2485 38.9147 94.0939 38.1573 94.0939 37.24V32.104H95.9499V37.512C95.9499 38.2587 96.1259 38.8027 96.4779 39.144C96.8405 39.4747 97.2885 39.64 97.8219 39.64C98.3659 39.64 98.8085 39.4693 99.1499 39.128C99.4912 38.776 99.6619 38.2373 99.6619 37.512V32.104H101.55V37.24C101.55 38.168 101.39 38.9307 101.07 39.528C100.761 40.1147 100.323 40.5467 99.7579 40.824C99.2032 41.1013 98.5579 41.24 97.8219 41.24ZM106.443 41C105.835 41 105.355 40.9253 105.003 40.776C104.661 40.6267 104.421 40.3813 104.283 40.04C104.144 39.6987 104.075 39.2453 104.075 38.68V29.784H105.947V38.552C105.947 38.8613 106.011 39.08 106.139 39.208C106.267 39.336 106.475 39.4 106.763 39.4H107.979V41H106.443ZM102.587 33.704V32.104H107.979V33.704H102.587ZM115.425 41V35.72C115.425 34.2373 114.807 33.496 113.569 33.496C112.919 33.496 112.407 33.7147 112.033 34.152C111.671 34.5787 111.489 35.208 111.489 36.04L111.393 34.264C111.436 33.5173 111.719 32.936 112.241 32.52C112.764 32.104 113.42 31.896 114.209 31.896C115.276 31.896 116.055 32.2053 116.545 32.824C117.047 33.4427 117.297 34.2907 117.297 35.368V41H115.425ZM109.617 41V28.84H111.489V41H109.617ZM121.756 41L125.42 29.8H128.028L131.596 41H129.564L126.636 31.176H126.812L123.804 41H121.756ZM123.852 37.784V36.168H129.26V37.784H123.852ZM133.159 41V31.208C133.159 30.3973 133.341 29.8 133.703 29.416C134.066 29.032 134.669 28.84 135.511 28.84H137.079V30.44H135.703C135.469 30.44 135.298 30.4987 135.191 30.616C135.085 30.7227 135.031 30.8933 135.031 31.128V41H133.159ZM131.655 33.688V32.104H137.063V33.688H131.655ZM138.321 41V32.104H140.193V41H138.321ZM140.193 36.248L140.097 34.104C140.171 33.4 140.379 32.8827 140.721 32.552C141.062 32.2213 141.569 32.056 142.241 32.056H143.025V33.864H142.113C141.409 33.864 140.913 34.0453 140.625 34.408C140.337 34.76 140.193 35.3733 140.193 36.248ZM144.321 41V32.104H146.193V41H144.321ZM145.233 30.792C144.881 30.792 144.593 30.68 144.368 30.456C144.155 30.232 144.049 29.9653 144.049 29.656C144.049 29.3573 144.155 29.1013 144.368 28.888C144.593 28.664 144.881 28.552 145.233 28.552C145.595 28.552 145.883 28.664 146.097 28.888C146.321 29.1013 146.433 29.3573 146.433 29.656C146.433 29.976 146.321 30.248 146.097 30.472C145.873 30.6853 145.585 30.792 145.233 30.792ZM151.654 41.208C150.822 41.208 150.102 41.0107 149.494 40.616C148.886 40.2213 148.417 39.672 148.086 38.968C147.766 38.264 147.606 37.448 147.606 36.52C147.606 35.5813 147.766 34.7653 148.086 34.072C148.417 33.368 148.881 32.824 149.478 32.44C150.086 32.056 150.811 31.864 151.654 31.864C152.262 31.864 152.827 31.9653 153.35 32.168C153.873 32.36 154.305 32.6693 154.646 33.096C154.998 33.512 155.222 34.0667 155.318 34.76L153.51 35.192C153.403 34.5627 153.185 34.12 152.854 33.864C152.534 33.5973 152.123 33.464 151.622 33.464C150.961 33.464 150.438 33.7253 150.054 34.248C149.681 34.76 149.494 35.5173 149.494 36.52C149.494 37.5333 149.681 38.3013 150.054 38.824C150.427 39.3467 150.95 39.608 151.622 39.608C152.102 39.608 152.513 39.4747 152.854 39.208C153.195 38.9413 153.414 38.4987 153.51 37.88L155.318 38.28C155.19 38.9733 154.95 39.5333 154.598 39.96C154.246 40.3867 153.819 40.7013 153.318 40.904C152.817 41.1067 152.262 41.208 151.654 41.208ZM161.603 41V34.92C161.603 34.408 161.454 34.0347 161.155 33.8C160.857 33.5653 160.483 33.448 160.035 33.448C159.523 33.448 159.07 33.576 158.675 33.832C158.281 34.088 157.987 34.4027 157.795 34.776L156.515 33.624C156.921 33.016 157.443 32.5733 158.083 32.296C158.734 32.008 159.422 31.864 160.147 31.864C160.841 31.864 161.433 31.9707 161.923 32.184C162.425 32.3973 162.809 32.7333 163.075 33.192C163.353 33.6507 163.491 34.2533 163.491 35V41H161.603ZM159.091 41.176C158.227 41.176 157.561 40.9413 157.091 40.472C156.622 39.992 156.387 39.3733 156.387 38.616C156.387 37.8053 156.654 37.1653 157.187 36.696C157.731 36.216 158.547 35.8853 159.635 35.704L161.811 35.32V36.728L159.827 37.08C159.305 37.1867 158.915 37.352 158.659 37.576C158.414 37.8 158.291 38.0987 158.291 38.472C158.291 38.8987 158.419 39.208 158.675 39.4C158.942 39.592 159.262 39.688 159.635 39.688C160.254 39.688 160.734 39.4693 161.075 39.032C161.427 38.584 161.603 37.9493 161.603 37.128L161.715 38.504C161.726 39.336 161.502 39.992 161.043 40.472C160.595 40.9413 159.945 41.176 159.091 41.176Z" fill="#1F1F1F"/>
<defs>
<clipPath id="clip0_328_1356">
<rect width="60" height="60" fill="white" transform="translate(5 5)"/>
</clipPath>
</defs>
</svg>
