<svg width="136" height="70" viewBox="0 0 136 70" fill="none" xmlns="http://www.w3.org/2000/svg">
<rect width="136" height="70" rx="35" fill="#F7F7F7"/>
<g clip-path="url(#clip0_328_227)">
<path d="M5 35C5 38.6696 5.66012 42.1847 6.86598 45.4347L35 48.0434L63.134 45.4347C64.3399 42.1847 65 38.6696 65 35C65 31.3304 64.3399 27.8152 63.134 24.5653L35 21.9565L6.86598 24.5653C5.66012 27.8152 5 31.3304 5 35Z" fill="#FFDA44"/>
<path d="M63.134 24.5653C58.8952 13.1414 47.8989 5 35 5C22.101 5 11.1048 13.1414 6.86597 24.5653H63.134Z" fill="#D80027"/>
<path d="M6.86597 45.4346C11.1048 56.8585 22.101 64.9998 35 64.9998C47.8989 64.9998 58.8952 56.8585 63.134 45.4346H6.86597Z" fill="#D80027"/>
</g>
<path d="M79.816 41.24C79.0373 41.24 78.3387 41.1227 77.72 40.888C77.112 40.6427 76.616 40.2693 76.232 39.768C75.848 39.256 75.6133 38.616 75.528 37.848L77.512 37.448C77.544 37.8853 77.6293 38.248 77.768 38.536C77.9067 38.8133 78.0827 39.0373 78.296 39.208C78.5093 39.368 78.7387 39.4853 78.984 39.56C79.24 39.624 79.5013 39.656 79.768 39.656C80.056 39.656 80.3333 39.6027 80.6 39.496C80.8667 39.3893 81.0907 39.224 81.272 39C81.4533 38.7653 81.544 38.4667 81.544 38.104C81.544 37.56 81.336 37.1333 80.92 36.824C80.504 36.5147 79.8427 36.264 78.936 36.072C78.2107 35.9013 77.624 35.656 77.176 35.336C76.728 35.016 76.3973 34.6373 76.184 34.2C75.9813 33.7627 75.88 33.2827 75.88 32.76C75.88 32.12 76.0293 31.56 76.328 31.08C76.6373 30.6 77.0693 30.2267 77.624 29.96C78.1787 29.6933 78.824 29.56 79.56 29.56C79.9973 29.56 80.424 29.608 80.84 29.704C81.2667 29.8 81.656 29.9653 82.008 30.2C82.36 30.424 82.6587 30.728 82.904 31.112C83.1493 31.4853 83.3093 31.9547 83.384 32.52L81.448 33C81.4053 32.5413 81.2933 32.1787 81.112 31.912C80.9307 31.6347 80.7013 31.4373 80.424 31.32C80.1573 31.2027 79.8587 31.144 79.528 31.144C79.2293 31.144 78.952 31.1973 78.696 31.304C78.4507 31.4 78.2533 31.5493 78.104 31.752C77.9547 31.9547 77.88 32.2 77.88 32.488C77.88 32.7547 77.928 33 78.024 33.224C78.1307 33.448 78.3333 33.6507 78.632 33.832C78.9307 34.0027 79.3627 34.1573 79.928 34.296C80.7493 34.488 81.4213 34.744 81.944 35.064C82.4773 35.3733 82.8667 35.752 83.112 36.2C83.3573 36.648 83.48 37.1707 83.48 37.768C83.4907 38.3547 83.3947 38.8667 83.192 39.304C82.9893 39.7413 82.7173 40.104 82.376 40.392C82.0347 40.68 81.64 40.8933 81.192 41.032C80.7547 41.1707 80.296 41.24 79.816 41.24ZM89.4571 41.24C88.9558 41.24 88.4971 41.128 88.0811 40.904C87.6651 40.68 87.3238 40.36 87.0571 39.944C86.8011 39.528 86.6518 39.0267 86.6091 38.44L85.7771 36.536L86.6091 34.648C86.6518 34.0613 86.8011 33.56 87.0571 33.144C87.3238 32.728 87.6651 32.4133 88.0811 32.2C88.4971 31.976 88.9558 31.864 89.4571 31.864C90.1291 31.864 90.7425 32.0347 91.2971 32.376C91.8625 32.7173 92.3105 33.2347 92.6411 33.928C92.9718 34.6107 93.1371 35.48 93.1371 36.536C93.1371 37.5813 92.9718 38.456 92.6411 39.16C92.3105 39.8533 91.8678 40.376 91.3131 40.728C90.7585 41.0693 90.1398 41.24 89.4571 41.24ZM84.9611 44.44V32.088H86.8331V34.776V38.312V44.44H84.9611ZM88.9771 39.592C89.7131 39.592 90.2731 39.3253 90.6571 38.792C91.0518 38.248 91.2491 37.496 91.2491 36.536C91.2491 35.5867 91.0518 34.8453 90.6571 34.312C90.2731 33.768 89.7131 33.496 88.9771 33.496C88.4971 33.496 88.0971 33.6293 87.7771 33.896C87.4678 34.1627 87.2331 34.5253 87.0731 34.984C86.9238 35.432 86.8491 35.9493 86.8491 36.536C86.8491 37.1227 86.9238 37.6453 87.0731 38.104C87.2331 38.5627 87.4678 38.9253 87.7771 39.192C88.0971 39.4587 88.4971 39.592 88.9771 39.592ZM99.4159 41V34.92C99.4159 34.408 99.2665 34.0347 98.9679 33.8C98.6692 33.5653 98.2959 33.448 97.8479 33.448C97.3359 33.448 96.8825 33.576 96.4879 33.832C96.0932 34.088 95.7999 34.4027 95.6079 34.776L94.3279 33.624C94.7332 33.016 95.2559 32.5733 95.8959 32.296C96.5465 32.008 97.2345 31.864 97.9599 31.864C98.6532 31.864 99.2452 31.9707 99.7359 32.184C100.237 32.3973 100.621 32.7333 100.888 33.192C101.165 33.6507 101.304 34.2533 101.304 35V41H99.4159ZM96.9039 41.176C96.0399 41.176 95.3732 40.9413 94.9039 40.472C94.4345 39.992 94.1999 39.3733 94.1999 38.616C94.1999 37.8053 94.4665 37.1653 94.9999 36.696C95.5439 36.216 96.3599 35.8853 97.4479 35.704L99.6239 35.32V36.728L97.6399 37.08C97.1172 37.1867 96.7279 37.352 96.4719 37.576C96.2265 37.8 96.1039 38.0987 96.1039 38.472C96.1039 38.8987 96.2319 39.208 96.4879 39.4C96.7545 39.592 97.0745 39.688 97.4479 39.688C98.0665 39.688 98.5465 39.4693 98.8879 39.032C99.2399 38.584 99.4159 37.9493 99.4159 37.128L99.5279 38.504C99.5385 39.336 99.3145 39.992 98.8559 40.472C98.4079 40.9413 97.7572 41.176 96.9039 41.176ZM103.117 41V32.104H104.989V41H103.117ZM104.029 30.792C103.677 30.792 103.389 30.68 103.165 30.456C102.952 30.232 102.845 29.9653 102.845 29.656C102.845 29.3573 102.952 29.1013 103.165 28.888C103.389 28.664 103.677 28.552 104.029 28.552C104.392 28.552 104.68 28.664 104.893 28.888C105.117 29.1013 105.229 29.3573 105.229 29.656C105.229 29.976 105.117 30.248 104.893 30.472C104.669 30.6853 104.381 30.792 104.029 30.792ZM112.691 41V35.72C112.691 34.2373 112.072 33.496 110.835 33.496C110.184 33.496 109.672 33.7147 109.299 34.152C108.936 34.5787 108.755 35.208 108.755 36.04L108.659 34.264C108.702 33.5173 108.984 32.936 109.507 32.52C110.03 32.104 110.686 31.896 111.475 31.896C112.542 31.896 113.32 32.2053 113.811 32.824C114.312 33.4427 114.563 34.2907 114.563 35.368V41H112.691ZM106.883 41V32.088H108.755V41H106.883Z" fill="#1F1F1F"/>
<defs>
<clipPath id="clip0_328_227">
<rect width="60" height="60" fill="white" transform="translate(5 5)"/>
</clipPath>
</defs>
</svg>
