<svg width="193" height="70" viewBox="0 0 193 70" fill="none" xmlns="http://www.w3.org/2000/svg">
<rect width="193" height="70" rx="35" fill="#F7F7F7"/>
<g clip-path="url(#clip0_328_65)">
<path d="M35 65C51.5685 65 65 51.5685 65 35C65 18.4315 51.5685 5 35 5C18.4315 5 5 18.4315 5 35C5 51.5685 18.4315 65 35 65Z" fill="#F0F0F0"/>
<path d="M33.6956 35H64.9999C64.9999 32.2922 64.6389 29.6691 63.9664 27.1738H33.6956V35Z" fill="#D80027"/>
<path d="M33.6956 19.3476H60.5966C58.7602 16.3509 56.4121 13.7021 53.6744 11.5215H33.6956V19.3476Z" fill="#D80027"/>
<path d="M35 64.9997C42.0604 64.9997 48.5499 62.5594 53.6745 58.478H16.3254C21.4501 62.5594 27.9395 64.9997 35 64.9997Z" fill="#D80027"/>
<path d="M9.40317 50.6518H60.5968C62.0711 48.2461 63.2145 45.6164 63.9665 42.8257H6.03345C6.78544 45.6164 7.92884 48.2461 9.40317 50.6518Z" fill="#D80027"/>
<path d="M18.8966 9.68492H21.6304L19.0875 11.5324L20.0588 14.5217L17.516 12.6743L14.9731 14.5217L15.8122 11.9393C13.5732 13.8043 11.6108 15.9894 9.99359 18.4241H10.8696L9.25086 19.6C8.99867 20.0207 8.7568 20.4481 8.525 20.8818L9.29797 23.2609L7.85586 22.2131C7.49738 22.9726 7.16949 23.7492 6.87477 24.542L7.72637 27.1632H10.8696L8.3266 29.0107L9.29797 32L6.75512 30.1525L5.23191 31.2593C5.07945 32.4848 5 33.7331 5 35H35C35 18.4316 35 16.4783 35 5C29.0736 5 23.549 6.71914 18.8966 9.68492ZM20.0588 32L17.516 30.1525L14.9731 32L15.9445 29.0107L13.4015 27.1632H16.5447L17.516 24.1739L18.4872 27.1632H21.6304L19.0875 29.0107L20.0588 32ZM19.0875 20.2715L20.0588 23.2609L17.516 21.4134L14.9731 23.2609L15.9445 20.2715L13.4015 18.4241H16.5447L17.516 15.4347L18.4872 18.4241H21.6304L19.0875 20.2715ZM30.8197 32L28.2768 30.1525L25.734 32L26.7054 29.0107L24.1624 27.1632H27.3056L28.2768 24.1739L29.2481 27.1632H32.3913L29.8483 29.0107L30.8197 32ZM29.8483 20.2715L30.8197 23.2609L28.2768 21.4134L25.734 23.2609L26.7054 20.2715L24.1624 18.4241H27.3056L28.2768 15.4347L29.2481 18.4241H32.3913L29.8483 20.2715ZM29.8483 11.5324L30.8197 14.5217L28.2768 12.6743L25.734 14.5217L26.7054 11.5324L24.1624 9.68492H27.3056L28.2768 6.69559L29.2481 9.68492H32.3913L29.8483 11.5324Z" fill="#0052B4"/>
</g>
<path d="M80.216 41.24C79.4267 41.24 78.712 41.0907 78.072 40.792C77.4427 40.4933 76.9413 40.0187 76.568 39.368C76.2053 38.7067 76.024 37.8427 76.024 36.776V29.8H78.04V37.048C78.04 37.6347 78.136 38.12 78.328 38.504C78.5307 38.888 78.7973 39.1707 79.128 39.352C79.4587 39.5333 79.8213 39.624 80.216 39.624C80.856 39.624 81.384 39.416 81.8 39C82.2267 38.584 82.44 37.9333 82.44 37.048V29.8H84.424V36.776C84.424 37.8427 84.2427 38.7067 83.88 39.368C83.5173 40.0187 83.016 40.4933 82.376 40.792C81.7467 41.0907 81.0267 41.24 80.216 41.24ZM92.0973 41V35.72C92.0973 34.2373 91.4786 33.496 90.2413 33.496C89.5906 33.496 89.0786 33.7147 88.7053 34.152C88.3426 34.5787 88.1613 35.208 88.1613 36.04L88.0653 34.264C88.1079 33.5173 88.3906 32.936 88.9133 32.52C89.4359 32.104 90.0919 31.896 90.8813 31.896C91.9479 31.896 92.7266 32.2053 93.2173 32.824C93.7186 33.4427 93.9693 34.2907 93.9693 35.368V41H92.0973ZM86.2893 41V32.088H88.1613V41H86.2893ZM95.7736 41V32.104H97.6456V41H95.7736ZM96.6856 30.792C96.3336 30.792 96.0456 30.68 95.8216 30.456C95.6083 30.232 95.5016 29.9653 95.5016 29.656C95.5016 29.3573 95.6083 29.1013 95.8216 28.888C96.0456 28.664 96.3336 28.552 96.6856 28.552C97.0483 28.552 97.3363 28.664 97.5496 28.888C97.7736 29.1013 97.8856 29.3573 97.8856 29.656C97.8856 29.976 97.7736 30.248 97.5496 30.472C97.3256 30.6853 97.0376 30.792 96.6856 30.792ZM102.849 41C102.241 41 101.761 40.9253 101.409 40.776C101.068 40.6267 100.828 40.3813 100.689 40.04C100.55 39.6987 100.481 39.2453 100.481 38.68V29.784H102.353V38.552C102.353 38.8613 102.417 39.08 102.545 39.208C102.673 39.336 102.881 39.4 103.169 39.4H104.385V41H102.849ZM98.993 33.704V32.104H104.385V33.704H98.993ZM109.279 41.224C108.426 41.224 107.695 41.0267 107.087 40.632C106.49 40.2373 106.031 39.6827 105.711 38.968C105.391 38.2427 105.231 37.4 105.231 36.44C105.231 35.5013 105.396 34.6907 105.727 34.008C106.058 33.3253 106.527 32.7973 107.135 32.424C107.743 32.0507 108.442 31.864 109.231 31.864C109.967 31.864 110.618 32.024 111.183 32.344C111.748 32.664 112.191 33.1547 112.511 33.816C112.831 34.4667 112.991 35.2933 112.991 36.296V36.936H106.335V35.608H111.359L110.991 35.816C111.002 35.752 111.007 35.6827 111.007 35.608C111.007 35.5333 111.007 35.464 111.007 35.4C111.007 34.8133 110.858 34.3387 110.559 33.976C110.26 33.6027 109.796 33.416 109.167 33.416C108.548 33.416 108.052 33.6347 107.679 34.072C107.316 34.5093 107.135 35.2667 107.135 36.344C107.135 37.496 107.295 38.3387 107.615 38.872C107.946 39.4053 108.5 39.672 109.279 39.672C109.748 39.672 110.159 39.5547 110.511 39.32C110.863 39.0747 111.103 38.6533 111.231 38.056L112.911 38.52C112.73 39.2667 112.442 39.8373 112.047 40.232C111.652 40.616 111.21 40.8773 110.719 41.016C110.228 41.1547 109.748 41.224 109.279 41.224ZM117.723 41.24C117.051 41.24 116.432 41.0693 115.867 40.728C115.312 40.376 114.869 39.8533 114.539 39.16C114.208 38.4667 114.043 37.592 114.043 36.536C114.043 35.4907 114.208 34.6213 114.539 33.928C114.869 33.2347 115.312 32.7173 115.867 32.376C116.432 32.0347 117.051 31.864 117.723 31.864C118.235 31.864 118.699 31.976 119.115 32.2C119.531 32.4133 119.867 32.728 120.123 33.144C120.379 33.56 120.523 34.0613 120.555 34.648L121.419 36.536L120.555 38.44C120.523 39.016 120.379 39.5173 120.123 39.944C119.867 40.36 119.531 40.68 119.115 40.904C118.699 41.128 118.235 41.24 117.723 41.24ZM118.219 39.592C118.699 39.592 119.093 39.4587 119.403 39.192C119.723 38.9253 119.957 38.5627 120.107 38.104C120.267 37.6453 120.347 37.1227 120.347 36.536C120.347 35.96 120.272 35.4427 120.123 34.984C119.973 34.5253 119.739 34.1627 119.419 33.896C119.099 33.6293 118.699 33.496 118.219 33.496C117.483 33.496 116.917 33.7627 116.523 34.296C116.139 34.8293 115.947 35.576 115.947 36.536C115.947 37.4853 116.139 38.232 116.523 38.776C116.907 39.32 117.472 39.592 118.219 39.592ZM120.347 41V38.344V34.792V28.856H122.219V41H120.347ZM131.285 41.24C130.506 41.24 129.807 41.1227 129.189 40.888C128.581 40.6427 128.085 40.2693 127.701 39.768C127.317 39.256 127.082 38.616 126.997 37.848L128.981 37.448C129.013 37.8853 129.098 38.248 129.237 38.536C129.375 38.8133 129.551 39.0373 129.765 39.208C129.978 39.368 130.207 39.4853 130.453 39.56C130.709 39.624 130.97 39.656 131.237 39.656C131.525 39.656 131.802 39.6027 132.069 39.496C132.335 39.3893 132.559 39.224 132.741 39C132.922 38.7653 133.013 38.4667 133.013 38.104C133.013 37.56 132.805 37.1333 132.389 36.824C131.973 36.5147 131.311 36.264 130.405 36.072C129.679 35.9013 129.093 35.656 128.645 35.336C128.197 35.016 127.866 34.6373 127.653 34.2C127.45 33.7627 127.349 33.2827 127.349 32.76C127.349 32.12 127.498 31.56 127.797 31.08C128.106 30.6 128.538 30.2267 129.093 29.96C129.647 29.6933 130.293 29.56 131.029 29.56C131.466 29.56 131.893 29.608 132.309 29.704C132.735 29.8 133.125 29.9653 133.477 30.2C133.829 30.424 134.127 30.728 134.373 31.112C134.618 31.4853 134.778 31.9547 134.853 32.52L132.917 33C132.874 32.5413 132.762 32.1787 132.581 31.912C132.399 31.6347 132.17 31.4373 131.893 31.32C131.626 31.2027 131.327 31.144 130.997 31.144C130.698 31.144 130.421 31.1973 130.165 31.304C129.919 31.4 129.722 31.5493 129.573 31.752C129.423 31.9547 129.349 32.2 129.349 32.488C129.349 32.7547 129.397 33 129.493 33.224C129.599 33.448 129.802 33.6507 130.101 33.832C130.399 34.0027 130.831 34.1573 131.397 34.296C132.218 34.488 132.89 34.744 133.413 35.064C133.946 35.3733 134.335 35.752 134.581 36.2C134.826 36.648 134.949 37.1707 134.949 37.768C134.959 38.3547 134.863 38.8667 134.661 39.304C134.458 39.7413 134.186 40.104 133.845 40.392C133.503 40.68 133.109 40.8933 132.661 41.032C132.223 41.1707 131.765 41.24 131.285 41.24ZM139.693 41C139.085 41 138.605 40.9253 138.253 40.776C137.911 40.6267 137.671 40.3813 137.533 40.04C137.394 39.6987 137.325 39.2453 137.325 38.68V29.784H139.197V38.552C139.197 38.8613 139.261 39.08 139.389 39.208C139.517 39.336 139.725 39.4 140.013 39.4H141.229V41H139.693ZM135.837 33.704V32.104H141.229V33.704H135.837ZM147.588 41V34.92C147.588 34.408 147.438 34.0347 147.14 33.8C146.841 33.5653 146.468 33.448 146.02 33.448C145.508 33.448 145.054 33.576 144.66 33.832C144.265 34.088 143.972 34.4027 143.78 34.776L142.5 33.624C142.905 33.016 143.428 32.5733 144.068 32.296C144.718 32.008 145.406 31.864 146.132 31.864C146.825 31.864 147.417 31.9707 147.908 32.184C148.409 32.3973 148.793 32.7333 149.06 33.192C149.337 33.6507 149.476 34.2533 149.476 35V41H147.588ZM145.076 41.176C144.212 41.176 143.545 40.9413 143.076 40.472C142.606 39.992 142.372 39.3733 142.372 38.616C142.372 37.8053 142.638 37.1653 143.172 36.696C143.716 36.216 144.532 35.8853 145.62 35.704L147.796 35.32V36.728L145.812 37.08C145.289 37.1867 144.9 37.352 144.644 37.576C144.398 37.8 144.276 38.0987 144.276 38.472C144.276 38.8987 144.404 39.208 144.66 39.4C144.926 39.592 145.246 39.688 145.62 39.688C146.238 39.688 146.718 39.4693 147.06 39.032C147.412 38.584 147.588 37.9493 147.588 37.128L147.7 38.504C147.71 39.336 147.486 39.992 147.028 40.472C146.58 40.9413 145.929 41.176 145.076 41.176ZM154.302 41C153.694 41 153.214 40.9253 152.862 40.776C152.521 40.6267 152.281 40.3813 152.142 40.04C152.003 39.6987 151.934 39.2453 151.934 38.68V29.784H153.806V38.552C153.806 38.8613 153.87 39.08 153.998 39.208C154.126 39.336 154.334 39.4 154.622 39.4H155.838V41H154.302ZM150.446 33.704V32.104H155.838V33.704H150.446ZM160.732 41.224C159.879 41.224 159.148 41.0267 158.54 40.632C157.943 40.2373 157.484 39.6827 157.164 38.968C156.844 38.2427 156.684 37.4 156.684 36.44C156.684 35.5013 156.85 34.6907 157.18 34.008C157.511 33.3253 157.98 32.7973 158.588 32.424C159.196 32.0507 159.895 31.864 160.684 31.864C161.42 31.864 162.071 32.024 162.636 32.344C163.202 32.664 163.644 33.1547 163.964 33.816C164.284 34.4667 164.444 35.2933 164.444 36.296V36.936H157.788V35.608H162.812L162.444 35.816C162.455 35.752 162.46 35.6827 162.46 35.608C162.46 35.5333 162.46 35.464 162.46 35.4C162.46 34.8133 162.311 34.3387 162.012 33.976C161.714 33.6027 161.25 33.416 160.62 33.416C160.002 33.416 159.506 33.6347 159.132 34.072C158.77 34.5093 158.588 35.2667 158.588 36.344C158.588 37.496 158.748 38.3387 159.068 38.872C159.399 39.4053 159.954 39.672 160.732 39.672C161.202 39.672 161.612 39.5547 161.964 39.32C162.316 39.0747 162.556 38.6533 162.684 38.056L164.364 38.52C164.183 39.2667 163.895 39.8373 163.5 40.232C163.106 40.616 162.663 40.8773 162.172 41.016C161.682 41.1547 161.202 41.224 160.732 41.224ZM169.048 41.24C168.045 41.24 167.224 41.0373 166.584 40.632C165.955 40.216 165.549 39.6027 165.368 38.792L167.112 38.328C167.208 38.8507 167.432 39.2347 167.784 39.48C168.147 39.7147 168.579 39.832 169.08 39.832C169.528 39.832 169.891 39.72 170.168 39.496C170.456 39.272 170.6 39.0053 170.6 38.696C170.6 38.3013 170.445 37.9973 170.136 37.784C169.827 37.56 169.272 37.3733 168.472 37.224C167.533 37.0427 166.829 36.712 166.36 36.232C165.901 35.752 165.672 35.1707 165.672 34.488C165.672 33.9547 165.811 33.4907 166.088 33.096C166.365 32.7013 166.744 32.3973 167.224 32.184C167.715 31.9707 168.285 31.864 168.936 31.864C169.864 31.864 170.616 32.04 171.192 32.392C171.768 32.7333 172.163 33.2987 172.376 34.088L170.696 34.664C170.557 34.1307 170.333 33.768 170.024 33.576C169.725 33.3733 169.357 33.272 168.92 33.272C168.536 33.272 168.216 33.3573 167.96 33.528C167.704 33.6987 167.576 33.9333 167.576 34.232C167.576 34.5733 167.709 34.8507 167.976 35.064C168.253 35.2667 168.755 35.4427 169.48 35.592C170.483 35.7947 171.229 36.1253 171.72 36.584C172.221 37.0427 172.472 37.656 172.472 38.424C172.472 39.3093 172.168 40.0027 171.56 40.504C170.952 40.9947 170.115 41.24 169.048 41.24Z" fill="#1F1F1F"/>
<defs>
<clipPath id="clip0_328_65">
<rect width="60" height="60" fill="white" transform="translate(5 5)"/>
</clipPath>
</defs>
</svg>
