<svg width="212" height="70" viewBox="0 0 212 70" fill="none" xmlns="http://www.w3.org/2000/svg">
<rect width="212" height="70" rx="35" fill="#F7F7F7"/>
<g clip-path="url(#clip0_328_27)">
<path d="M35 65C51.5685 65 65 51.5685 65 35C65 18.4315 51.5685 5 35 5C18.4315 5 5 18.4315 5 35C5 51.5685 18.4315 65 35 65Z" fill="#F0F0F0"/>
<path d="M11.2015 16.7358C8.84501 19.8018 7.0681 23.3356 6.03345 27.1746H21.6402L11.2015 16.7358Z" fill="#0052B4"/>
<path d="M63.9664 27.1744C62.9318 23.3356 61.1547 19.8018 58.7983 16.7358L48.3599 27.1744H63.9664Z" fill="#0052B4"/>
<path d="M6.03345 42.8267C7.06821 46.6655 8.84513 50.1993 11.2015 53.2651L21.6399 42.8267H6.03345Z" fill="#0052B4"/>
<path d="M53.2645 11.2019C50.1985 8.84537 46.6649 7.06846 42.8259 6.03369V21.6404L53.2645 11.2019Z" fill="#0052B4"/>
<path d="M16.7354 58.7987C19.8013 61.1552 23.3351 62.9321 27.1739 63.9669V48.3604L16.7354 58.7987Z" fill="#0052B4"/>
<path d="M27.1738 6.03369C23.335 7.06846 19.8012 8.84537 16.7354 11.2018L27.1738 21.6403V6.03369Z" fill="#0052B4"/>
<path d="M42.8262 63.9669C46.665 62.9321 50.1988 61.1552 53.2647 58.7988L42.8262 48.3604V63.9669Z" fill="#0052B4"/>
<path d="M48.3599 42.8267L58.7983 53.2653C61.1547 50.1994 62.9318 46.6655 63.9664 42.8267H48.3599Z" fill="#0052B4"/>
<path d="M64.7461 31.087H38.9132H38.9131V5.25395C37.6321 5.08719 36.3262 5 35 5C33.6736 5 32.3679 5.08719 31.087 5.25395V31.0868V31.0869H5.25395C5.08719 32.3679 5 33.6738 5 35C5 36.3264 5.08719 37.6321 5.25395 38.913H31.0868H31.0869V64.7461C32.3679 64.9128 33.6736 65 35 65C36.3262 65 37.6321 64.9129 38.913 64.7461V38.9132V38.9131H64.7461C64.9128 37.6321 65 36.3264 65 35C65 33.6738 64.9128 32.3679 64.7461 31.087Z" fill="#D80027"/>
<path d="M42.8262 42.8263L56.2132 56.2133C56.8289 55.5978 57.4162 54.9544 57.9766 54.2873L46.5155 42.8262H42.8262V42.8263Z" fill="#D80027"/>
<path d="M27.1738 42.8262H27.1735L13.7866 56.2131C14.4021 56.8288 15.0456 57.4161 15.7126 57.9765L27.1738 46.5151V42.8262Z" fill="#D80027"/>
<path d="M27.1739 27.174V27.1738L13.7869 13.7866C13.1712 14.4021 12.5838 15.0456 12.0234 15.7126L23.4847 27.1739L27.1739 27.174Z" fill="#D80027"/>
<path d="M42.8262 27.174L56.2133 13.7868C55.5978 13.1711 54.9544 12.5837 54.2873 12.0234L42.8262 23.4847V27.174Z" fill="#D80027"/>
</g>
<path d="M80.216 41.24C79.4267 41.24 78.712 41.0907 78.072 40.792C77.4427 40.4933 76.9413 40.0187 76.568 39.368C76.2053 38.7067 76.024 37.8427 76.024 36.776V29.8H78.04V37.048C78.04 37.6347 78.136 38.12 78.328 38.504C78.5307 38.888 78.7973 39.1707 79.128 39.352C79.4587 39.5333 79.8213 39.624 80.216 39.624C80.856 39.624 81.384 39.416 81.8 39C82.2267 38.584 82.44 37.9333 82.44 37.048V29.8H84.424V36.776C84.424 37.8427 84.2427 38.7067 83.88 39.368C83.5173 40.0187 83.016 40.4933 82.376 40.792C81.7467 41.0907 81.0267 41.24 80.216 41.24ZM92.0973 41V35.72C92.0973 34.2373 91.4786 33.496 90.2413 33.496C89.5906 33.496 89.0786 33.7147 88.7053 34.152C88.3426 34.5787 88.1613 35.208 88.1613 36.04L88.0653 34.264C88.1079 33.5173 88.3906 32.936 88.9133 32.52C89.4359 32.104 90.0919 31.896 90.8813 31.896C91.9479 31.896 92.7266 32.2053 93.2173 32.824C93.7186 33.4427 93.9693 34.2907 93.9693 35.368V41H92.0973ZM86.2893 41V32.088H88.1613V41H86.2893ZM95.7736 41V32.104H97.6456V41H95.7736ZM96.6856 30.792C96.3336 30.792 96.0456 30.68 95.8216 30.456C95.6083 30.232 95.5016 29.9653 95.5016 29.656C95.5016 29.3573 95.6083 29.1013 95.8216 28.888C96.0456 28.664 96.3336 28.552 96.6856 28.552C97.0483 28.552 97.3363 28.664 97.5496 28.888C97.7736 29.1013 97.8856 29.3573 97.8856 29.656C97.8856 29.976 97.7736 30.248 97.5496 30.472C97.3256 30.6853 97.0376 30.792 96.6856 30.792ZM102.849 41C102.241 41 101.761 40.9253 101.409 40.776C101.068 40.6267 100.828 40.3813 100.689 40.04C100.55 39.6987 100.481 39.2453 100.481 38.68V29.784H102.353V38.552C102.353 38.8613 102.417 39.08 102.545 39.208C102.673 39.336 102.881 39.4 103.169 39.4H104.385V41H102.849ZM98.993 33.704V32.104H104.385V33.704H98.993ZM109.279 41.224C108.426 41.224 107.695 41.0267 107.087 40.632C106.49 40.2373 106.031 39.6827 105.711 38.968C105.391 38.2427 105.231 37.4 105.231 36.44C105.231 35.5013 105.396 34.6907 105.727 34.008C106.058 33.3253 106.527 32.7973 107.135 32.424C107.743 32.0507 108.442 31.864 109.231 31.864C109.967 31.864 110.618 32.024 111.183 32.344C111.748 32.664 112.191 33.1547 112.511 33.816C112.831 34.4667 112.991 35.2933 112.991 36.296V36.936H106.335V35.608H111.359L110.991 35.816C111.002 35.752 111.007 35.6827 111.007 35.608C111.007 35.5333 111.007 35.464 111.007 35.4C111.007 34.8133 110.858 34.3387 110.559 33.976C110.26 33.6027 109.796 33.416 109.167 33.416C108.548 33.416 108.052 33.6347 107.679 34.072C107.316 34.5093 107.135 35.2667 107.135 36.344C107.135 37.496 107.295 38.3387 107.615 38.872C107.946 39.4053 108.5 39.672 109.279 39.672C109.748 39.672 110.159 39.5547 110.511 39.32C110.863 39.0747 111.103 38.6533 111.231 38.056L112.911 38.52C112.73 39.2667 112.442 39.8373 112.047 40.232C111.652 40.616 111.21 40.8773 110.719 41.016C110.228 41.1547 109.748 41.224 109.279 41.224ZM117.723 41.24C117.051 41.24 116.432 41.0693 115.867 40.728C115.312 40.376 114.869 39.8533 114.539 39.16C114.208 38.4667 114.043 37.592 114.043 36.536C114.043 35.4907 114.208 34.6213 114.539 33.928C114.869 33.2347 115.312 32.7173 115.867 32.376C116.432 32.0347 117.051 31.864 117.723 31.864C118.235 31.864 118.699 31.976 119.115 32.2C119.531 32.4133 119.867 32.728 120.123 33.144C120.379 33.56 120.523 34.0613 120.555 34.648L121.419 36.536L120.555 38.44C120.523 39.016 120.379 39.5173 120.123 39.944C119.867 40.36 119.531 40.68 119.115 40.904C118.699 41.128 118.235 41.24 117.723 41.24ZM118.219 39.592C118.699 39.592 119.093 39.4587 119.403 39.192C119.723 38.9253 119.957 38.5627 120.107 38.104C120.267 37.6453 120.347 37.1227 120.347 36.536C120.347 35.96 120.272 35.4427 120.123 34.984C119.973 34.5253 119.739 34.1627 119.419 33.896C119.099 33.6293 118.699 33.496 118.219 33.496C117.483 33.496 116.917 33.7627 116.523 34.296C116.139 34.8293 115.947 35.576 115.947 36.536C115.947 37.4853 116.139 38.232 116.523 38.776C116.907 39.32 117.472 39.592 118.219 39.592ZM120.347 41V38.344V34.792V28.856H122.219V41H120.347ZM133.445 41L129.157 34.984L133.381 29.8H135.861L131.125 35.416V34.424L135.957 41H133.445ZM127.605 41V29.8H129.605V41H127.605ZM137.289 41V32.104H139.161V41H137.289ZM138.201 30.792C137.849 30.792 137.561 30.68 137.337 30.456C137.124 30.232 137.017 29.9653 137.017 29.656C137.017 29.3573 137.124 29.1013 137.337 28.888C137.561 28.664 137.849 28.552 138.201 28.552C138.564 28.552 138.852 28.664 139.065 28.888C139.289 29.1013 139.401 29.3573 139.401 29.656C139.401 29.976 139.289 30.248 139.065 30.472C138.841 30.6853 138.553 30.792 138.201 30.792ZM146.863 41V35.72C146.863 34.2373 146.244 33.496 145.007 33.496C144.356 33.496 143.844 33.7147 143.471 34.152C143.108 34.5787 142.927 35.208 142.927 36.04L142.831 34.264C142.874 33.5173 143.156 32.936 143.679 32.52C144.202 32.104 144.858 31.896 145.647 31.896C146.714 31.896 147.492 32.2053 147.983 32.824C148.484 33.4427 148.735 34.2907 148.735 35.368V41H146.863ZM141.055 41V32.088H142.927V41H141.055ZM151.449 44.44V42.84H155.033C155.471 42.84 155.801 42.7227 156.025 42.488C156.26 42.2533 156.377 41.8747 156.377 41.352V32.088H158.249V41.304C158.249 41.976 158.159 42.5413 157.977 43C157.807 43.4693 157.497 43.8267 157.049 44.072C156.601 44.3173 155.972 44.44 155.161 44.44H151.449ZM153.753 41.24C153.081 41.24 152.468 41.0693 151.913 40.728C151.359 40.376 150.916 39.8533 150.585 39.16C150.255 38.456 150.089 37.5813 150.089 36.536C150.089 35.48 150.255 34.6107 150.585 33.928C150.916 33.2347 151.359 32.7173 151.913 32.376C152.468 32.0347 153.081 31.864 153.753 31.864C154.255 31.864 154.713 31.976 155.129 32.2C155.556 32.4133 155.897 32.728 156.153 33.144C156.42 33.56 156.569 34.0613 156.601 34.648L157.433 36.536L156.601 38.44C156.569 39.016 156.42 39.5173 156.153 39.944C155.897 40.36 155.556 40.68 155.129 40.904C154.713 41.128 154.255 41.24 153.753 41.24ZM154.249 39.592C154.74 39.592 155.14 39.4587 155.449 39.192C155.759 38.9253 155.988 38.5627 156.137 38.104C156.287 37.6453 156.361 37.1227 156.361 36.536C156.361 35.9493 156.281 35.432 156.121 34.984C155.972 34.5253 155.743 34.1627 155.433 33.896C155.124 33.6293 154.729 33.496 154.249 33.496C153.513 33.496 152.948 33.768 152.553 34.312C152.159 34.8453 151.961 35.5867 151.961 36.536C151.961 37.496 152.159 38.248 152.553 38.792C152.948 39.3253 153.513 39.592 154.249 39.592ZM163.316 41.24C162.644 41.24 162.026 41.0693 161.46 40.728C160.906 40.376 160.463 39.8533 160.132 39.16C159.802 38.4667 159.636 37.592 159.636 36.536C159.636 35.4907 159.802 34.6213 160.132 33.928C160.463 33.2347 160.906 32.7173 161.46 32.376C162.026 32.0347 162.644 31.864 163.316 31.864C163.828 31.864 164.292 31.976 164.708 32.2C165.124 32.4133 165.46 32.728 165.716 33.144C165.972 33.56 166.116 34.0613 166.148 34.648L167.012 36.536L166.148 38.44C166.116 39.016 165.972 39.5173 165.716 39.944C165.46 40.36 165.124 40.68 164.708 40.904C164.292 41.128 163.828 41.24 163.316 41.24ZM163.812 39.592C164.292 39.592 164.687 39.4587 164.996 39.192C165.316 38.9253 165.551 38.5627 165.7 38.104C165.86 37.6453 165.94 37.1227 165.94 36.536C165.94 35.96 165.866 35.4427 165.716 34.984C165.567 34.5253 165.332 34.1627 165.012 33.896C164.692 33.6293 164.292 33.496 163.812 33.496C163.076 33.496 162.511 33.7627 162.116 34.296C161.732 34.8293 161.54 35.576 161.54 36.536C161.54 37.4853 161.732 38.232 162.116 38.776C162.5 39.32 163.066 39.592 163.812 39.592ZM165.94 41V38.344V34.792V28.856H167.812V41H165.94ZM173.296 41.24C172.443 41.24 171.707 41.0427 171.088 40.648C170.48 40.2427 170.011 39.688 169.68 38.984C169.36 38.28 169.2 37.464 169.2 36.536C169.2 35.5973 169.365 34.7813 169.696 34.088C170.027 33.384 170.496 32.84 171.104 32.456C171.712 32.0613 172.443 31.864 173.296 31.864C174.16 31.864 174.891 32.0613 175.488 32.456C176.096 32.84 176.56 33.384 176.88 34.088C177.2 34.7813 177.36 35.5973 177.36 36.536C177.36 37.464 177.2 38.2853 176.88 39C176.56 39.704 176.096 40.2533 175.488 40.648C174.891 41.0427 174.16 41.24 173.296 41.24ZM173.296 39.64C174.021 39.64 174.56 39.3733 174.912 38.84C175.275 38.296 175.456 37.528 175.456 36.536C175.456 35.544 175.275 34.7867 174.912 34.264C174.549 33.7307 174.011 33.464 173.296 33.464C172.571 33.464 172.021 33.7307 171.648 34.264C171.285 34.7973 171.104 35.5547 171.104 36.536C171.104 37.5387 171.296 38.3067 171.68 38.84C172.075 39.3733 172.613 39.64 173.296 39.64ZM188.678 41V35.24C188.678 34.6427 188.55 34.1947 188.294 33.896C188.038 33.5867 187.675 33.432 187.206 33.432C186.705 33.432 186.31 33.592 186.022 33.912C185.734 34.2213 185.59 34.6693 185.59 35.256L185.286 33.896C185.382 33.288 185.654 32.7973 186.102 32.424C186.55 32.0507 187.126 31.864 187.83 31.864C188.705 31.864 189.377 32.12 189.846 32.632C190.315 33.1333 190.55 33.9013 190.55 34.936V41H188.678ZM178.758 41V32.088H180.63V41H178.758ZM183.718 41V35.24C183.718 34.6427 183.59 34.1947 183.334 33.896C183.089 33.5867 182.721 33.432 182.23 33.432C181.739 33.432 181.35 33.592 181.062 33.912C180.774 34.2213 180.63 34.6693 180.63 35.256L180.502 33.912C180.523 33.336 180.753 32.8507 181.19 32.456C181.638 32.0613 182.23 31.864 182.966 31.864C183.809 31.864 184.454 32.12 184.902 32.632C185.361 33.1333 185.59 33.9013 185.59 34.936V41H183.718Z" fill="#1F1F1F"/>
<defs>
<clipPath id="clip0_328_27">
<rect width="60" height="60" fill="white" transform="translate(5 5)"/>
</clipPath>
</defs>
</svg>
