<svg width="156" height="70" viewBox="0 0 156 70" fill="none" xmlns="http://www.w3.org/2000/svg">
<rect width="156" height="70" rx="35" fill="#F7F7F7"/>
<g clip-path="url(#clip0_328_1479)">
<path d="M35 65C51.5685 65 65 51.5685 65 35C65 18.4315 51.5685 5 35 5C18.4315 5 5 18.4315 5 35C5 51.5685 18.4315 65 35 65Z" fill="#F0F0F0"/>
<path d="M35 27.1738H63.9665C63.2143 24.3831 62.071 21.7533 60.5968 19.3477H35V27.1738Z" fill="#338AF3"/>
<path d="M16.3255 58.4785H53.6747C56.4125 56.2979 58.7605 53.6492 60.5968 50.6523H9.40332C11.2398 53.6491 13.5877 56.2979 16.3255 58.4785Z" fill="#338AF3"/>
<path d="M35 5V11.5217H53.6747C48.55 7.44031 42.0604 5 35 5Z" fill="#338AF3"/>
<path d="M35 27.1738H63.9665C63.2143 24.3831 62.071 21.7533 60.5968 19.3477H35V27.1738Z" fill="#338AF3"/>
<path d="M5 35C5 37.7079 5.36094 40.3307 6.03348 42.8261H63.9666C64.6391 40.3307 65 37.7079 65 35H5Z" fill="#338AF3"/>
<path d="M31.087 22.557L27.423 24.2804L29.3741 27.8289L25.3956 27.0679L24.8914 31.0868L22.1204 28.1309L19.3492 31.0868L18.8451 27.0679L14.8666 27.8286L16.8176 24.2803L13.1538 22.557L16.8177 20.8337L14.8666 17.2853L18.845 18.0463L19.3493 14.0273L22.1204 16.9833L24.8915 14.0273L25.3956 18.0463L29.3742 17.2853L27.4231 20.8338L31.087 22.557Z" fill="#FFDA44"/>
</g>
<path d="M80.216 41.24C79.4267 41.24 78.712 41.0907 78.072 40.792C77.4427 40.4933 76.9413 40.0187 76.568 39.368C76.2053 38.7067 76.024 37.8427 76.024 36.776V29.8H78.04V37.048C78.04 37.6347 78.136 38.12 78.328 38.504C78.5307 38.888 78.7973 39.1707 79.128 39.352C79.4587 39.5333 79.8213 39.624 80.216 39.624C80.856 39.624 81.384 39.416 81.8 39C82.2267 38.584 82.44 37.9333 82.44 37.048V29.8H84.424V36.776C84.424 37.8427 84.2427 38.7067 83.88 39.368C83.5173 40.0187 83.016 40.4933 82.376 40.792C81.7467 41.0907 81.0267 41.24 80.216 41.24ZM86.2893 41V32.104H88.1613V41H86.2893ZM88.1613 36.248L88.0653 34.104C88.1399 33.4 88.3479 32.8827 88.6893 32.552C89.0306 32.2213 89.5373 32.056 90.2093 32.056H90.9933V33.864H90.0813C89.3773 33.864 88.8813 34.0453 88.5933 34.408C88.3053 34.76 88.1613 35.3733 88.1613 36.248ZM95.7594 41.24C95.0234 41.24 94.3727 41.1013 93.8074 40.824C93.2527 40.536 92.8154 40.0987 92.4954 39.512C92.186 38.9147 92.0314 38.1573 92.0314 37.24V32.104H93.8874V37.512C93.8874 38.2587 94.0634 38.8027 94.4154 39.144C94.778 39.4747 95.226 39.64 95.7594 39.64C96.3034 39.64 96.746 39.4693 97.0874 39.128C97.4287 38.776 97.5994 38.2373 97.5994 37.512V32.104H99.4874V37.24C99.4874 38.168 99.3274 38.9307 99.0074 39.528C98.698 40.1147 98.2607 40.5467 97.6954 40.824C97.1407 41.1013 96.4954 41.24 95.7594 41.24ZM102.184 44.44V42.84H105.768C106.205 42.84 106.536 42.7227 106.76 42.488C106.994 42.2533 107.112 41.8747 107.112 41.352V32.088H108.984V41.304C108.984 41.976 108.893 42.5413 108.712 43C108.541 43.4693 108.232 43.8267 107.784 44.072C107.336 44.3173 106.706 44.44 105.896 44.44H102.184ZM104.488 41.24C103.816 41.24 103.202 41.0693 102.648 40.728C102.093 40.376 101.65 39.8533 101.32 39.16C100.989 38.456 100.824 37.5813 100.824 36.536C100.824 35.48 100.989 34.6107 101.32 33.928C101.65 33.2347 102.093 32.7173 102.648 32.376C103.202 32.0347 103.816 31.864 104.488 31.864C104.989 31.864 105.448 31.976 105.864 32.2C106.29 32.4133 106.632 32.728 106.888 33.144C107.154 33.56 107.304 34.0613 107.336 34.648L108.168 36.536L107.336 38.44C107.304 39.016 107.154 39.5173 106.888 39.944C106.632 40.36 106.29 40.68 105.864 40.904C105.448 41.128 104.989 41.24 104.488 41.24ZM104.984 39.592C105.474 39.592 105.874 39.4587 106.184 39.192C106.493 38.9253 106.722 38.5627 106.872 38.104C107.021 37.6453 107.096 37.1227 107.096 36.536C107.096 35.9493 107.016 35.432 106.856 34.984C106.706 34.5253 106.477 34.1627 106.168 33.896C105.858 33.6293 105.464 33.496 104.984 33.496C104.248 33.496 103.682 33.768 103.288 34.312C102.893 34.8453 102.696 35.5867 102.696 36.536C102.696 37.496 102.893 38.248 103.288 38.792C103.682 39.3253 104.248 39.592 104.984 39.592ZM114.447 41.24C113.711 41.24 113.06 41.1013 112.495 40.824C111.94 40.536 111.503 40.0987 111.183 39.512C110.874 38.9147 110.719 38.1573 110.719 37.24V32.104H112.575V37.512C112.575 38.2587 112.751 38.8027 113.103 39.144C113.466 39.4747 113.914 39.64 114.447 39.64C114.991 39.64 115.434 39.4693 115.775 39.128C116.116 38.776 116.287 38.2373 116.287 37.512V32.104H118.175V37.24C118.175 38.168 118.015 38.9307 117.695 39.528C117.386 40.1147 116.948 40.5467 116.383 40.824C115.828 41.1013 115.183 41.24 114.447 41.24ZM124.603 41V34.92C124.603 34.408 124.454 34.0347 124.155 33.8C123.857 33.5653 123.483 33.448 123.035 33.448C122.523 33.448 122.07 33.576 121.675 33.832C121.281 34.088 120.987 34.4027 120.795 34.776L119.515 33.624C119.921 33.016 120.443 32.5733 121.083 32.296C121.734 32.008 122.422 31.864 123.147 31.864C123.841 31.864 124.433 31.9707 124.923 32.184C125.425 32.3973 125.809 32.7333 126.075 33.192C126.353 33.6507 126.491 34.2533 126.491 35V41H124.603ZM122.091 41.176C121.227 41.176 120.561 40.9413 120.091 40.472C119.622 39.992 119.387 39.3733 119.387 38.616C119.387 37.8053 119.654 37.1653 120.187 36.696C120.731 36.216 121.547 35.8853 122.635 35.704L124.811 35.32V36.728L122.827 37.08C122.305 37.1867 121.915 37.352 121.659 37.576C121.414 37.8 121.291 38.0987 121.291 38.472C121.291 38.8987 121.419 39.208 121.675 39.4C121.942 39.592 122.262 39.688 122.635 39.688C123.254 39.688 123.734 39.4693 124.075 39.032C124.427 38.584 124.603 37.9493 124.603 37.128L124.715 38.504C124.726 39.336 124.502 39.992 124.043 40.472C123.595 40.9413 122.945 41.176 122.091 41.176ZM127.642 44.44V42.84H129.082C129.434 42.84 129.706 42.76 129.898 42.6C130.09 42.4507 130.239 42.2053 130.346 41.864L133.562 32.104H135.546L131.866 42.648C131.706 43.096 131.519 43.448 131.306 43.704C131.093 43.9707 130.815 44.1573 130.474 44.264C130.133 44.3813 129.69 44.44 129.146 44.44H127.642ZM130.73 41.432L127.322 32.104H129.306L132.026 40.024L131.962 41.432H130.73Z" fill="#1F1F1F"/>
<defs>
<clipPath id="clip0_328_1479">
<rect width="60" height="60" fill="white" transform="translate(5 5)"/>
</clipPath>
</defs>
</svg>
